Shafarik-Regular.ufo
<glyph name="ampersand" format="2">
  <advance width="712"/>
  <unicode hex="0026"/>
  <outline>
    <contour>
      <point x="719" y="427" type="line"/>
      <point x="719" y="398" type="line"/>
      <point x="687" y="394"/>
      <point x="664.167" y="387.333"/>
      <point x="650.5" y="378" type="curve" smooth="yes"/>
      <point x="636.833" y="368.667"/>
      <point x="621" y="351"/>
      <point x="603" y="325" type="curve" smooth="yes"/>
      <point x="593" y="311"/>
      <point x="564" y="267.333"/>
      <point x="516" y="194" type="curve"/>
      <point x="543.333" y="167.333"/>
      <point x="573.833" y="133.833"/>
      <point x="607.5" y="93.5" type="curve" smooth="yes"/>
      <point x="641.167" y="53.1667"/>
      <point x="665.667" y="19.3333"/>
      <point x="681" y="-8" type="curve"/>
      <point x="674" y="-17" type="line"/>
      <point x="645.333" y="-15"/>
      <point x="618.167" y="-9.66667"/>
      <point x="592.5" y="-1" type="curve" smooth="yes"/>
      <point x="566.833" y="7.66667"/>
      <point x="550.667" y="15.6667"/>
      <point x="544" y="23" type="curve" smooth="yes"/>
      <point x="458" y="116" type="line"/>
      <point x="393.333" y="29.3333"/>
      <point x="324.667" y="-14"/>
      <point x="252" y="-14" type="curve" smooth="yes"/>
      <point x="191.333" y="-14"/>
      <point x="142.833" y="4.5"/>
      <point x="106.5" y="41.5" type="curve" smooth="yes"/>
      <point x="70.1667" y="78.5"/>
      <point x="52" y="120.667"/>
      <point x="52" y="168" type="curve" smooth="yes"/>
      <point x="52" y="195.333"/>
      <point x="58.5" y="220.167"/>
      <point x="71.5" y="242.5" type="curve" smooth="yes"/>
      <point x="84.5" y="264.833"/>
      <point x="99" y="282.833"/>
      <point x="115" y="296.5" type="curve" smooth="yes"/>
      <point x="131" y="310.167"/>
      <point x="154.962" y="328.205"/>
      <point x="186.885" y="350.616" type="curve" smooth="yes"/>
      <point x="192.962" y="354.872"/>
      <point x="197.334" y="358"/>
      <point x="200" y="360" type="curve"/>
      <point x="152.667" y="405.334"/>
      <point x="129" y="451.667"/>
      <point x="129" y="499" type="curve" smooth="yes"/>
      <point x="129" y="543.667"/>
      <point x="145.5" y="581.5"/>
      <point x="178.5" y="612.5" type="curve" smooth="yes"/>
      <point x="211.5" y="643.5"/>
      <point x="250.667" y="659"/>
      <point x="296" y="659" type="curve" smooth="yes"/>
      <point x="338.667" y="659"/>
      <point x="374.667" y="645.833"/>
      <point x="404" y="619.5" type="curve" smooth="yes"/>
      <point x="433.333" y="593.167"/>
      <point x="448" y="560"/>
      <point x="448" y="520" type="curve" smooth="yes"/>
      <point x="448" y="486"/>
      <point x="434" y="457"/>
      <point x="406" y="433" type="curve" smooth="yes"/>
      <point x="387.333" y="416.333"/>
      <point x="360.666" y="396.333"/>
      <point x="326" y="373" type="curve"/>
      <point x="395.333" y="312.333"/>
      <point x="450.333" y="261.333"/>
      <point x="491" y="220" type="curve"/>
      <point x="511.667" y="251.333"/>
      <point x="531" y="288"/>
      <point x="549" y="330" type="curve" smooth="yes"/>
      <point x="554.661" y="342.83"/>
      <point x="557.491" y="353.471"/>
      <point x="557.491" y="361.922" type="curve" smooth="yes"/>
      <point x="557.491" y="368.402"/>
      <point x="555.827" y="373.595"/>
      <point x="552.5" y="377.5" type="curve" smooth="yes"/>
      <point x="544.833" y="386.5"/>
      <point x="523.667" y="393.333"/>
      <point x="489" y="398" type="curve"/>
      <point x="489" y="427" type="line"/>
    </contour>
    <contour>
      <point x="286" y="624" type="curve" smooth="yes"/>
      <point x="263.333" y="624"/>
      <point x="244.5" y="614.833"/>
      <point x="229.5" y="596.5" type="curve" smooth="yes"/>
      <point x="214.5" y="578.167"/>
      <point x="207" y="554.667"/>
      <point x="207" y="526" type="curve" smooth="yes"/>
      <point x="207" y="501.332"/>
      <point x="214.167" y="479.166"/>
      <point x="228.5" y="459.5" type="curve" smooth="yes"/>
      <point x="242.833" y="439.833"/>
      <point x="266.333" y="417.666"/>
      <point x="299" y="393" type="curve"/>
      <point x="345.667" y="427"/>
      <point x="369" y="469.333"/>
      <point x="369" y="520" type="curve" smooth="yes"/>
      <point x="369" y="548.667"/>
      <point x="361.333" y="573.167"/>
      <point x="346" y="593.5" type="curve" smooth="yes"/>
      <point x="330.667" y="613.833"/>
      <point x="310.667" y="624"/>
    </contour>
    <contour>
      <point x="283" y="58" type="curve" smooth="yes"/>
      <point x="312.334" y="58"/>
      <point x="340.667" y="66.3333"/>
      <point x="368" y="83" type="curve" smooth="yes"/>
      <point x="395.333" y="99.6667"/>
      <point x="417.333" y="119.667"/>
      <point x="434" y="143" type="curve"/>
      <point x="377.333" y="205.667"/>
      <point x="308" y="270.333"/>
      <point x="226" y="337" type="curve"/>
      <point x="171.333" y="297"/>
      <point x="144" y="251.333"/>
      <point x="144" y="200" type="curve" smooth="yes"/>
      <point x="144" y="155.333"/>
      <point x="158" y="120.5"/>
      <point x="186" y="95.5" type="curve" smooth="yes"/>
      <point x="214" y="70.5"/>
      <point x="246.333" y="58"/>
    </contour>
  </outline>
</glyph>
<glyph name="parenleft" format="2">
  <advance width="250"/>
  <unicode hex="0028"/>
  <outline>
    <contour>
      <point x="154" y="324" type="curve" smooth="yes"/>
      <point x="154" y="141.436"/>
      <point x="171.822" y="6.65019"/>
      <point x="241" y="-96" type="curve"/>
      <point x="226" y="-124" type="line"/>
      <point x="155.416" y="-57.0053"/>
      <point x="101.664" y="22.975"/>
      <point x="70" y="124" type="curve" smooth="yes"/>
      <point x="56" y="168"/>
      <point x="47.667" y="204"/>
      <point x="45" y="232" type="curve" smooth="yes"/>
      <point x="41.5716" y="266.284"/>
      <point x="39.857" y="289.794"/>
      <point x="39.857" y="302.529" type="curve" smooth="yes"/>
      <point x="39.857" y="304.652"/>
      <point x="39.9047" y="306.476"/>
      <point x="40" y="308" type="curve" smooth="yes"/>
      <point x="40" y="318.333"/>
      <point x="40" y="328.667"/>
      <point x="40" y="339" type="curve" smooth="yes"/>
      <point x="40" y="460.832"/>
      <point x="75.0924" y="559.317"/>
      <point x="125" y="646" type="curve" smooth="yes"/>
      <point x="152.333" y="692.667"/>
      <point x="186" y="734.334"/>
      <point x="226" y="771" type="curve"/>
      <point x="241" y="742" type="line"/>
      <point x="195.947" y="675.493"/>
      <point x="167.552" y="575.487"/>
      <point x="160" y="466" type="curve" smooth="yes"/>
      <point x="156" y="410"/>
      <point x="154" y="362.667"/>
    </contour>
  </outline>
</glyph>
<glyph name="parenright" format="2">
  <advance width="250"/>
  <unicode hex="0029"/>
  <outline>
    <contour>
      <point x="9" y="-96" type="line"/>
      <point x="78.1741" y="6.64492"/>
      <point x="96" y="141.466"/>
      <point x="96" y="324" type="curve" smooth="yes"/>
      <point x="96" y="436.967"/>
      <point x="81.788" y="586.948"/>
      <point x="48" y="669" type="curve" smooth="yes"/>
      <point x="36" y="697"/>
      <point x="23" y="721.333"/>
      <point x="9" y="742" type="curve"/>
      <point x="24" y="771" type="line"/>
      <point x="93.2394" y="707.532"/>
      <point x="152.158" y="614.808"/>
      <point x="182" y="519" type="curve" smooth="yes"/>
      <point x="200.981" y="455.729"/>
      <point x="210" y="405.032"/>
      <point x="210" y="339" type="curve" smooth="yes"/>
      <point x="210" y="328.667"/>
      <point x="210" y="318.333"/>
      <point x="210" y="308" type="curve" smooth="yes"/>
      <point x="210.095" y="306.476"/>
      <point x="210.143" y="304.652"/>
      <point x="210.143" y="302.529" type="curve" smooth="yes"/>
      <point x="210.143" y="289.794"/>
      <point x="208.428" y="266.284"/>
      <point x="205" y="232" type="curve" smooth="yes"/>
      <point x="197.626" y="154.579"/>
      <point x="159.565" y="57.9247"/>
      <point x="123" y="-2" type="curve" smooth="yes"/>
      <point x="96.333" y="-46"/>
      <point x="63.333" y="-86.667"/>
      <point x="24" y="-124" type="curve"/>
    </contour>
  </outline>
</glyph>
<glyph name="comma" format="2">
  <advance width="243"/>
  <unicode hex="002C"/>
  <outline>
    <contour>
      <point x="57" y="-129" type="line"/>
      <point x="79" y="-114"/>
      <point x="97" y="-97"/>
      <point x="114" y="-77" type="curve" smooth="yes"/>
      <point x="131" y="-57"/>
      <point x="140" y="-42"/>
      <point x="140" y="-31" type="curve" smooth="yes"/>
      <point x="140" y="-19"/>
      <point x="133" y="-12"/>
      <point x="120" y="-12" type="curve" smooth="yes"/>
      <point x="82" y="-12"/>
      <point x="64" y="9"/>
      <point x="64" y="51" type="curve" smooth="yes"/>
      <point x="64" y="67"/>
      <point x="70" y="80"/>
      <point x="83" y="90" type="curve" smooth="yes"/>
      <point x="96" y="100"/>
      <point x="111" y="105"/>
      <point x="128" y="105" type="curve" smooth="yes"/>
      <point x="148" y="105"/>
      <point x="165" y="97"/>
      <point x="177" y="83" type="curve" smooth="yes"/>
      <point x="189" y="69"/>
      <point x="195" y="47"/>
      <point x="195" y="18" type="curve" smooth="yes"/>
      <point x="195" y="-12"/>
      <point x="185" y="-44"/>
      <point x="164" y="-77" type="curve" smooth="yes"/>
      <point x="143" y="-110"/>
      <point x="113" y="-139"/>
      <point x="71" y="-163" type="curve"/>
    </contour>
  </outline>
</glyph>
<glyph name="hyphen" format="2">
  <advance width="353"/>
  <unicode hex="002D"/>
  <outline>
    <contour>
      <point x="300" y="243" type="line"/>
      <point x="286" y="185" type="line"/>
      <point x="54" y="185" type="line"/>
      <point x="68" y="243" type="line"/>
    </contour>
  </outline>
</glyph>
<glyph name="three" format="2">
  <advance width="412"/>
  <unicode hex="0033"/>
  <outline>
    <contour>
      <point x="234" y="214" type="curve"/>
      <point x="234" y="211" type="line"/>
      <point x="275.333" y="203.667"/>
      <point x="307.833" y="186.667"/>
      <point x="331.5" y="160" type="curve" smooth="yes"/>
      <point x="355.167" y="133.333"/>
      <point x="367" y="102.333"/>
      <point x="367" y="67" type="curve" smooth="yes"/>
      <point x="367" y="37"/>
      <point x="360.167" y="8.6667"/>
      <point x="346.5" y="-18" type="curve" smooth="yes"/>
      <point x="332.833" y="-44.6667"/>
      <point x="316" y="-66.5"/>
      <point x="296" y="-83.5" type="curve" smooth="yes"/>
      <point x="276" y="-100.5"/>
      <point x="254.333" y="-115.333"/>
      <point x="231" y="-128" type="curve" smooth="yes"/>
      <point x="207.666" y="-140.667"/>
      <point x="186.333" y="-149.667"/>
      <point x="167" y="-155" type="curve" smooth="yes"/>
      <point x="147.667" y="-160.333"/>
      <point x="132" y="-163"/>
      <point x="120" y="-163" type="curve" smooth="yes"/>
      <point x="87.3333" y="-163"/>
      <point x="58.3333" y="-152.667"/>
      <point x="33" y="-132" type="curve"/>
      <point x="23.7436" y="-122.743"/>
      <point x="19.1154" y="-113.309"/>
      <point x="19.1154" y="-103.697" type="curve" smooth="yes"/>
      <point x="19.1154" y="-100.155"/>
      <point x="19.7436" y="-96.5897"/>
      <point x="21" y="-93" type="curve" smooth="yes"/>
      <point x="24.3333" y="-82.3333"/>
      <point x="31.6667" y="-73"/>
      <point x="43" y="-65" type="curve" smooth="yes"/>
      <point x="51.6667" y="-58.3331"/>
      <point x="60.6667" y="-58.6664"/>
      <point x="70" y="-66" type="curve" smooth="yes"/>
      <point x="102" y="-94"/>
      <point x="136.333" y="-108"/>
      <point x="173" y="-108" type="curve" smooth="yes"/>
      <point x="202.333" y="-108"/>
      <point x="226.667" y="-95.6667"/>
      <point x="246" y="-71" type="curve" smooth="yes"/>
      <point x="265.333" y="-46.3333"/>
      <point x="275" y="-13"/>
      <point x="275" y="29" type="curve" smooth="yes"/>
      <point x="275" y="69"/>
      <point x="264" y="99.3333"/>
      <point x="242" y="120" type="curve" smooth="yes"/>
      <point x="220" y="140.667"/>
      <point x="194" y="151"/>
      <point x="164" y="151" type="curve" smooth="yes"/>
      <point x="142.667" y="151"/>
      <point x="123" y="148"/>
      <point x="105" y="142" type="curve"/>
      <point x="98" y="171" type="line"/>
      <point x="145.333" y="190.333"/>
      <point x="180.667" y="210.667"/>
      <point x="204" y="232" type="curve" smooth="yes"/>
      <point x="227.333" y="253.333"/>
      <point x="239" y="279"/>
      <point x="239" y="309" type="curve" smooth="yes"/>
      <point x="239" y="335"/>
      <point x="231.667" y="355.167"/>
      <point x="217" y="369.5" type="curve" smooth="yes"/>
      <point x="202.333" y="383.833"/>
      <point x="183.333" y="391"/>
      <point x="160" y="391" type="curve" smooth="yes"/>
      <point x="128" y="391"/>
      <point x="95.6667" y="369.667"/>
      <point x="63" y="327" type="curve"/>
      <point x="41" y="347" type="line"/>
      <point x="83" y="404" type="line"/>
      <point x="113" y="437.333"/>
      <point x="149.667" y="454"/>
      <point x="193" y="454" type="curve" smooth="yes"/>
      <point x="194" y="454" type="line" smooth="yes"/>
      <point x="234.667" y="454"/>
      <point x="267" y="442.5"/>
      <point x="291" y="419.5" type="curve" smooth="yes"/>
      <point x="315" y="396.5"/>
      <point x="327" y="366.333"/>
      <point x="327" y="329" type="curve" smooth="yes"/>
      <point x="327" y="305"/>
      <point x="316.667" y="282.667"/>
      <point x="296" y="262" type="curve" smooth="yes"/>
      <point x="280.667" y="247.333"/>
      <point x="260" y="231.333"/>
    </contour>
  </outline>
</glyph>
<glyph name="four" format="2">
  <advance width="488"/>
  <unicode hex="0034"/>
  <outline>
    <contour>
      <point x="472" y="92" type="line"/>
      <point x="462" y="35" type="line"/>
      <point x="378" y="35" type="line"/>
      <point x="378" y="-156" type="line"/>
      <point x="292" y="-156" type="line"/>
      <point x="292" y="35" type="line"/>
      <point x="35" y="35" type="line"/>
      <point x="35" y="71" type="line"/>
      <point x="173" y="254.333"/>
      <point x="271.333" y="382"/>
      <point x="330" y="454" type="curve"/>
      <point x="378" y="454" type="line"/>
      <point x="378" y="92" type="line"/>
    </contour>
    <contour>
      <point x="292" y="92" type="line"/>
      <point x="292" y="346" type="line"/>
      <point x="290" y="346" type="line"/>
      <point x="104" y="92" type="line"/>
    </contour>
  </outline>
</glyph>
<glyph name="nine" format="2">
  <advance width="493"/>
  <unicode hex="0039"/>
  <outline>
    <contour>
      <point x="248" y="454" type="curve" smooth="yes"/>
      <point x="310" y="454"/>
      <point x="357.833" y="431.167"/>
      <point x="391.5" y="385.5" type="curve" smooth="yes"/>
      <point x="425.167" y="339.833"/>
      <point x="442" y="285"/>
      <point x="442" y="221" type="curve" smooth="yes"/>
      <point x="442" y="131"/>
      <point x="418.167" y="57"/>
      <point x="370.5" y="-1" type="curve" smooth="yes"/>
      <point x="322.833" y="-59"/>
      <point x="261.667" y="-102"/>
      <point x="187" y="-130" type="curve" smooth="yes"/>
      <point x="137.667" y="-149.333"/>
      <point x="87" y="-160"/>
      <point x="35" y="-162" type="curve"/>
      <point x="29" y="-130" type="line"/>
      <point x="95.6667" y="-118"/>
      <point x="156.833" y="-92.5"/>
      <point x="212.5" y="-53.5" type="curve" smooth="yes"/>
      <point x="268.167" y="-14.5"/>
      <point x="307.667" y="39"/>
      <point x="331" y="107" type="curve"/>
      <point x="294" y="91" type="line" smooth="yes"/>
      <point x="265.333" y="77.6667"/>
      <point x="240" y="71"/>
      <point x="218" y="71" type="curve" smooth="yes"/>
      <point x="172" y="71"/>
      <point x="132.167" y="87.1667"/>
      <point x="98.5" y="119.5" type="curve" smooth="yes"/>
      <point x="64.8333" y="151.833"/>
      <point x="48" y="193.667"/>
      <point x="48" y="245" type="curve" smooth="yes"/>
      <point x="48" y="305.667"/>
      <point x="68" y="355.667"/>
      <point x="108" y="395" type="curve" smooth="yes"/>
      <point x="148" y="434.333"/>
      <point x="194.667" y="454"/>
    </contour>
    <contour>
      <point x="229" y="418" type="curve" smooth="yes"/>
      <point x="203.667" y="418"/>
      <point x="182.667" y="405"/>
      <point x="166" y="379" type="curve" smooth="yes"/>
      <point x="149.333" y="353"/>
      <point x="141" y="321.333"/>
      <point x="141" y="284" type="curve" smooth="yes"/>
      <point x="141" y="234"/>
      <point x="153.833" y="195.333"/>
      <point x="179.5" y="168" type="curve" smooth="yes"/>
      <point x="205.167" y="140.667"/>
      <point x="236.333" y="127"/>
      <point x="273" y="127" type="curve" smooth="yes"/>
      <point x="295.667" y="127"/>
      <point x="317" y="132.333"/>
      <point x="337" y="143" type="curve"/>
      <point x="342.333" y="161"/>
      <point x="345" y="186"/>
      <point x="345" y="218" type="curve" smooth="yes"/>
      <point x="345" y="238.667"/>
      <point x="343.333" y="259.333"/>
      <point x="340" y="280" type="curve" smooth="yes"/>
      <point x="336.667" y="300.667"/>
      <point x="331.167" y="322"/>
      <point x="323.5" y="344" type="curve" smooth="yes"/>
      <point x="315.833" y="366"/>
      <point x="303.833" y="383.833"/>
      <point x="287.5" y="397.5" type="curve" smooth="yes"/>
      <point x="271.167" y="411.167"/>
      <point x="251.667" y="418"/>
    </contour>
  </outline>
</glyph>
<glyph name="colon" format="2">
  <advance width="277"/>
  <unicode hex="003A"/>
  <outline>
    <contour>
      <point x="93" y="360" type="curve" smooth="yes"/>
      <point x="91" y="364"/>
      <point x="89" y="381"/>
      <point x="88" y="410" type="curve" smooth="yes"/>
      <point x="88" y="425"/>
      <point x="88" y="435"/>
      <point x="90" y="442" type="curve" smooth="yes"/>
      <point x="92" y="449"/>
      <point x="94" y="455"/>
      <point x="97" y="457" type="curve" smooth="yes"/>
      <point x="100" y="459"/>
      <point x="103" y="461"/>
      <point x="108" y="462" type="curve" smooth="yes"/>
      <point x="119" y="464"/>
      <point x="129" y="465"/>
      <point x="137" y="466" type="curve" smooth="yes"/>
      <point x="144" y="466"/>
      <point x="155" y="465"/>
      <point x="173" y="463" type="curve" smooth="yes"/>
      <point x="185" y="461"/>
      <point x="192" y="458"/>
      <point x="193" y="450" type="curve" smooth="yes"/>
      <point x="195" y="436"/>
      <point x="196" y="422"/>
      <point x="196" y="410" type="curve" smooth="yes"/>
      <point x="196" y="402"/>
      <point x="195" y="388"/>
      <point x="193" y="370" type="curve" smooth="yes"/>
      <point x="192" y="362"/>
      <point x="188" y="356"/>
      <point x="180" y="354" type="curve" smooth="yes"/>
      <point x="171" y="352"/>
      <point x="157" y="352"/>
      <point x="139" y="352" type="curve" smooth="yes"/>
      <point x="136" y="352"/>
      <point x="127" y="352"/>
      <point x="115" y="354" type="curve" smooth="yes"/>
      <point x="103" y="356"/>
      <point x="95" y="358"/>
    </contour>
    <contour>
      <point x="93" y="7" type="curve" smooth="yes"/>
      <point x="91" y="11"/>
      <point x="89" y="28"/>
      <point x="88" y="57" type="curve" smooth="yes"/>
      <point x="88" y="72"/>
      <point x="88" y="82"/>
      <point x="90" y="89" type="curve" smooth="yes"/>
      <point x="92" y="96"/>
      <point x="94" y="101"/>
      <point x="97" y="103" type="curve" smooth="yes"/>
      <point x="100" y="105"/>
      <point x="103" y="107"/>
      <point x="108" y="109" type="curve" smooth="yes"/>
      <point x="119" y="111"/>
      <point x="129" y="112"/>
      <point x="137" y="112" type="curve" smooth="yes"/>
      <point x="144" y="112"/>
      <point x="155" y="112"/>
      <point x="173" y="110" type="curve" smooth="yes"/>
      <point x="185" y="108"/>
      <point x="192" y="104"/>
      <point x="193" y="96" type="curve" smooth="yes"/>
      <point x="195" y="82"/>
      <point x="196" y="69"/>
      <point x="196" y="57" type="curve" smooth="yes"/>
      <point x="196" y="49"/>
      <point x="195" y="35"/>
      <point x="193" y="17" type="curve" smooth="yes"/>
      <point x="192" y="9"/>
      <point x="188" y="3"/>
      <point x="180" y="1" type="curve" smooth="yes"/>
      <point x="171" y="-1"/>
      <point x="157" y="-1"/>
      <point x="139" y="-1" type="curve" smooth="yes"/>
      <point x="136" y="-1"/>
      <point x="127" y="0"/>
      <point x="115" y="2" type="curve" smooth="yes"/>
      <point x="103" y="4"/>
      <point x="95" y="5"/>
    </contour>
  </outline>
</glyph>
<glyph name="question" format="2">
  <advance width="382"/>
  <unicode hex="003F"/>
  <outline>
    <contour>
      <point x="221" y="218" type="curve"/>
      <point x="202" y="195" type="line"/>
      <point x="176.667" y="204.333"/>
      <point x="151.333" y="221.5"/>
      <point x="126" y="246.5" type="curve" smooth="yes"/>
      <point x="100.667" y="271.5"/>
      <point x="88" y="297.667"/>
      <point x="88" y="325" type="curve" smooth="yes"/>
      <point x="88" y="359.667"/>
      <point x="117" y="398"/>
      <point x="175" y="440" type="curve" smooth="yes"/>
      <point x="223.078" y="473.655"/>
      <point x="252.959" y="499.256"/>
      <point x="264.644" y="516.804" type="curve" smooth="yes"/>
      <point x="271.548" y="527.173"/>
      <point x="275" y="536.905"/>
      <point x="275" y="546" type="curve" smooth="yes"/>
      <point x="275" y="562.667"/>
      <point x="270" y="575.5"/>
      <point x="260" y="584.5" type="curve" smooth="yes"/>
      <point x="250" y="593.5"/>
      <point x="236" y="598"/>
      <point x="218" y="598" type="curve" smooth="yes"/>
      <point x="199.333" y="598"/>
      <point x="181.167" y="593.333"/>
      <point x="163.5" y="584" type="curve" smooth="yes"/>
      <point x="145.833" y="574.667"/>
      <point x="131.5" y="565.167"/>
      <point x="120.5" y="555.5" type="curve" smooth="yes"/>
      <point x="109.5" y="545.833"/>
      <point x="102.667" y="541"/>
      <point x="100" y="541" type="curve" smooth="yes"/>
      <point x="91.3333" y="541"/>
      <point x="81.8333" y="546"/>
      <point x="71.5" y="556" type="curve" smooth="yes"/>
      <point x="61.1667" y="566"/>
      <point x="56" y="577"/>
      <point x="56" y="589" type="curve" smooth="yes"/>
      <point x="56" y="601.667"/>
      <point x="63" y="614.334"/>
      <point x="77" y="627" type="curve" smooth="yes"/>
      <point x="91" y="639"/>
      <point x="107.667" y="648.333"/>
      <point x="127" y="655" type="curve" smooth="yes"/>
      <point x="146.333" y="661.667"/>
      <point x="161.667" y="665"/>
      <point x="173" y="665" type="curve" smooth="yes"/>
      <point x="174" y="665" type="line" smooth="yes"/>
      <point x="215.333" y="665"/>
      <point x="252.833" y="648.333"/>
      <point x="286.5" y="615" type="curve" smooth="yes"/>
      <point x="320.167" y="581.667"/>
      <point x="337" y="544"/>
      <point x="337" y="502" type="curve" smooth="yes"/>
      <point x="337" y="468.667"/>
      <point x="320.333" y="438.333"/>
      <point x="287" y="411" type="curve" smooth="yes"/>
      <point x="283" y="408.332"/>
      <point x="273.167" y="401.165"/>
      <point x="257.5" y="389.5" type="curve" smooth="yes"/>
      <point x="241.833" y="377.833"/>
      <point x="229.167" y="368"/>
      <point x="219.5" y="360" type="curve" smooth="yes"/>
      <point x="209.833" y="352"/>
      <point x="200.5" y="341.833"/>
      <point x="191.5" y="329.5" type="curve" smooth="yes"/>
      <point x="182.5" y="317.167"/>
      <point x="178" y="305.667"/>
      <point x="178" y="295" type="curve" smooth="yes"/>
      <point x="178" y="270.333"/>
      <point x="192.333" y="244.667"/>
    </contour>
    <contour>
      <point x="184" y="-12" type="curve" smooth="yes"/>
      <point x="167.333" y="-12"/>
      <point x="153.5" y="-6.16667"/>
      <point x="142.5" y="5.5" type="curve" smooth="yes"/>
      <point x="131.5" y="17.1667"/>
      <point x="126" y="32"/>
      <point x="126" y="50" type="curve" smooth="yes"/>
      <point x="126" y="67.3333"/>
      <point x="131.667" y="81.8333"/>
      <point x="143" y="93.5" type="curve" smooth="yes"/>
      <point x="154.333" y="105.167"/>
      <point x="168.333" y="111"/>
      <point x="185" y="111" type="curve" smooth="yes"/>
      <point x="201.667" y="111"/>
      <point x="215.667" y="105.167"/>
      <point x="227" y="93.5" type="curve" smooth="yes"/>
      <point x="238.333" y="81.8333"/>
      <point x="244" y="67.3333"/>
      <point x="244" y="50" type="curve" smooth="yes"/>
      <point x="244" y="31.3333"/>
      <point x="238.333" y="16.3333"/>
      <point x="227" y="5" type="curve" smooth="yes"/>
      <point x="215.667" y="-6.3333"/>
      <point x="201.333" y="-12"/>
    </contour>
  </outline>
</glyph>
<glyph name="at" format="2">
  <advance width="813"/>
  <unicode hex="0040"/>
  <outline>
    <contour>
      <point x="353" y="143" type="curve" smooth="yes"/>
      <point x="299" y="143"/>
      <point x="265" y="200"/>
      <point x="265" y="256" type="curve" smooth="yes"/>
      <point x="265" y="316"/>
      <point x="284" y="373"/>
      <point x="322" y="427" type="curve" smooth="yes"/>
      <point x="359" y="481"/>
      <point x="406" y="508"/>
      <point x="461" y="508" type="curve" smooth="yes"/>
      <point x="478" y="508"/>
      <point x="492" y="504"/>
      <point x="502" y="498" type="curve"/>
      <point x="511" y="490"/>
      <point x="522" y="477"/>
      <point x="533" y="456" type="curve"/>
      <point x="543" y="494" type="line"/>
      <point x="612" y="494" type="line"/>
      <point x="547" y="240" type="line"/>
      <point x="546" y="232"/>
      <point x="545" y="226"/>
      <point x="545" y="222" type="curve" smooth="yes"/>
      <point x="545" y="191"/>
      <point x="558" y="176"/>
      <point x="584" y="176" type="curve" smooth="yes"/>
      <point x="617" y="176"/>
      <point x="646" y="196"/>
      <point x="673" y="237" type="curve" smooth="yes"/>
      <point x="700" y="278"/>
      <point x="713" y="323"/>
      <point x="713" y="373" type="curve" smooth="yes"/>
      <point x="713" y="448"/>
      <point x="685" y="512"/>
      <point x="628" y="565" type="curve" smooth="yes"/>
      <point x="572" y="618"/>
      <point x="505" y="645"/>
      <point x="426" y="645" type="curve" smooth="yes"/>
      <point x="342" y="645"/>
      <point x="274" y="614"/>
      <point x="222" y="552" type="curve" smooth="yes"/>
      <point x="170" y="489"/>
      <point x="144" y="413"/>
      <point x="144" y="323" type="curve" smooth="yes"/>
      <point x="144" y="236"/>
      <point x="171" y="165"/>
      <point x="226" y="109" type="curve" smooth="yes"/>
      <point x="281" y="53"/>
      <point x="351" y="25"/>
      <point x="436" y="25" type="curve" smooth="yes"/>
      <point x="495" y="25"/>
      <point x="561" y="41"/>
      <point x="632" y="73" type="curve"/>
      <point x="644" y="43" type="line"/>
      <point x="595" y="21"/>
      <point x="556" y="8"/>
      <point x="526" y="0" type="curve" smooth="yes"/>
      <point x="495" y="-8"/>
      <point x="462" y="-14"/>
      <point x="427" y="-14" type="curve" smooth="yes"/>
      <point x="324" y="-14"/>
      <point x="237" y="19"/>
      <point x="166" y="84" type="curve" smooth="yes"/>
      <point x="95" y="149"/>
      <point x="60" y="230"/>
      <point x="60" y="326" type="curve" smooth="yes"/>
      <point x="60" y="423"/>
      <point x="96" y="506"/>
      <point x="166" y="574" type="curve"/>
      <point x="238" y="642"/>
      <point x="324" y="676"/>
      <point x="425" y="676" type="curve" smooth="yes"/>
      <point x="518" y="676"/>
      <point x="596" y="648"/>
      <point x="658" y="592" type="curve" smooth="yes"/>
      <point x="722" y="535"/>
      <point x="753" y="466"/>
      <point x="753" y="383" type="curve" smooth="yes"/>
      <point x="753" y="318"/>
      <point x="735" y="262"/>
      <point x="698" y="214" type="curve" smooth="yes"/>
      <point x="661" y="167"/>
      <point x="618" y="144"/>
      <point x="569" y="144" type="curve" smooth="yes"/>
      <point x="521" y="144"/>
      <point x="483" y="173"/>
      <point x="478" y="216" type="curve"/>
      <point x="442" y="168"/>
      <point x="400" y="143"/>
    </contour>
    <contour>
      <point x="336" y="272" type="curve" smooth="yes"/>
      <point x="336" y="227"/>
      <point x="354" y="187"/>
      <point x="396" y="187" type="curve" smooth="yes"/>
      <point x="428" y="187"/>
      <point x="456" y="212"/>
      <point x="480" y="262" type="curve" smooth="yes"/>
      <point x="504" y="312"/>
      <point x="516" y="360"/>
      <point x="516" y="406" type="curve" smooth="yes"/>
      <point x="516" y="440"/>
      <point x="502" y="464"/>
      <point x="472" y="464" type="curve" smooth="yes"/>
      <point x="445" y="464"/>
      <point x="415" y="446"/>
      <point x="384" y="408" type="curve"/>
      <point x="352" y="372"/>
      <point x="336" y="326"/>
    </contour>
  </outline>
</glyph>
<glyph name="H" format="2">
  <advance width="769"/>
  <unicode hex="0048"/>
  <outline>
    <contour>
      <point x="732" y="650" type="line"/>
      <point x="732" y="621" type="line"/>
      <point x="690.667" y="617.667"/>
      <point x="665.5" y="611.167"/>
      <point x="656.5" y="601.5" type="curve" smooth="yes"/>
      <point x="647.5" y="591.833"/>
      <point x="643" y="566.333"/>
      <point x="643" y="525" type="curve" smooth="yes"/>
      <point x="643" y="125" type="line" smooth="yes"/>
      <point x="643" y="83.6667"/>
      <point x="647.5" y="58.1667"/>
      <point x="656.5" y="48.5" type="curve" smooth="yes"/>
      <point x="665.5" y="38.8333"/>
      <point x="690.333" y="32.3333"/>
      <point x="731" y="29" type="curve"/>
      <point x="731" y="0" type="line"/>
      <point x="457" y="0" type="line"/>
      <point x="457" y="29" type="line"/>
      <point x="499.667" y="32.3333"/>
      <point x="525.667" y="38.8333"/>
      <point x="535" y="48.5" type="curve" smooth="yes"/>
      <point x="544.333" y="58.1667"/>
      <point x="549" y="83.6667"/>
      <point x="549" y="125" type="curve" smooth="yes"/>
      <point x="549" y="322" type="line"/>
      <point x="221" y="322" type="line"/>
      <point x="221" y="125" type="line" smooth="yes"/>
      <point x="221" y="83.6667"/>
      <point x="225.5" y="58.1667"/>
      <point x="234.5" y="48.5" type="curve" smooth="yes"/>
      <point x="243.5" y="38.8333"/>
      <point x="268.333" y="32.3333"/>
      <point x="309" y="29" type="curve"/>
      <point x="309" y="0" type="line"/>
      <point x="40" y="0" type="line"/>
      <point x="40" y="29" type="line"/>
      <point x="80" y="32.3333"/>
      <point x="104.5" y="38.8333"/>
      <point x="113.5" y="48.5" type="curve" smooth="yes"/>
      <point x="122.5" y="58.1667"/>
      <point x="127" y="83.6667"/>
      <point x="127" y="125" type="curve" smooth="yes"/>
      <point x="127" y="525" type="line" smooth="yes"/>
      <point x="127" y="566.333"/>
      <point x="122.5" y="591.833"/>
      <point x="113.5" y="601.5" type="curve" smooth="yes"/>
      <point x="104.5" y="611.167"/>
      <point x="79.3333" y="617.667"/>
      <point x="38" y="621" type="curve"/>
      <point x="38" y="650" type="line"/>
      <point x="304" y="650" type="line"/>
      <point x="304" y="621" type="line"/>
      <point x="266" y="617.667"/>
      <point x="242.667" y="611.167"/>
      <point x="234" y="601.5" type="curve" smooth="yes"/>
      <point x="225.333" y="591.833"/>
      <point x="221" y="566.333"/>
      <point x="221" y="525" type="curve" smooth="yes"/>
      <point x="221" y="366" type="line"/>
      <point x="549" y="366" type="line"/>
      <point x="549" y="525" type="line" smooth="yes"/>
      <point x="549" y="566.333"/>
      <point x="544.667" y="591.833"/>
      <point x="536" y="601.5" type="curve" smooth="yes"/>
      <point x="527.333" y="611.167"/>
      <point x="503.333" y="617.667"/>
      <point x="464" y="621" type="curve"/>
      <point x="464" y="650" type="line"/>
    </contour>
  </outline>
</glyph>
<glyph name="J" format="2">
  <advance width="335"/>
  <unicode hex="004A"/>
  <outline>
    <contour>
      <point x="309" y="650" type="line"/>
      <point x="309" y="621" type="line"/>
      <point x="281.667" y="619"/>
      <point x="262.833" y="615.667"/>
      <point x="252.5" y="611" type="curve" smooth="yes"/>
      <point x="242.167" y="606.333"/>
      <point x="235" y="598"/>
      <point x="231" y="586" type="curve" smooth="yes"/>
      <point x="227" y="574"/>
      <point x="225" y="553.333"/>
      <point x="225" y="524" type="curve" smooth="yes"/>
      <point x="225" y="158" type="line" smooth="yes"/>
      <point x="225" y="92.6667"/>
      <point x="218.667" y="40.167"/>
      <point x="206" y="0.5" type="curve" smooth="yes"/>
      <point x="193.333" y="-39.167"/>
      <point x="170" y="-74.3333"/>
      <point x="136" y="-105" type="curve" smooth="yes"/>
      <point x="103.333" y="-135"/>
      <point x="70.6667" y="-154.667"/>
      <point x="38" y="-164" type="curve"/>
      <point x="25" y="-134" type="line"/>
      <point x="77.6667" y="-109.333"/>
      <point x="109.667" y="-66.6667"/>
      <point x="121" y="-6" type="curve"/>
      <point x="127.667" y="36"/>
      <point x="131" y="100"/>
      <point x="131" y="186" type="curve" smooth="yes"/>
      <point x="131" y="524" type="line" smooth="yes"/>
      <point x="131" y="566"/>
      <point x="126.333" y="591.833"/>
      <point x="117" y="601.5" type="curve" smooth="yes"/>
      <point x="107.667" y="611.167"/>
      <point x="82.6667" y="617.667"/>
      <point x="42" y="621" type="curve"/>
      <point x="42" y="650" type="line"/>
    </contour>
  </outline>
</glyph>
<glyph name="K" format="2">
  <advance width="678"/>
  <unicode hex="004B"/>
  <outline>
    <contour>
      <point x="673" y="0" type="line"/>
      <point x="511" y="0" type="line"/>
      <point x="272" y="289" type="line" smooth="yes"/>
      <point x="261.333" y="302.333"/>
      <point x="252.167" y="310.833"/>
      <point x="244.5" y="314.5" type="curve" smooth="yes"/>
      <point x="236.833" y="318.167"/>
      <point x="228.333" y="319.333"/>
      <point x="219" y="318" type="curve"/>
      <point x="219" y="130" type="line" smooth="yes"/>
      <point x="219" y="86.6666"/>
      <point x="223.833" y="59.8333"/>
      <point x="233.5" y="49.5" type="curve" smooth="yes"/>
      <point x="243.167" y="39.1666"/>
      <point x="268.667" y="32.3333"/>
      <point x="310" y="29" type="curve"/>
      <point x="310" y="0" type="line"/>
      <point x="43" y="0" type="line"/>
      <point x="43" y="29" type="line"/>
      <point x="81" y="32.3333"/>
      <point x="104.5" y="39.1667"/>
      <point x="113.5" y="49.5" type="curve" smooth="yes"/>
      <point x="122.5" y="59.8333"/>
      <point x="127" y="86.6667"/>
      <point x="127" y="130" type="curve" smooth="yes"/>
      <point x="127" y="520" type="line" smooth="yes"/>
      <point x="127" y="564"/>
      <point x="122.333" y="591"/>
      <point x="113" y="601" type="curve" smooth="yes"/>
      <point x="103.667" y="611"/>
      <point x="79.3333" y="617.667"/>
      <point x="40" y="621" type="curve"/>
      <point x="40" y="650" type="line"/>
      <point x="304" y="650" type="line"/>
      <point x="304" y="621" type="line"/>
      <point x="265.333" y="617.657"/>
      <point x="241.5" y="610.824"/>
      <point x="232.5" y="600.5" type="curve" smooth="yes"/>
      <point x="223.5" y="590.166"/>
      <point x="219" y="563.333"/>
      <point x="219" y="520" type="curve" smooth="yes"/>
      <point x="219" y="346" type="line"/>
      <point x="236.333" y="350"/>
      <point x="260" y="365.333"/>
      <point x="290" y="392" type="curve"/>
      <point x="359.333" y="460"/>
      <point x="413.667" y="518.334"/>
      <point x="453" y="567" type="curve" smooth="yes"/>
      <point x="465.653" y="581.954"/>
      <point x="471.98" y="593.063"/>
      <point x="471.98" y="600.326" type="curve" smooth="yes"/>
      <point x="471.98" y="601.481"/>
      <point x="471.82" y="602.539"/>
      <point x="471.5" y="603.5" type="curve" smooth="yes"/>
      <point x="469.167" y="610.5"/>
      <point x="457" y="615.333"/>
      <point x="435" y="618" type="curve" smooth="yes"/>
      <point x="413" y="621" type="line"/>
      <point x="413" y="650" type="line"/>
      <point x="656" y="650" type="line"/>
      <point x="656" y="621" type="line"/>
      <point x="618.667" y="617.667"/>
      <point x="590" y="611.5"/>
      <point x="570" y="602.5" type="curve" smooth="yes"/>
      <point x="550" y="593.5"/>
      <point x="524.667" y="575"/>
      <point x="494" y="547" type="curve"/>
      <point x="323" y="377" type="line"/>
      <point x="388.333" y="293.667"/>
      <point x="465.333" y="201.667"/>
      <point x="554" y="101" type="curve"/>
      <point x="579.333" y="74.3333"/>
      <point x="599.5" y="56.5"/>
      <point x="614.5" y="47.5" type="curve" smooth="yes"/>
      <point x="629.5" y="38.5"/>
      <point x="649" y="32.3333"/>
      <point x="673" y="29" type="curve"/>
    </contour>
  </outline>
</glyph>
<glyph name="P" format="2">
  <advance width="569"/>
  <unicode hex="0050"/>
  <outline>
    <contour>
      <point x="46" y="650" type="line"/>
      <point x="298" y="650" type="line" smooth="yes"/>
      <point x="372.667" y="650"/>
      <point x="429" y="636.333"/>
      <point x="467" y="609" type="curve" smooth="yes"/>
      <point x="511" y="576.333"/>
      <point x="533" y="528.667"/>
      <point x="533" y="466" type="curve" smooth="yes"/>
      <point x="533" y="405.333"/>
      <point x="514" y="357.667"/>
      <point x="476" y="323" type="curve" smooth="yes"/>
      <point x="438" y="288.333"/>
      <point x="391.667" y="267.666"/>
      <point x="337" y="261" type="curve" smooth="yes"/>
      <point x="328.2" y="259.8"/>
      <point x="319.4" y="259.2"/>
      <point x="310.6" y="259.2" type="curve" smooth="yes"/>
      <point x="293" y="260" type="line"/>
      <point x="220" y="279" type="line"/>
      <point x="220" y="125" type="line" smooth="yes"/>
      <point x="220" y="83.6667"/>
      <point x="225" y="58.1667"/>
      <point x="235" y="48.5" type="curve" smooth="yes"/>
      <point x="245" y="38.8333"/>
      <point x="272.333" y="32.3333"/>
      <point x="317" y="29" type="curve"/>
      <point x="317" y="0" type="line"/>
      <point x="40" y="0" type="line"/>
      <point x="40" y="29" type="line"/>
      <point x="79.3333" y="32.3333"/>
      <point x="103.667" y="39"/>
      <point x="113" y="49" type="curve" smooth="yes"/>
      <point x="122.333" y="59"/>
      <point x="127" y="84.6667"/>
      <point x="127" y="126" type="curve" smooth="yes"/>
      <point x="127" y="523" type="line" smooth="yes"/>
      <point x="127" y="566.333"/>
      <point x="122.833" y="592.667"/>
      <point x="114.5" y="602" type="curve" smooth="yes"/>
      <point x="106.167" y="611.333"/>
      <point x="83.3333" y="617.667"/>
      <point x="46" y="621" type="curve"/>
    </contour>
    <contour>
      <point x="220" y="561" type="curve" smooth="yes"/>
      <point x="220" y="313" type="line"/>
      <point x="236" y="305"/>
      <point x="259" y="301"/>
      <point x="289" y="301" type="curve" smooth="yes"/>
      <point x="326.333" y="301"/>
      <point x="358.833" y="313.5"/>
      <point x="386.5" y="338.5" type="curve" smooth="yes"/>
      <point x="414.167" y="363.5"/>
      <point x="428" y="405"/>
      <point x="428" y="463" type="curve" smooth="yes"/>
      <point x="428" y="514.333"/>
      <point x="414.333" y="552.833"/>
      <point x="387" y="578.5" type="curve" smooth="yes"/>
      <point x="359.667" y="604.167"/>
      <point x="324.667" y="617"/>
      <point x="282" y="617" type="curve" smooth="yes"/>
      <point x="255.333" y="617"/>
      <point x="238" y="613"/>
      <point x="230" y="605" type="curve" smooth="yes"/>
      <point x="223.333" y="599"/>
      <point x="220" y="584.333"/>
    </contour>
  </outline>
</glyph>
<glyph name="Q" format="2">
  <advance width="748"/>
  <unicode hex="0051"/>
  <outline>
    <contour>
      <point x="722" y="-138" type="curve"/>
      <point x="715" y="-160" type="line"/>
      <point x="707.7" y="-160.3"/>
      <point x="700.512" y="-160.45"/>
      <point x="693.438" y="-160.45" type="curve" smooth="yes"/>
      <point x="653.345" y="-160.45"/>
      <point x="616.865" y="-155.633"/>
      <point x="584" y="-146" type="curve"/>
      <point x="535.333" y="-133.333"/>
      <point x="458.333" y="-89.3334"/>
      <point x="353" y="-14" type="curve"/>
      <point x="319" y="-12"/>
      <point x="283" y="-3.8333"/>
      <point x="245" y="10.5" type="curve" smooth="yes"/>
      <point x="207" y="24.8333"/>
      <point x="173.667" y="46.3333"/>
      <point x="145" y="75" type="curve" smooth="yes"/>
      <point x="77.6667" y="140.333"/>
      <point x="44" y="220.333"/>
      <point x="44" y="315" type="curve" smooth="yes"/>
      <point x="44" y="411.667"/>
      <point x="75" y="494.167"/>
      <point x="137" y="562.5" type="curve" smooth="yes"/>
      <point x="199" y="630.833"/>
      <point x="282" y="665"/>
      <point x="386" y="665" type="curve" smooth="yes"/>
      <point x="474" y="665"/>
      <point x="549.5" y="633.833"/>
      <point x="612.5" y="571.5" type="curve" smooth="yes"/>
      <point x="675.5" y="509.167"/>
      <point x="707" y="429"/>
      <point x="707" y="331" type="curve" smooth="yes"/>
      <point x="707" y="247.667"/>
      <point x="685.333" y="177.167"/>
      <point x="642" y="119.5" type="curve" smooth="yes"/>
      <point x="598.667" y="61.8333"/>
      <point x="545" y="23"/>
      <point x="481" y="3" type="curve"/>
      <point x="571" y="-58.3333"/>
      <point x="651.333" y="-105.333"/>
    </contour>
    <contour>
      <point x="350" y="26" type="curve"/>
      <point x="420" y="48" type="line"/>
      <point x="430.667" y="42"/>
      <point x="440" y="35.6667"/>
      <point x="448" y="29" type="curve"/>
      <point x="488.667" y="41.6667"/>
      <point x="523.5" y="71.6667"/>
      <point x="552.5" y="119" type="curve" smooth="yes"/>
      <point x="581.5" y="166.333"/>
      <point x="596" y="227.333"/>
      <point x="596" y="302" type="curve" smooth="yes"/>
      <point x="596" y="403.333"/>
      <point x="574.167" y="483"/>
      <point x="530.5" y="541" type="curve" smooth="yes"/>
      <point x="486.833" y="599"/>
      <point x="430.666" y="628"/>
      <point x="362" y="628" type="curve" smooth="yes"/>
      <point x="304" y="628"/>
      <point x="255" y="602.5"/>
      <point x="215" y="551.5" type="curve" smooth="yes"/>
      <point x="175" y="500.5"/>
      <point x="155" y="430.667"/>
      <point x="155" y="342" type="curve" smooth="yes"/>
      <point x="155" y="258.667"/>
      <point x="173" y="188.333"/>
      <point x="209" y="131" type="curve" smooth="yes"/>
      <point x="245" y="73.6667"/>
      <point x="292" y="38.6667"/>
    </contour>
  </outline>
</glyph>
<glyph name="S" format="2">
  <advance width="480"/>
  <unicode hex="0053"/>
  <outline>
    <contour>
      <point x="415" y="502" type="curve"/>
      <point x="384" y="497" type="line"/>
      <point x="373.333" y="537"/>
      <point x="358.333" y="569.167"/>
      <point x="339" y="593.5" type="curve" smooth="yes"/>
      <point x="319.667" y="617.833"/>
      <point x="290.667" y="630"/>
      <point x="252" y="630" type="curve" smooth="yes"/>
      <point x="217.333" y="630"/>
      <point x="190.667" y="619.5"/>
      <point x="172" y="598.5" type="curve" smooth="yes"/>
      <point x="153.333" y="577.5"/>
      <point x="144" y="552"/>
      <point x="144" y="522" type="curve" smooth="yes"/>
      <point x="144" y="489.333"/>
      <point x="153.833" y="462.666"/>
      <point x="173.5" y="442" type="curve" smooth="yes"/>
      <point x="193.167" y="421.333"/>
      <point x="225.333" y="399.666"/>
      <point x="270" y="377" type="curve" smooth="yes"/>
      <point x="297.334" y="363"/>
      <point x="318.667" y="351.333"/>
      <point x="334" y="342" type="curve" smooth="yes"/>
      <point x="349.333" y="332.667"/>
      <point x="366.833" y="319.833"/>
      <point x="386.5" y="303.5" type="curve" smooth="yes"/>
      <point x="406.167" y="287.167"/>
      <point x="420.667" y="268.5"/>
      <point x="430" y="247.5" type="curve" smooth="yes"/>
      <point x="439.333" y="226.5"/>
      <point x="444" y="203"/>
      <point x="444" y="177" type="curve" smooth="yes"/>
      <point x="444" y="122.333"/>
      <point x="423" y="76.667"/>
      <point x="381" y="40" type="curve" smooth="yes"/>
      <point x="339" y="3.3333"/>
      <point x="284.667" y="-15"/>
      <point x="218" y="-15" type="curve" smooth="yes"/>
      <point x="184" y="-15"/>
      <point x="151.333" y="-10"/>
      <point x="120" y="0" type="curve" smooth="yes"/>
      <point x="108" y="4"/>
      <point x="90.6667" y="11"/>
      <point x="68" y="21" type="curve"/>
      <point x="60" y="43.6667"/>
      <point x="51" y="96.3333"/>
      <point x="41" y="179" type="curve"/>
      <point x="71" y="187" type="line"/>
      <point x="75.6667" y="169"/>
      <point x="82" y="151.5"/>
      <point x="90" y="134.5" type="curve" smooth="yes"/>
      <point x="98" y="117.5"/>
      <point x="108.5" y="100"/>
      <point x="121.5" y="82" type="curve" smooth="yes"/>
      <point x="134.5" y="64"/>
      <point x="151" y="49.5"/>
      <point x="171" y="38.5" type="curve" smooth="yes"/>
      <point x="191" y="27.5"/>
      <point x="213" y="22"/>
      <point x="237" y="22" type="curve" smooth="yes"/>
      <point x="273" y="22"/>
      <point x="301.333" y="32.5"/>
      <point x="322" y="53.5" type="curve" smooth="yes"/>
      <point x="342.667" y="74.5"/>
      <point x="353" y="103"/>
      <point x="353" y="139" type="curve" smooth="yes"/>
      <point x="353" y="171.667"/>
      <point x="342.667" y="198.5"/>
      <point x="322" y="219.5" type="curve" smooth="yes"/>
      <point x="301.333" y="240.5"/>
      <point x="269.333" y="262.667"/>
      <point x="226" y="286" type="curve" smooth="yes"/>
      <point x="206" y="296.667"/>
      <point x="190.667" y="305"/>
      <point x="180" y="311" type="curve" smooth="yes"/>
      <point x="169.333" y="317"/>
      <point x="155" y="326.667"/>
      <point x="137" y="340" type="curve" smooth="yes"/>
      <point x="119" y="353.333"/>
      <point x="105.333" y="366"/>
      <point x="96" y="378" type="curve" smooth="yes"/>
      <point x="86.6667" y="390"/>
      <point x="78.1667" y="405.333"/>
      <point x="70.5" y="424" type="curve" smooth="yes"/>
      <point x="62.8333" y="442.667"/>
      <point x="59" y="462.667"/>
      <point x="59" y="484" type="curve" smooth="yes"/>
      <point x="59" y="535.333"/>
      <point x="78.1667" y="578.333"/>
      <point x="116.5" y="613" type="curve" smooth="yes"/>
      <point x="154.833" y="647.667"/>
      <point x="205.667" y="665"/>
      <point x="269" y="665" type="curve" smooth="yes"/>
      <point x="302.333" y="665"/>
      <point x="345" y="657.333"/>
      <point x="397" y="642" type="curve"/>
      <point x="398.334" y="628.667"/>
      <point x="401.167" y="606.667"/>
      <point x="405.5" y="576" type="curve" smooth="yes"/>
      <point x="409.833" y="545.333"/>
      <point x="413" y="520.667"/>
    </contour>
  </outline>
</glyph>
<glyph name="V" format="2">
  <advance width="705"/>
  <unicode hex="0056"/>
  <outline>
    <contour>
      <point x="690" y="650" type="line"/>
      <point x="690" y="621" type="line"/>
      <point x="655.333" y="617"/>
      <point x="631.333" y="609.167"/>
      <point x="618" y="597.5" type="curve" smooth="yes"/>
      <point x="604.667" y="585.833"/>
      <point x="588.667" y="557.667"/>
      <point x="570" y="513" type="curve" smooth="yes"/>
      <point x="480" y="294.333"/>
      <point x="411" y="119.667"/>
      <point x="363" y="-11" type="curve"/>
      <point x="328" y="-11" type="line"/>
      <point x="122" y="531" type="line" smooth="yes"/>
      <point x="108" y="567.667"/>
      <point x="94.6667" y="591"/>
      <point x="82" y="601" type="curve" smooth="yes"/>
      <point x="69.3333" y="611"/>
      <point x="47.6667" y="617.667"/>
      <point x="17" y="621" type="curve"/>
      <point x="17" y="650" type="line"/>
      <point x="271" y="650" type="line"/>
      <point x="271" y="621" type="line"/>
      <point x="236.333" y="617"/>
      <point x="215.833" y="611.333"/>
      <point x="209.5" y="604" type="curve" smooth="yes"/>
      <point x="206.826" y="600.904"/>
      <point x="205.489" y="596.56"/>
      <point x="205.489" y="590.967" type="curve" smooth="yes"/>
      <point x="205.489" y="583.315"/>
      <point x="207.993" y="573.326"/>
      <point x="213" y="561" type="curve" smooth="yes"/>
      <point x="247" y="465.667"/>
      <point x="301" y="323.667"/>
      <point x="375" y="135" type="curve"/>
      <point x="377" y="135" type="line"/>
      <point x="447.667" y="310.333"/>
      <point x="498.333" y="446"/>
      <point x="529" y="542" type="curve" smooth="yes"/>
      <point x="535.321" y="559.778"/>
      <point x="538.482" y="573.869"/>
      <point x="538.482" y="584.272" type="curve" smooth="yes"/>
      <point x="538.482" y="591.433"/>
      <point x="536.988" y="596.842"/>
      <point x="534" y="600.5" type="curve" smooth="yes"/>
      <point x="526.666" y="609.5"/>
      <point x="502.999" y="616.333"/>
      <point x="463" y="621" type="curve"/>
      <point x="463" y="650" type="line"/>
    </contour>
  </outline>
</glyph>
<glyph name="X" format="2">
  <advance width="661"/>
  <unicode hex="0058"/>
  <outline>
    <contour>
      <point x="663" y="0" type="line"/>
      <point x="389" y="0" type="line"/>
      <point x="389" y="29" type="line"/>
      <point x="419.667" y="33"/>
      <point x="438" y="38.3333"/>
      <point x="444" y="45" type="curve" smooth="yes"/>
      <point x="446.25" y="47.5"/>
      <point x="447.375" y="50.7031"/>
      <point x="447.375" y="54.6094" type="curve" smooth="yes"/>
      <point x="447.375" y="61.1198"/>
      <point x="444.25" y="69.5833"/>
      <point x="438" y="80" type="curve" smooth="yes"/>
      <point x="310" y="288" type="line"/>
      <point x="263.333" y="217.333"/>
      <point x="223.667" y="151.333"/>
      <point x="191" y="90" type="curve" smooth="yes"/>
      <point x="182.249" y="75.2606"/>
      <point x="177.873" y="63.8627"/>
      <point x="177.873" y="55.8063" type="curve" smooth="yes"/>
      <point x="177.873" y="52.202"/>
      <point x="178.749" y="49.2666"/>
      <point x="180.5" y="47" type="curve" smooth="yes"/>
      <point x="186.167" y="39.6667"/>
      <point x="205.667" y="33.6667"/>
      <point x="239" y="29" type="curve"/>
      <point x="239" y="0" type="line"/>
      <point x="7" y="0" type="line"/>
      <point x="7" y="29" type="line"/>
      <point x="60.3333" y="34.3333"/>
      <point x="99.6667" y="53"/>
      <point x="125" y="85" type="curve" smooth="yes"/>
      <point x="167" y="140.333"/>
      <point x="221.333" y="219"/>
      <point x="288" y="321" type="curve"/>
      <point x="153" y="539" type="line" smooth="yes"/>
      <point x="133" y="570.333"/>
      <point x="115.667" y="590.833"/>
      <point x="101" y="600.5" type="curve" smooth="yes"/>
      <point x="86.3333" y="610.167"/>
      <point x="61.3333" y="617"/>
      <point x="26" y="621" type="curve"/>
      <point x="26" y="650" type="line"/>
      <point x="282" y="650" type="line"/>
      <point x="282" y="621" type="line"/>
      <point x="253.333" y="617"/>
      <point x="236.333" y="612"/>
      <point x="231" y="606" type="curve" smooth="yes"/>
      <point x="225.67" y="600"/>
      <point x="227.337" y="590.667"/>
      <point x="236" y="578" type="curve"/>
      <point x="256" y="542.666"/>
      <point x="292.333" y="483.666"/>
      <point x="345" y="401" type="curve"/>
      <point x="387" y="464.334"/>
      <point x="419.333" y="517.334"/>
      <point x="442" y="560" type="curve"/>
      <point x="450.751" y="574.279"/>
      <point x="455.127" y="585.455"/>
      <point x="455.127" y="593.528" type="curve" smooth="yes"/>
      <point x="455.127" y="597.139"/>
      <point x="454.251" y="600.13"/>
      <point x="452.5" y="602.5" type="curve" smooth="yes"/>
      <point x="446.832" y="610.176"/>
      <point x="427.666" y="616.343"/>
      <point x="395" y="621" type="curve"/>
      <point x="395" y="650" type="line"/>
      <point x="626" y="650" type="line"/>
      <point x="626" y="621" type="line"/>
      <point x="589.333" y="617"/>
      <point x="562.833" y="610.5"/>
      <point x="546.5" y="601.5" type="curve" smooth="yes"/>
      <point x="530.167" y="592.5"/>
      <point x="511" y="573.667"/>
      <point x="489" y="545" type="curve" smooth="yes"/>
      <point x="466.333" y="516.333"/>
      <point x="425.667" y="457.667"/>
      <point x="367" y="369" type="curve"/>
      <point x="526" y="119" type="line" smooth="yes"/>
      <point x="548.667" y="85"/>
      <point x="568.5" y="62.3333"/>
      <point x="585.5" y="51" type="curve" smooth="yes"/>
      <point x="602.5" y="39.6666"/>
      <point x="628.333" y="32.3333"/>
      <point x="663" y="29" type="curve"/>
    </contour>
  </outline>
</glyph>
<glyph name="Y" format="2">
  <advance width="638"/>
  <unicode hex="0059"/>
  <outline>
    <contour>
      <point x="625" y="650" type="line"/>
      <point x="625" y="621" type="line"/>
      <point x="591.664" y="617"/>
      <point x="568.331" y="610.333"/>
      <point x="555" y="601" type="curve" smooth="yes"/>
      <point x="541.665" y="591.667"/>
      <point x="525.331" y="571.667"/>
      <point x="506" y="541" type="curve" smooth="yes"/>
      <point x="462.667" y="471.667"/>
      <point x="421.333" y="400"/>
      <point x="382" y="326" type="curve" smooth="yes"/>
      <point x="370.667" y="304.667"/>
      <point x="365" y="283.333"/>
      <point x="365" y="262" type="curve" smooth="yes"/>
      <point x="365" y="127" type="line" smooth="yes"/>
      <point x="365" y="84.3333"/>
      <point x="370.167" y="58.1667"/>
      <point x="380.5" y="48.5" type="curve" smooth="yes"/>
      <point x="390.834" y="38.8333"/>
      <point x="418.667" y="32.3333"/>
      <point x="464" y="29" type="curve"/>
      <point x="464" y="0" type="line"/>
      <point x="174" y="0" type="line"/>
      <point x="174" y="29" type="line"/>
      <point x="218.667" y="32.3333"/>
      <point x="246" y="39"/>
      <point x="256" y="49" type="curve" smooth="yes"/>
      <point x="266" y="59"/>
      <point x="271" y="85"/>
      <point x="271" y="127" type="curve" smooth="yes"/>
      <point x="271" y="256" type="line" smooth="yes"/>
      <point x="271" y="272"/>
      <point x="264.667" y="291.667"/>
      <point x="252" y="315" type="curve" smooth="yes"/>
      <point x="126" y="536" type="line" smooth="yes"/>
      <point x="106" y="570.669"/>
      <point x="90" y="592.836"/>
      <point x="78" y="602.5" type="curve" smooth="yes"/>
      <point x="66" y="612.169"/>
      <point x="45.3333" y="618.336"/>
      <point x="16" y="621" type="curve"/>
      <point x="16" y="650" type="line"/>
      <point x="263" y="650" type="line"/>
      <point x="263" y="621" type="line"/>
      <point x="229.667" y="617"/>
      <point x="210.167" y="611"/>
      <point x="204.5" y="603" type="curve" smooth="yes"/>
      <point x="202.611" y="600.333"/>
      <point x="201.667" y="597.185"/>
      <point x="201.667" y="593.556" type="curve" smooth="yes"/>
      <point x="201.667" y="586.297"/>
      <point x="205.445" y="577.111"/>
      <point x="213" y="566" type="curve"/>
      <point x="236.333" y="522"/>
      <point x="280" y="444"/>
      <point x="344" y="332" type="curve"/>
      <point x="405.333" y="446"/>
      <point x="444" y="520.667"/>
      <point x="460" y="556" type="curve" smooth="yes"/>
      <point x="467.271" y="571.396"/>
      <point x="470.906" y="583.431"/>
      <point x="470.906" y="592.106" type="curve" smooth="yes"/>
      <point x="470.906" y="596.953"/>
      <point x="469.771" y="600.751"/>
      <point x="467.5" y="603.5" type="curve" smooth="yes"/>
      <point x="461.167" y="611.167"/>
      <point x="439" y="617"/>
      <point x="401" y="621" type="curve"/>
      <point x="401" y="650" type="line"/>
    </contour>
  </outline>
</glyph>
<glyph name="Z" format="2">
  <advance width="606"/>
  <unicode hex="005A"/>
  <outline>
    <contour>
      <point x="563" y="179" type="curve"/>
      <point x="593" y="172" type="line"/>
      <point x="577" y="86.6667"/>
      <point x="565" y="29.333"/>
      <point x="557" y="0" type="curve"/>
      <point x="38" y="0" type="line"/>
      <point x="29" y="15" type="line"/>
      <point x="442" y="613" type="line"/>
      <point x="278" y="613" type="line" smooth="yes"/>
      <point x="227.333" y="613"/>
      <point x="193.5" y="610.5"/>
      <point x="176.5" y="605.5" type="curve" smooth="yes"/>
      <point x="159.5" y="600.5"/>
      <point x="146.333" y="591"/>
      <point x="137" y="577" type="curve" smooth="yes"/>
      <point x="123" y="556.333"/>
      <point x="111.333" y="527"/>
      <point x="102" y="489" type="curve"/>
      <point x="72" y="489" type="line"/>
      <point x="72.6667" y="505"/>
      <point x="74.6667" y="535.667"/>
      <point x="78" y="581" type="curve" smooth="yes"/>
      <point x="81.3333" y="626.333"/>
      <point x="83.3333" y="657.667"/>
      <point x="84" y="675" type="curve"/>
      <point x="108" y="675" type="line"/>
      <point x="114" y="663.667"/>
      <point x="120.333" y="656.667"/>
      <point x="127" y="654" type="curve" smooth="yes"/>
      <point x="133.667" y="651.333"/>
      <point x="145.334" y="650"/>
      <point x="162" y="650" type="curve" smooth="yes"/>
      <point x="562" y="650" type="line"/>
      <point x="569" y="636" type="line"/>
      <point x="164" y="43" type="line"/>
      <point x="196" y="39"/>
      <point x="247.667" y="37"/>
      <point x="319" y="37" type="curve" smooth="yes"/>
      <point x="378.333" y="37"/>
      <point x="421" y="39.5"/>
      <point x="447" y="44.5" type="curve" smooth="yes"/>
      <point x="473" y="49.5"/>
      <point x="493" y="59.3333"/>
      <point x="507" y="74" type="curve" smooth="yes"/>
      <point x="525.669" y="93.3334"/>
      <point x="544.335" y="128.333"/>
    </contour>
  </outline>
</glyph>
<glyph name="backslash" format="2">
  <advance width="405"/>
  <unicode hex="005C"/>
  <outline>
    <contour>
      <point x="341" y="-281" type="line"/>
      <point x="-35" y="768" type="line"/>
      <point x="24" y="768" type="line"/>
      <point x="400" y="-281" type="line"/>
    </contour>
  </outline>
</glyph>
<glyph name="bracketright" format="2">
  <advance width="326"/>
  <unicode hex="005D"/>
  <outline>
    <contour>
      <point x="259" y="-176" type="line"/>
      <point x="23" y="-176" type="line"/>
      <point x="23" y="-148" type="line"/>
      <point x="143" y="-148" type="line"/>
      <point x="143" y="800" type="line"/>
      <point x="23" y="800" type="line"/>
      <point x="23" y="829" type="line"/>
      <point x="259" y="829" type="line"/>
    </contour>
  </outline>
</glyph>
<glyph name="asciicircum" format="2">
  <advance width="565"/>
  <unicode hex="005E"/>
  <outline>
    <contour>
      <point x="498" y="211" type="line"/>
      <point x="436" y="211" type="line"/>
      <point x="281" y="555" type="line"/>
      <point x="125" y="211" type="line"/>
      <point x="67" y="211" type="line"/>
      <point x="259" y="623" type="line"/>
      <point x="306" y="623" type="line"/>
    </contour>
  </outline>
</glyph>
<glyph name="c" format="2">
  <advance width="423"/>
  <unicode hex="0063"/>
  <outline>
    <contour>
      <point x="392" y="113" type="curve"/>
      <point x="410" y="91" type="line"/>
      <point x="386.667" y="60.3333"/>
      <point x="359.667" y="35.5"/>
      <point x="329" y="16.5" type="curve" smooth="yes"/>
      <point x="298.333" y="-2.5"/>
      <point x="268.666" y="-12"/>
      <point x="240" y="-12" type="curve" smooth="yes"/>
      <point x="178.667" y="-12"/>
      <point x="129.333" y="8.6667"/>
      <point x="92" y="50" type="curve" smooth="yes"/>
      <point x="54.6667" y="91.3333"/>
      <point x="36" y="140.333"/>
      <point x="36" y="197" type="curve" smooth="yes"/>
      <point x="36" y="275"/>
      <point x="69.6667" y="340"/>
      <point x="137" y="392" type="curve" smooth="yes"/>
      <point x="187" y="430.667"/>
      <point x="238" y="450"/>
      <point x="290" y="450" type="curve" smooth="yes"/>
      <point x="291" y="450" type="line" smooth="yes"/>
      <point x="329" y="450"/>
      <point x="358.667" y="441.333"/>
      <point x="380" y="424" type="curve" smooth="yes"/>
      <point x="390.667" y="414.667"/>
      <point x="396" y="404"/>
      <point x="396" y="392" type="curve" smooth="yes"/>
      <point x="396" y="381.333"/>
      <point x="391.833" y="371.166"/>
      <point x="383.5" y="361.5" type="curve" smooth="yes"/>
      <point x="375.167" y="351.833"/>
      <point x="367.667" y="347"/>
      <point x="361" y="347" type="curve" smooth="yes"/>
      <point x="355.667" y="347"/>
      <point x="349.333" y="350.667"/>
      <point x="342" y="358" type="curve" smooth="yes"/>
      <point x="311.333" y="386.667"/>
      <point x="277.666" y="401"/>
      <point x="241" y="401" type="curve" smooth="yes"/>
      <point x="208.333" y="401"/>
      <point x="180.833" y="387.333"/>
      <point x="158.5" y="360" type="curve" smooth="yes"/>
      <point x="136.167" y="332.667"/>
      <point x="125" y="293.667"/>
      <point x="125" y="243" type="curve" smooth="yes"/>
      <point x="125" y="211"/>
      <point x="130.167" y="182.5"/>
      <point x="140.5" y="157.5" type="curve" smooth="yes"/>
      <point x="150.833" y="132.5"/>
      <point x="163.833" y="113.333"/>
      <point x="179.5" y="100" type="curve" smooth="yes"/>
      <point x="195.167" y="86.6667"/>
      <point x="211.167" y="76.6667"/>
      <point x="227.5" y="70" type="curve" smooth="yes"/>
      <point x="243.833" y="63.3333"/>
      <point x="259.333" y="60"/>
      <point x="274" y="60" type="curve" smooth="yes"/>
      <point x="314.667" y="60"/>
      <point x="354" y="77.6667"/>
    </contour>
  </outline>
</glyph>
<glyph name="f" format="2">
  <advance width="303"/>
  <unicode hex="0066"/>
  <outline>
    <contour>
      <point x="53" y="438" type="line"/>
      <point x="99" y="438" type="line"/>
      <point x="99" y="459" type="line" smooth="yes"/>
      <point x="99" y="489"/>
      <point x="102.667" y="515.667"/>
      <point x="110" y="539" type="curve" smooth="yes"/>
      <point x="124.667" y="585"/>
      <point x="151" y="624"/>
      <point x="189" y="656" type="curve" smooth="yes"/>
      <point x="225.667" y="687.333"/>
      <point x="263" y="705.333"/>
      <point x="301" y="710" type="curve"/>
      <point x="335" y="709.333"/>
      <point x="361.333" y="698.333"/>
      <point x="380" y="677" type="curve" smooth="yes"/>
      <point x="385.939" y="669.788"/>
      <point x="388.909" y="662.171"/>
      <point x="388.909" y="654.149" type="curve" smooth="yes"/>
      <point x="388.909" y="649.565"/>
      <point x="387.939" y="644.849"/>
      <point x="386" y="640" type="curve" smooth="yes"/>
      <point x="382" y="630"/>
      <point x="375" y="621.333"/>
      <point x="365" y="614" type="curve" smooth="yes"/>
      <point x="355.667" y="606.685"/>
      <point x="346" y="607.352"/>
      <point x="336" y="616" type="curve" smooth="yes"/>
      <point x="310" y="642"/>
      <point x="283" y="655"/>
      <point x="255" y="655" type="curve" smooth="yes"/>
      <point x="233" y="655"/>
      <point x="216.667" y="645.667"/>
      <point x="206" y="627" type="curve" smooth="yes"/>
      <point x="192.637" y="605.363"/>
      <point x="185.955" y="558.822"/>
      <point x="185.955" y="487.376" type="curve" smooth="yes"/>
      <point x="185.955" y="483.974"/>
      <point x="185.97" y="480.515"/>
      <point x="186" y="477" type="curve" smooth="yes"/>
      <point x="187" y="438" type="line"/>
      <point x="304" y="438" type="line"/>
      <point x="307.333" y="433.33"/>
      <point x="307.833" y="426.163"/>
      <point x="305.5" y="416.5" type="curve" smooth="yes"/>
      <point x="303.167" y="406.833"/>
      <point x="299.333" y="400.333"/>
      <point x="294" y="397" type="curve"/>
      <point x="187" y="397" type="line"/>
      <point x="187" y="109" type="line" smooth="yes"/>
      <point x="187" y="73.6667"/>
      <point x="191.333" y="52"/>
      <point x="200" y="44" type="curve" smooth="yes"/>
      <point x="208.667" y="36"/>
      <point x="232.667" y="30"/>
      <point x="272" y="26" type="curve"/>
      <point x="272" y="0" type="line"/>
      <point x="30" y="0" type="line"/>
      <point x="30" y="27" type="line"/>
      <point x="61.3334" y="30.3333"/>
      <point x="80.6667" y="36"/>
      <point x="88" y="44" type="curve" smooth="yes"/>
      <point x="95.3333" y="52"/>
      <point x="99" y="72"/>
      <point x="99" y="104" type="curve" smooth="yes"/>
      <point x="99" y="397" type="line"/>
      <point x="30" y="397" type="line"/>
      <point x="25" y="408" type="line"/>
    </contour>
  </outline>
</glyph>
<glyph name="l" format="2">
  <advance width="258"/>
  <unicode hex="006C"/>
  <outline>
    <contour>
      <point x="244" y="0" type="line"/>
      <point x="15" y="0" type="line"/>
      <point x="15" y="27" type="line"/>
      <point x="46.3333" y="30.3333"/>
      <point x="65.8333" y="36"/>
      <point x="73.5" y="44" type="curve" smooth="yes"/>
      <point x="81.1667" y="52"/>
      <point x="85" y="72.3333"/>
      <point x="85" y="105" type="curve" smooth="yes"/>
      <point x="85" y="576" type="line" smooth="yes"/>
      <point x="85" y="608.667"/>
      <point x="81.6667" y="628.5"/>
      <point x="75" y="635.5" type="curve" smooth="yes"/>
      <point x="68.3333" y="642.5"/>
      <point x="49" y="647.667"/>
      <point x="17" y="651" type="curve"/>
      <point x="17" y="676" type="line"/>
      <point x="73" y="682"/>
      <point x="125" y="693.333"/>
      <point x="173" y="710" type="curve"/>
      <point x="173" y="105" type="line" smooth="yes"/>
      <point x="173" y="72.3333"/>
      <point x="176.833" y="52"/>
      <point x="184.5" y="44" type="curve" smooth="yes"/>
      <point x="192.167" y="36"/>
      <point x="212" y="30.3333"/>
      <point x="244" y="27" type="curve"/>
    </contour>
  </outline>
</glyph>
<glyph name="m" format="2">
  <advance width="823"/>
  <unicode hex="006D"/>
  <outline>
    <contour>
      <point x="801" y="0" type="line"/>
      <point x="584" y="0" type="line"/>
      <point x="584" y="27" type="line"/>
      <point x="613.333" y="30.3333"/>
      <point x="631.667" y="36.1667"/>
      <point x="639" y="44.5" type="curve" smooth="yes"/>
      <point x="646.333" y="52.8333"/>
      <point x="650" y="73.6667"/>
      <point x="650" y="107" type="curve" smooth="yes"/>
      <point x="650" y="274" type="line" smooth="yes"/>
      <point x="650" y="349.333"/>
      <point x="621.667" y="387"/>
      <point x="565" y="387" type="curve" smooth="yes"/>
      <point x="534.333" y="387"/>
      <point x="499.333" y="371"/>
      <point x="460" y="339" type="curve"/>
      <point x="462" y="327"/>
      <point x="463" y="313"/>
      <point x="463" y="297" type="curve" smooth="yes"/>
      <point x="463" y="101" type="line" smooth="yes"/>
      <point x="463" y="71"/>
      <point x="466.5" y="52"/>
      <point x="473.5" y="44" type="curve" smooth="yes"/>
      <point x="480.5" y="36"/>
      <point x="497.667" y="30.3333"/>
      <point x="525" y="27" type="curve"/>
      <point x="525" y="0" type="line"/>
      <point x="308" y="0" type="line"/>
      <point x="308" y="27" type="line"/>
      <point x="338" y="30.3333"/>
      <point x="356.667" y="35.8333"/>
      <point x="364" y="43.5" type="curve" smooth="yes"/>
      <point x="371.333" y="51.1667"/>
      <point x="375" y="70.6667"/>
      <point x="375" y="102" type="curve" smooth="yes"/>
      <point x="375" y="276" type="line" smooth="yes"/>
      <point x="375" y="350"/>
      <point x="347" y="387"/>
      <point x="291" y="387" type="curve" smooth="yes"/>
      <point x="261" y="387"/>
      <point x="226.667" y="371"/>
      <point x="188" y="339" type="curve"/>
      <point x="188" y="102" type="line" smooth="yes"/>
      <point x="188" y="71.3333"/>
      <point x="191.167" y="52"/>
      <point x="197.5" y="44" type="curve" smooth="yes"/>
      <point x="203.833" y="36"/>
      <point x="219" y="30.3333"/>
      <point x="243" y="27" type="curve"/>
      <point x="243" y="0" type="line"/>
      <point x="27" y="0" type="line"/>
      <point x="27" y="27" type="line"/>
      <point x="59.6667" y="30.3333"/>
      <point x="80" y="35.8333"/>
      <point x="88" y="43.5" type="curve" smooth="yes"/>
      <point x="96" y="51.1667"/>
      <point x="100" y="71"/>
      <point x="100" y="103" type="curve" smooth="yes"/>
      <point x="100" y="311" type="line" smooth="yes"/>
      <point x="100" y="342.333"/>
      <point x="97.1667" y="361.833"/>
      <point x="91.5" y="369.5" type="curve" smooth="yes"/>
      <point x="85.8333" y="377.167"/>
      <point x="69" y="383.333"/>
      <point x="41" y="388" type="curve"/>
      <point x="41" y="412" type="line"/>
      <point x="97" y="422"/>
      <point x="145.667" y="435.667"/>
      <point x="187" y="453" type="curve"/>
      <point x="187" y="372" type="line"/>
      <point x="229" y="402"/>
      <point x="252.667" y="418.667"/>
      <point x="258" y="422" type="curve" smooth="yes"/>
      <point x="289.334" y="440.667"/>
      <point x="316.667" y="450"/>
      <point x="340" y="450" type="curve" smooth="yes"/>
      <point x="364.667" y="450"/>
      <point x="387" y="442.667"/>
      <point x="407" y="428" type="curve" smooth="yes"/>
      <point x="427" y="413.333"/>
      <point x="442" y="393.333"/>
      <point x="452" y="368" type="curve"/>
      <point x="533" y="424" type="line"/>
      <point x="560.333" y="441.333"/>
      <point x="585.667" y="450"/>
      <point x="609" y="450" type="curve" smooth="yes"/>
      <point x="649" y="450"/>
      <point x="680.5" y="436.5"/>
      <point x="703.5" y="409.5" type="curve" smooth="yes"/>
      <point x="726.5" y="382.5"/>
      <point x="738" y="344.667"/>
      <point x="738" y="296" type="curve" smooth="yes"/>
      <point x="738" y="102" type="line" smooth="yes"/>
      <point x="738" y="70"/>
      <point x="741.167" y="50.3333"/>
      <point x="747.5" y="43" type="curve" smooth="yes"/>
      <point x="753.833" y="35.6667"/>
      <point x="771.667" y="30.3333"/>
      <point x="801" y="27" type="curve"/>
    </contour>
  </outline>
</glyph>
<glyph name="p" format="2">
  <advance width="528"/>
  <unicode hex="0070"/>
  <outline>
    <contour>
      <point x="177" y="382" type="line"/>
      <point x="265" y="434" type="line" smooth="yes"/>
      <point x="282.333" y="444.667"/>
      <point x="299" y="450"/>
      <point x="315" y="450" type="curve" smooth="yes"/>
      <point x="368.334" y="450"/>
      <point x="411.167" y="431.167"/>
      <point x="443.5" y="393.5" type="curve" smooth="yes"/>
      <point x="475.833" y="355.833"/>
      <point x="492" y="311.333"/>
      <point x="492" y="260" type="curve" smooth="yes"/>
      <point x="492" y="188.667"/>
      <point x="468.167" y="128.833"/>
      <point x="420.5" y="80.5" type="curve" smooth="yes"/>
      <point x="372.833" y="32.1667"/>
      <point x="314.333" y="1.3333"/>
      <point x="245" y="-12" type="curve"/>
      <point x="219" y="-11.3333"/>
      <point x="196.333" y="-5.66667"/>
      <point x="177" y="5" type="curve"/>
      <point x="177" y="-125" type="line" smooth="yes"/>
      <point x="177" y="-161.667"/>
      <point x="181.333" y="-184.167"/>
      <point x="190" y="-192.5" type="curve" smooth="yes"/>
      <point x="198.667" y="-200.833"/>
      <point x="222.333" y="-206.666"/>
      <point x="261" y="-210" type="curve"/>
      <point x="261" y="-238" type="line"/>
      <point x="17" y="-238" type="line"/>
      <point x="17" y="-210" type="line"/>
      <point x="49.6667" y="-206.667"/>
      <point x="69.8333" y="-201"/>
      <point x="77.5" y="-193" type="curve" smooth="yes"/>
      <point x="85.1667" y="-185"/>
      <point x="89" y="-165"/>
      <point x="89" y="-133" type="curve" smooth="yes"/>
      <point x="89" y="318" type="line" smooth="yes"/>
      <point x="89" y="349.333"/>
      <point x="85.8333" y="368.5"/>
      <point x="79.5" y="375.5" type="curve" smooth="yes"/>
      <point x="73.1667" y="382.5"/>
      <point x="54.6667" y="387.667"/>
      <point x="24" y="391" type="curve"/>
      <point x="24" y="416" type="line"/>
      <point x="68.6667" y="424"/>
      <point x="119.667" y="438.667"/>
      <point x="177" y="460" type="curve"/>
    </contour>
    <contour>
      <point x="177" y="348" type="curve"/>
      <point x="177" y="76" type="line"/>
      <point x="187.667" y="64.6667"/>
      <point x="201.5" y="55.3333"/>
      <point x="218.5" y="48" type="curve" smooth="yes"/>
      <point x="235.5" y="40.6667"/>
      <point x="252" y="37"/>
      <point x="268" y="37" type="curve" smooth="yes"/>
      <point x="308" y="37"/>
      <point x="340" y="53.5"/>
      <point x="364" y="86.5" type="curve" smooth="yes"/>
      <point x="388" y="119.5"/>
      <point x="400" y="163.667"/>
      <point x="400" y="219" type="curve" smooth="yes"/>
      <point x="400" y="271.667"/>
      <point x="387.333" y="312.833"/>
      <point x="362" y="342.5" type="curve" smooth="yes"/>
      <point x="336.667" y="372.167"/>
      <point x="306" y="387"/>
      <point x="270" y="387" type="curve" smooth="yes"/>
      <point x="242" y="387"/>
      <point x="211" y="374"/>
    </contour>
  </outline>
</glyph>
<glyph name="q" format="2">
  <advance width="516"/>
  <unicode hex="0071"/>
  <outline>
    <contour>
      <point x="519" y="-238" type="line"/>
      <point x="272" y="-238" type="line"/>
      <point x="272" y="-210" type="line"/>
      <point x="310.667" y="-206.667"/>
      <point x="334.333" y="-200.833"/>
      <point x="343" y="-192.5" type="curve" smooth="yes"/>
      <point x="351.667" y="-184.167"/>
      <point x="356" y="-163"/>
      <point x="356" y="-129" type="curve" smooth="yes"/>
      <point x="356" y="28" type="line"/>
      <point x="255" y="-12" type="line"/>
      <point x="185.667" y="-12"/>
      <point x="132" y="9.3333"/>
      <point x="94" y="52" type="curve" smooth="yes"/>
      <point x="56" y="94.6667"/>
      <point x="37" y="143.333"/>
      <point x="37" y="198" type="curve" smooth="yes"/>
      <point x="37" y="268"/>
      <point x="64.1667" y="327.667"/>
      <point x="118.5" y="377" type="curve" smooth="yes"/>
      <point x="172.109" y="425.675"/>
      <point x="233.992" y="450.013"/>
      <point x="304.151" y="450.013" type="curve" smooth="yes"/>
      <point x="305.099" y="450.013"/>
      <point x="306.049" y="450.009"/>
      <point x="307" y="450" type="curve" smooth="yes"/>
      <point x="339.667" y="446.667"/>
      <point x="363" y="442"/>
      <point x="377" y="436" type="curve"/>
      <point x="388.335" y="432.667"/>
      <point x="397.668" y="431"/>
      <point x="405" y="431" type="curve" smooth="yes"/>
      <point x="416.333" y="432.333"/>
      <point x="429" y="436"/>
      <point x="443" y="442" type="curve"/>
      <point x="447" y="439" type="line"/>
      <point x="445" y="397"/>
      <point x="444" y="361.667"/>
      <point x="444" y="333" type="curve" smooth="yes"/>
      <point x="444" y="-131" type="line" smooth="yes"/>
      <point x="444" y="-164.333"/>
      <point x="447.833" y="-185"/>
      <point x="455.5" y="-193" type="curve" smooth="yes"/>
      <point x="463.167" y="-201"/>
      <point x="484.333" y="-206.667"/>
      <point x="519" y="-210" type="curve"/>
    </contour>
    <contour>
      <point x="356" y="60" type="curve"/>
      <point x="356" y="367" type="line"/>
      <point x="345.333" y="379.667"/>
      <point x="331.166" y="389.833"/>
      <point x="313.5" y="397.5" type="curve" smooth="yes"/>
      <point x="295.833" y="405.167"/>
      <point x="279.333" y="409"/>
      <point x="264" y="409" type="curve" smooth="yes"/>
      <point x="229.333" y="409"/>
      <point x="199.333" y="393.333"/>
      <point x="174" y="362" type="curve" smooth="yes"/>
      <point x="148.667" y="330.667"/>
      <point x="136" y="287"/>
      <point x="136" y="231" type="curve" smooth="yes"/>
      <point x="136" y="174.333"/>
      <point x="151.833" y="129.167"/>
      <point x="183.5" y="95.5" type="curve" smooth="yes"/>
      <point x="215.167" y="61.8333"/>
      <point x="250.333" y="45"/>
      <point x="289" y="45" type="curve" smooth="yes"/>
      <point x="313.667" y="45"/>
      <point x="336" y="50"/>
    </contour>
  </outline>
</glyph>
<glyph name="bar" format="2">
  <advance width="233"/>
  <unicode hex="007C"/>
  <outline>
    <contour>
      <point x="83" y="-119" type="line"/>
      <point x="83" y="651" type="line"/>
      <point x="152" y="651" type="line"/>
      <point x="152" y="-119" type="line"/>
    </contour>
  </outline>
</glyph>
<glyph name="braceright" format="2">
  <advance width="365"/>
  <unicode hex="007D"/>
  <outline>
    <contour>
      <point x="10" y="-142.35" type="line"/>
      <point x="64.7393" y="-136.983"/>
      <point x="71.2334" y="-125.1"/>
      <point x="89.4785" y="-106.7" type="curve" smooth="yes"/>
      <point x="107.726" y="-88.2998"/>
      <point x="116.85" y="-63"/>
      <point x="116.85" y="-30.7998" type="curve" smooth="yes"/>
      <point x="116.85" y="-9.33301"/>
      <point x="113.093" y="26.7002"/>
      <point x="105.579" y="77.2998" type="curve" smooth="yes"/>
      <point x="98.0664" y="127.9"/>
      <point x="94.3096" y="166.233"/>
      <point x="94.3096" y="192.3" type="curve" smooth="yes"/>
      <point x="94.3096" y="226.033"/>
      <point x="105.311" y="254.975"/>
      <point x="127.314" y="279.125" type="curve" smooth="yes"/>
      <point x="149.316" y="303.275"/>
      <point x="173.396" y="318.8"/>
      <point x="219.55" y="325.7" type="curve"/>
      <point x="219.55" y="330.3" type="line"/>
      <point x="129.39" y="344.1"/>
      <point x="94.3096" y="388.567"/>
      <point x="94.3096" y="463.7" type="curve" smooth="yes"/>
      <point x="94.3096" y="486.7"/>
      <point x="98.0664" y="523.883"/>
      <point x="105.579" y="575.25" type="curve" smooth="yes"/>
      <point x="113.093" y="626.617"/>
      <point x="116.85" y="664.95"/>
      <point x="116.85" y="690.25" type="curve" smooth="yes"/>
      <point x="116.85" y="720.917"/>
      <point x="107.726" y="745.45"/>
      <point x="89.4785" y="763.85" type="curve" smooth="yes"/>
      <point x="71.2334" y="782.25"/>
      <point x="64.7393" y="793.75"/>
      <point x="10" y="798.35" type="curve"/>
      <point x="10" y="832.85" type="line"/>
      <point x="171" y="832.85"/>
      <point x="221.5" y="781.483"/>
      <point x="221.5" y="678.75" type="curve" smooth="yes"/>
      <point x="221.5" y="657.283"/>
      <point x="219.354" y="619.908"/>
      <point x="215.06" y="566.625" type="curve" smooth="yes"/>
      <point x="210.767" y="513.342"/>
      <point x="208.62" y="472.9"/>
      <point x="208.62" y="445.3" type="curve" smooth="yes"/>
      <point x="208.62" y="432.269"/>
      <point x="209.693" y="421.535"/>
      <point x="211.84" y="413.1" type="curve" smooth="yes"/>
      <point x="213.986" y="404.667"/>
      <point x="219.354" y="394.892"/>
      <point x="227.939" y="383.775" type="curve" smooth="yes"/>
      <point x="236.525" y="372.658"/>
      <point x="251.284" y="363.842"/>
      <point x="272.215" y="357.325" type="curve" smooth="yes"/>
      <point x="293.145" y="350.808"/>
      <point x="312.246" y="346.783"/>
      <point x="345.52" y="345.25" type="curve"/>
      <point x="345.129" y="310.75" type="line"/>
      <point x="311.855" y="309.217"/>
      <point x="294.486" y="305.192"/>
      <point x="273.02" y="298.675" type="curve" smooth="yes"/>
      <point x="251.554" y="292.159"/>
      <point x="236.525" y="283.342"/>
      <point x="227.939" y="272.225" type="curve" smooth="yes"/>
      <point x="219.354" y="261.108"/>
      <point x="213.987" y="251.333"/>
      <point x="211.84" y="242.9" type="curve" smooth="yes"/>
      <point x="209.693" y="234.467"/>
      <point x="208.62" y="223.733"/>
      <point x="208.62" y="210.7" type="curve" smooth="yes"/>
      <point x="208.62" y="189.233"/>
      <point x="210.767" y="151.475"/>
      <point x="215.06" y="97.4248" type="curve" smooth="yes"/>
      <point x="219.354" y="43.375"/>
      <point x="221.5" y="1.7832"/>
      <point x="221.5" y="-27.3496" type="curve" smooth="yes"/>
      <point x="221.5" y="-127.017"/>
      <point x="171" y="-176.85"/>
      <point x="10" y="-176.85" type="curve"/>
    </contour>
  </outline>
</glyph>
<glyph name="currency" format="2">
  <advance width="483"/>
  <unicode hex="00A4"/>
  <outline>
    <contour>
      <point x="452" y="135" type="line"/>
      <point x="409" y="93" type="line"/>
      <point x="345" y="168" type="line"/>
      <point x="315" y="142.667"/>
      <point x="279.667" y="130"/>
      <point x="239" y="130" type="curve" smooth="yes"/>
      <point x="197.667" y="130"/>
      <point x="162" y="142.667"/>
      <point x="132" y="168" type="curve"/>
      <point x="68" y="93" type="line"/>
      <point x="27" y="135" type="line"/>
      <point x="95" y="202" type="line"/>
      <point x="67" y="236"/>
      <point x="53" y="277"/>
      <point x="53" y="325" type="curve" smooth="yes"/>
      <point x="53" y="372.333"/>
      <point x="67.3333" y="413"/>
      <point x="96" y="447" type="curve"/>
      <point x="27" y="515" type="line"/>
      <point x="68" y="556" type="line"/>
      <point x="133" y="481" type="line"/>
      <point x="163" y="506.333"/>
      <point x="198.333" y="519"/>
      <point x="239" y="519" type="curve" smooth="yes"/>
      <point x="240" y="519" type="line" smooth="yes"/>
      <point x="279.333" y="519"/>
      <point x="314.333" y="506.667"/>
      <point x="345" y="482" type="curve"/>
      <point x="409" y="556" type="line"/>
      <point x="452" y="515" type="line"/>
      <point x="383" y="447" type="line"/>
      <point x="411" y="413.667"/>
      <point x="425" y="373"/>
      <point x="425" y="325" type="curve" smooth="yes"/>
      <point x="425" y="277"/>
      <point x="410.667" y="236"/>
      <point x="382" y="202" type="curve"/>
    </contour>
    <contour>
      <point x="239" y="467" type="curve" smooth="yes"/>
      <point x="204.333" y="467"/>
      <point x="175.5" y="453.667"/>
      <point x="152.5" y="427" type="curve" smooth="yes"/>
      <point x="129.5" y="400.333"/>
      <point x="118" y="366.333"/>
      <point x="118" y="325" type="curve" smooth="yes"/>
      <point x="118" y="282.333"/>
      <point x="129.5" y="247.833"/>
      <point x="152.5" y="221.5" type="curve" smooth="yes"/>
      <point x="175.5" y="195.167"/>
      <point x="204.667" y="182"/>
      <point x="240" y="182" type="curve" smooth="yes"/>
      <point x="274.667" y="182"/>
      <point x="303.5" y="195.167"/>
      <point x="326.5" y="221.5" type="curve" smooth="yes"/>
      <point x="349.5" y="247.833"/>
      <point x="361" y="282.333"/>
      <point x="361" y="325" type="curve" smooth="yes"/>
      <point x="361" y="367"/>
      <point x="349.5" y="401.167"/>
      <point x="326.5" y="427.5" type="curve" smooth="yes"/>
      <point x="303.5" y="453.833"/>
      <point x="274.333" y="467"/>
    </contour>
  </outline>
</glyph>
<glyph name="logicalnot" format="2">
  <advance width="579"/>
  <unicode hex="00AC"/>
  <outline>
    <contour>
      <point x="529" y="98" type="line"/>
      <point x="468" y="98" type="line"/>
      <point x="468" y="317" type="line"/>
      <point x="50" y="317" type="line"/>
      <point x="50" y="369" type="line"/>
      <point x="529" y="369" type="line"/>
    </contour>
  </outline>
</glyph>
<glyph name="degree" format="2">
  <advance width="340"/>
  <unicode hex="00B0"/>
  <outline>
    <contour>
      <point x="172" y="664" type="curve" smooth="yes"/>
      <point x="209.333" y="664"/>
      <point x="241.667" y="651.333"/>
      <point x="269" y="626" type="curve" smooth="yes"/>
      <point x="296.333" y="600.667"/>
      <point x="310" y="568"/>
      <point x="310" y="528" type="curve" smooth="yes"/>
      <point x="310" y="486.667"/>
      <point x="296.333" y="453.667"/>
      <point x="269" y="429" type="curve" smooth="yes"/>
      <point x="241.667" y="404.333"/>
      <point x="209" y="392"/>
      <point x="171" y="392" type="curve" smooth="yes"/>
      <point x="132.333" y="392"/>
      <point x="99.3333" y="404.333"/>
      <point x="72" y="429" type="curve" smooth="yes"/>
      <point x="44.6667" y="453.667"/>
      <point x="31" y="486.667"/>
      <point x="31" y="528" type="curve" smooth="yes"/>
      <point x="31" y="568"/>
      <point x="44.8333" y="600.667"/>
      <point x="72.5" y="626" type="curve" smooth="yes"/>
      <point x="100.167" y="651.333"/>
      <point x="133.333" y="664"/>
    </contour>
    <contour>
      <point x="171" y="621" type="curve" smooth="yes"/>
      <point x="147.667" y="621"/>
      <point x="128.667" y="612.333"/>
      <point x="114" y="595" type="curve" smooth="yes"/>
      <point x="99.3333" y="577.664"/>
      <point x="92" y="555.331"/>
      <point x="92" y="528" type="curve" smooth="yes"/>
      <point x="92" y="500.667"/>
      <point x="99.5" y="478.333"/>
      <point x="114.5" y="461" type="curve" smooth="yes"/>
      <point x="129.5" y="443.667"/>
      <point x="148.667" y="435"/>
      <point x="172" y="435" type="curve" smooth="yes"/>
      <point x="195.333" y="435"/>
      <point x="214.167" y="443.5"/>
      <point x="228.5" y="460.5" type="curve" smooth="yes"/>
      <point x="242.833" y="477.5"/>
      <point x="250" y="499.667"/>
      <point x="250" y="527" type="curve" smooth="yes"/>
      <point x="250" y="555"/>
      <point x="242.833" y="577.667"/>
      <point x="228.5" y="595" type="curve" smooth="yes"/>
      <point x="214.167" y="612.333"/>
      <point x="195" y="621"/>
    </contour>
  </outline>
</glyph>
<glyph name="guillemotright" format="2">
  <advance width="447"/>
  <unicode hex="00BB"/>
  <outline>
    <contour>
      <point x="49" y="391" type="line"/>
      <point x="73" y="407" type="line"/>
      <point x="134.333" y="329.667"/>
      <point x="187.333" y="268"/>
      <point x="232" y="222" type="curve"/>
      <point x="183.333" y="172"/>
      <point x="130.333" y="110.333"/>
      <point x="73" y="37" type="curve"/>
      <point x="49" y="53" type="line"/>
      <point x="141" y="222" type="line"/>
    </contour>
    <contour>
      <point x="215" y="391" type="line"/>
      <point x="240" y="407" type="line"/>
      <point x="303.333" y="325.667"/>
      <point x="356" y="264"/>
      <point x="398" y="222" type="curve"/>
      <point x="352.667" y="176.667"/>
      <point x="300" y="115"/>
      <point x="240" y="37" type="curve"/>
      <point x="215" y="53" type="line"/>
      <point x="307" y="222" type="line"/>
    </contour>
  </outline>
</glyph>
<glyph name="Edieresis" format="2">
  <advance width="570"/>
  <unicode hex="00CB"/>
  <outline>
    <contour>
      <point x="520" y="164" type="curve"/>
      <point x="550" y="159" type="line"/>
      <point x="539.333" y="96.3333"/>
      <point x="527.667" y="43.333"/>
      <point x="515" y="0" type="curve"/>
      <point x="29" y="0" type="line"/>
      <point x="28" y="29" type="line"/>
      <point x="72.6667" y="32.3333"/>
      <point x="100.167" y="39"/>
      <point x="110.5" y="49" type="curve" smooth="yes"/>
      <point x="120.833" y="59"/>
      <point x="126" y="84.6667"/>
      <point x="126" y="126" type="curve" smooth="yes"/>
      <point x="126" y="521" type="line" smooth="yes"/>
      <point x="126" y="565"/>
      <point x="121.667" y="591.833"/>
      <point x="113" y="601.5" type="curve" smooth="yes"/>
      <point x="104.333" y="611.167"/>
      <point x="80.3333" y="617.667"/>
      <point x="41" y="621" type="curve"/>
      <point x="41" y="650" type="line"/>
      <point x="491" y="650" type="line"/>
      <point x="491.667" y="642"/>
      <point x="493.167" y="620.167"/>
      <point x="495.5" y="584.5" type="curve" smooth="yes"/>
      <point x="497.833" y="548.833"/>
      <point x="499.333" y="522.333"/>
      <point x="500" y="505" type="curve"/>
      <point x="470" y="500" type="line"/>
      <point x="462.667" y="534.668"/>
      <point x="451.333" y="563.334"/>
      <point x="436" y="586" type="curve" smooth="yes"/>
      <point x="428.667" y="596.667"/>
      <point x="417.167" y="604"/>
      <point x="401.5" y="608" type="curve" smooth="yes"/>
      <point x="385.833" y="612"/>
      <point x="360.666" y="614"/>
      <point x="326" y="614" type="curve" smooth="yes"/>
      <point x="254" y="614" type="line" smooth="yes"/>
      <point x="238" y="614"/>
      <point x="228.333" y="612.333"/>
      <point x="225" y="609" type="curve" smooth="yes"/>
      <point x="221.667" y="605.662"/>
      <point x="220" y="596.329"/>
      <point x="220" y="581" type="curve" smooth="yes"/>
      <point x="220" y="356" type="line"/>
      <point x="310" y="356" type="line" smooth="yes"/>
      <point x="354" y="356"/>
      <point x="381.333" y="360"/>
      <point x="392" y="368" type="curve" smooth="yes"/>
      <point x="402.667" y="376"/>
      <point x="411.333" y="397"/>
      <point x="418" y="431" type="curve"/>
      <point x="448" y="431" type="line"/>
      <point x="448" y="238" type="line"/>
      <point x="418" y="238" type="line"/>
      <point x="411.333" y="273.333"/>
      <point x="402.5" y="295"/>
      <point x="391.5" y="303" type="curve" smooth="yes"/>
      <point x="380.5" y="311"/>
      <point x="353.333" y="315"/>
      <point x="310" y="315" type="curve" smooth="yes"/>
      <point x="220" y="315" type="line"/>
      <point x="220" y="130" type="line" smooth="yes"/>
      <point x="220" y="86"/>
      <point x="228" y="58.6667"/>
      <point x="244" y="48" type="curve" smooth="yes"/>
      <point x="256.667" y="40"/>
      <point x="290.333" y="36"/>
      <point x="345" y="36" type="curve" smooth="yes"/>
      <point x="381" y="36"/>
      <point x="407.833" y="38.3333"/>
      <point x="425.5" y="43" type="curve" smooth="yes"/>
      <point x="443.167" y="47.6667"/>
      <point x="457.667" y="56.3334"/>
      <point x="469" y="69" type="curve" smooth="yes"/>
      <point x="488.333" y="92.3333"/>
      <point x="505.333" y="124"/>
    </contour>
    <contour>
      <point x="388" y="803" type="curve" smooth="yes"/>
      <point x="402.667" y="803"/>
      <point x="414.833" y="798"/>
      <point x="424.5" y="788" type="curve" smooth="yes"/>
      <point x="434.167" y="778"/>
      <point x="439" y="765.333"/>
      <point x="439" y="750" type="curve" smooth="yes"/>
      <point x="439" y="736"/>
      <point x="434" y="724"/>
      <point x="424" y="714" type="curve" smooth="yes"/>
      <point x="414" y="704"/>
      <point x="401.667" y="699"/>
      <point x="387" y="699" type="curve" smooth="yes"/>
      <point x="373.667" y="699"/>
      <point x="361.833" y="704"/>
      <point x="351.5" y="714" type="curve" smooth="yes"/>
      <point x="341.167" y="724"/>
      <point x="336" y="736"/>
      <point x="336" y="750" type="curve" smooth="yes"/>
      <point x="336" y="764.667"/>
      <point x="341.167" y="777.167"/>
      <point x="351.5" y="787.5" type="curve" smooth="yes"/>
      <point x="361.833" y="797.833"/>
      <point x="374" y="803"/>
    </contour>
    <contour>
      <point x="194" y="803" type="curve" smooth="yes"/>
      <point x="208" y="803"/>
      <point x="219.833" y="797.833"/>
      <point x="229.5" y="787.5" type="curve" smooth="yes"/>
      <point x="239.167" y="777.167"/>
      <point x="244" y="764.667"/>
      <point x="244" y="750" type="curve" smooth="yes"/>
      <point x="244" y="736"/>
      <point x="239" y="723.833"/>
      <point x="229" y="713.5" type="curve" smooth="yes"/>
      <point x="219" y="703.167"/>
      <point x="207" y="698"/>
      <point x="193" y="698" type="curve" smooth="yes"/>
      <point x="179.666" y="698"/>
      <point x="167.833" y="703.167"/>
      <point x="157.5" y="713.5" type="curve" smooth="yes"/>
      <point x="147.167" y="723.833"/>
      <point x="142" y="736"/>
      <point x="142" y="750" type="curve" smooth="yes"/>
      <point x="142" y="764.667"/>
      <point x="147.167" y="777.167"/>
      <point x="157.5" y="787.5" type="curve" smooth="yes"/>
      <point x="167.833" y="797.833"/>
      <point x="180" y="803"/>
    </contour>
  </outline>
</glyph>
<glyph name="Ntilde" format="2">
  <advance width="743"/>
  <unicode hex="00D1"/>
  <outline>
    <contour>
      <point x="720" y="650" type="line"/>
      <point x="720" y="621" type="line"/>
      <point x="691.333" y="619.667"/>
      <point x="670.833" y="614.667"/>
      <point x="658.5" y="606" type="curve" smooth="yes"/>
      <point x="646.167" y="597.333"/>
      <point x="638.667" y="582.333"/>
      <point x="636" y="561" type="curve" smooth="yes"/>
      <point x="632" y="519.666"/>
      <point x="630" y="463.666"/>
      <point x="630" y="393" type="curve" smooth="yes"/>
      <point x="630" y="-9" type="line"/>
      <point x="596" y="-9" type="line"/>
      <point x="172" y="510" type="line"/>
      <point x="170" y="510" type="line"/>
      <point x="170" y="263" type="line" smooth="yes"/>
      <point x="170" y="190.333"/>
      <point x="172" y="134.667"/>
      <point x="176" y="96" type="curve" smooth="yes"/>
      <point x="178.667" y="71.3333"/>
      <point x="186.667" y="54.5"/>
      <point x="200" y="45.5" type="curve" smooth="yes"/>
      <point x="213.333" y="36.5"/>
      <point x="237.667" y="31"/>
      <point x="273" y="29" type="curve"/>
      <point x="273" y="0" type="line"/>
      <point x="34" y="0" type="line"/>
      <point x="34" y="29" type="line"/>
      <point x="63.3333" y="30.3333"/>
      <point x="84.5" y="35.6667"/>
      <point x="97.5" y="45" type="curve" smooth="yes"/>
      <point x="110.5" y="54.3333"/>
      <point x="118.333" y="70.6667"/>
      <point x="121" y="94" type="curve" smooth="yes"/>
      <point x="125.667" y="142"/>
      <point x="128" y="198.333"/>
      <point x="128" y="263" type="curve" smooth="yes"/>
      <point x="128" y="482" type="line" smooth="yes"/>
      <point x="128" y="517.333"/>
      <point x="127" y="540.167"/>
      <point x="125" y="550.5" type="curve" smooth="yes"/>
      <point x="123" y="560.833"/>
      <point x="117.333" y="572"/>
      <point x="108" y="584" type="curve" smooth="yes"/>
      <point x="91.3333" y="605.333"/>
      <point x="62" y="617.667"/>
      <point x="20" y="621" type="curve"/>
      <point x="20" y="650" type="line"/>
      <point x="174" y="650" type="line"/>
      <point x="585" y="159" type="line"/>
      <point x="588" y="159" type="line"/>
      <point x="588" y="393" type="line" smooth="yes"/>
      <point x="588" y="458.333"/>
      <point x="585.667" y="513.667"/>
      <point x="581" y="559" type="curve" smooth="yes"/>
      <point x="578.333" y="581"/>
      <point x="570.167" y="596.333"/>
      <point x="556.5" y="605" type="curve" smooth="yes"/>
      <point x="542.833" y="613.667"/>
      <point x="518.333" y="619"/>
      <point x="483" y="621" type="curve"/>
      <point x="483" y="650" type="line"/>
    </contour>
    <contour>
      <point x="325" y="790" type="curve" smooth="yes"/>
      <point x="339" y="790"/>
      <point x="359.667" y="783.667"/>
      <point x="387" y="771" type="curve" smooth="yes"/>
      <point x="409.667" y="760.333"/>
      <point x="428" y="755"/>
      <point x="442" y="755" type="curve" smooth="yes"/>
      <point x="460" y="755"/>
      <point x="475.667" y="769.333"/>
      <point x="489" y="798" type="curve"/>
      <point x="515" y="784" type="line"/>
      <point x="496.333" y="725.333"/>
      <point x="468.333" y="696"/>
      <point x="431" y="696" type="curve" smooth="yes"/>
      <point x="417" y="696"/>
      <point x="393.667" y="703.333"/>
      <point x="361" y="718" type="curve" smooth="yes"/>
      <point x="341" y="727.333"/>
      <point x="325.667" y="732"/>
      <point x="315" y="732" type="curve" smooth="yes"/>
      <point x="299" y="732"/>
      <point x="283" y="717.333"/>
      <point x="267" y="688" type="curve"/>
      <point x="242" y="706" type="line"/>
      <point x="264" y="762"/>
      <point x="291.667" y="790"/>
    </contour>
  </outline>
</glyph>
<glyph name="Thorn" format="2">
  <advance width="557"/>
  <unicode hex="00DE"/>
  <outline>
    <contour>
      <point x="296" y="650" type="line"/>
      <point x="296" y="621" type="line"/>
      <point x="275.332" y="619"/>
      <point x="260.666" y="617.167"/>
      <point x="252" y="615.5" type="curve" smooth="yes"/>
      <point x="243.333" y="613.833"/>
      <point x="235.667" y="608.667"/>
      <point x="229" y="600" type="curve" smooth="yes"/>
      <point x="222.333" y="591.333"/>
      <point x="218.5" y="580.5"/>
      <point x="217.5" y="567.5" type="curve" smooth="yes"/>
      <point x="216.5" y="554.5"/>
      <point x="216" y="534"/>
      <point x="216" y="506" type="curve"/>
      <point x="256" y="507.333"/>
      <point x="285" y="508"/>
      <point x="303" y="508" type="curve" smooth="yes"/>
      <point x="447" y="508"/>
      <point x="519" y="451"/>
      <point x="519" y="337" type="curve" smooth="yes"/>
      <point x="519" y="279"/>
      <point x="497" y="233.833"/>
      <point x="453" y="201.5" type="curve" smooth="yes"/>
      <point x="409" y="169.167"/>
      <point x="354.333" y="152.667"/>
      <point x="289" y="152" type="curve"/>
      <point x="216" y="169" type="line"/>
      <point x="216" y="126" type="line" smooth="yes"/>
      <point x="216" y="84.6666"/>
      <point x="221" y="59"/>
      <point x="231" y="49" type="curve" smooth="yes"/>
      <point x="241" y="39"/>
      <point x="267.333" y="32.3333"/>
      <point x="310" y="29" type="curve"/>
      <point x="310" y="0" type="line"/>
      <point x="38" y="0" type="line"/>
      <point x="38" y="29" type="line"/>
      <point x="77.3333" y="32.3333"/>
      <point x="101.5" y="39.3333"/>
      <point x="110.5" y="50" type="curve" smooth="yes"/>
      <point x="119.5" y="60.6667"/>
      <point x="124" y="88"/>
      <point x="124" y="132" type="curve" smooth="yes"/>
      <point x="124" y="519" type="line" smooth="yes"/>
      <point x="124" y="563.667"/>
      <point x="119.833" y="591"/>
      <point x="111.5" y="601" type="curve" smooth="yes"/>
      <point x="103.167" y="611"/>
      <point x="80.3333" y="617.667"/>
      <point x="43" y="621" type="curve"/>
      <point x="43" y="650" type="line"/>
    </contour>
    <contour>
      <point x="216" y="433" type="curve" smooth="yes"/>
      <point x="216" y="205" type="line"/>
      <point x="235.333" y="197"/>
      <point x="256.667" y="193"/>
      <point x="280" y="193" type="curve" smooth="yes"/>
      <point x="317.334" y="193"/>
      <point x="349.167" y="205"/>
      <point x="375.5" y="229" type="curve" smooth="yes"/>
      <point x="401.833" y="253"/>
      <point x="415" y="288"/>
      <point x="415" y="334" type="curve" smooth="yes"/>
      <point x="415" y="380"/>
      <point x="402.833" y="414.667"/>
      <point x="378.5" y="438" type="curve" smooth="yes"/>
      <point x="354.167" y="461.333"/>
      <point x="320.667" y="473"/>
      <point x="278" y="473" type="curve" smooth="yes"/>
      <point x="252.666" y="473"/>
      <point x="235.333" y="470"/>
      <point x="226" y="464" type="curve" smooth="yes"/>
      <point x="219.333" y="459.333"/>
      <point x="216" y="449"/>
    </contour>
  </outline>
</glyph>
<glyph name="ccedilla" format="2">
  <advance width="421"/>
  <unicode hex="00E7"/>
  <outline>
    <contour>
      <point x="392" y="114" type="curve"/>
      <point x="410" y="91" type="line"/>
      <point x="366" y="36.3333"/>
      <point x="319.667" y="3.6667"/>
      <point x="271" y="-7" type="curve"/>
      <point x="258" y="-26" type="line" smooth="yes"/>
      <point x="252.667" y="-34.6667"/>
      <point x="250.5" y="-41.5"/>
      <point x="251.5" y="-46.5" type="curve" smooth="yes"/>
      <point x="252.5" y="-51.5"/>
      <point x="257.333" y="-58.3333"/>
      <point x="266" y="-67" type="curve" smooth="yes"/>
      <point x="290.667" y="-91.6666"/>
      <point x="303" y="-114.333"/>
      <point x="303" y="-135" type="curve" smooth="yes"/>
      <point x="303" y="-155"/>
      <point x="292.667" y="-174"/>
      <point x="272" y="-192" type="curve" smooth="yes"/>
      <point x="251.333" y="-210"/>
      <point x="223.333" y="-224.667"/>
      <point x="188" y="-236" type="curve"/>
      <point x="177" y="-210" type="line"/>
      <point x="216.333" y="-192"/>
      <point x="236" y="-171.667"/>
      <point x="236" y="-149" type="curve" smooth="yes"/>
      <point x="236" y="-137.667"/>
      <point x="228.667" y="-125.333"/>
      <point x="214" y="-112" type="curve" smooth="yes"/>
      <point x="201.333" y="-99.3333"/>
      <point x="194.167" y="-89"/>
      <point x="192.5" y="-81" type="curve" smooth="yes"/>
      <point x="192.231" y="-79.71"/>
      <point x="192.097" y="-78.3589"/>
      <point x="192.097" y="-76.9469" type="curve" smooth="yes"/>
      <point x="192.097" y="-69.606"/>
      <point x="195.731" y="-60.6237"/>
      <point x="203" y="-50" type="curve" smooth="yes"/>
      <point x="233" y="-12" type="line"/>
      <point x="174.333" y="-9.33333"/>
      <point x="126.833" y="11.6667"/>
      <point x="90.5" y="51" type="curve" smooth="yes"/>
      <point x="54.1667" y="90.3333"/>
      <point x="36" y="138.667"/>
      <point x="36" y="196" type="curve" smooth="yes"/>
      <point x="36" y="275.333"/>
      <point x="69.3333" y="340.333"/>
      <point x="136" y="391" type="curve" smooth="yes"/>
      <point x="188" y="430.333"/>
      <point x="240" y="450"/>
      <point x="292" y="450" type="curve" smooth="yes"/>
      <point x="330.667" y="450"/>
      <point x="360.667" y="441"/>
      <point x="382" y="423" type="curve" smooth="yes"/>
      <point x="392" y="414.333"/>
      <point x="397" y="404.333"/>
      <point x="397" y="393" type="curve" smooth="yes"/>
      <point x="396.33" y="382.333"/>
      <point x="391.664" y="372"/>
      <point x="383" y="362" type="curve" smooth="yes"/>
      <point x="374.332" y="352"/>
      <point x="366.665" y="347"/>
      <point x="360" y="347" type="curve" smooth="yes"/>
      <point x="354.667" y="347"/>
      <point x="348.333" y="350.667"/>
      <point x="341" y="358" type="curve" smooth="yes"/>
      <point x="309" y="386"/>
      <point x="274.667" y="400"/>
      <point x="238" y="400" type="curve" smooth="yes"/>
      <point x="208.667" y="400"/>
      <point x="182.5" y="386.833"/>
      <point x="159.5" y="360.5" type="curve" smooth="yes"/>
      <point x="136.5" y="334.167"/>
      <point x="125" y="295.333"/>
      <point x="125" y="244" type="curve" smooth="yes"/>
      <point x="125" y="210.667"/>
      <point x="130.167" y="181.167"/>
      <point x="140.5" y="155.5" type="curve" smooth="yes"/>
      <point x="150.833" y="129.833"/>
      <point x="164" y="110.5"/>
      <point x="180" y="97.5" type="curve" smooth="yes"/>
      <point x="196" y="84.5"/>
      <point x="211.833" y="75"/>
      <point x="227.5" y="69" type="curve" smooth="yes"/>
      <point x="243.167" y="63"/>
      <point x="258.333" y="60"/>
      <point x="273" y="60" type="curve" smooth="yes"/>
      <point x="295" y="60"/>
      <point x="314.833" y="63.8333"/>
      <point x="332.5" y="71.5" type="curve" smooth="yes"/>
      <point x="350.167" y="79.1667"/>
      <point x="370" y="93.3333"/>
    </contour>
  </outline>
</glyph>
<glyph name="eacute" format="2">
  <advance width="427"/>
  <unicode hex="00E9"/>
  <outline>
    <contour>
      <point x="383" y="109" type="curve"/>
      <point x="398" y="87" type="line"/>
      <point x="370.667" y="51.6667"/>
      <point x="341.833" y="26.3333"/>
      <point x="311.5" y="11" type="curve" smooth="yes"/>
      <point x="281.167" y="-4.3333"/>
      <point x="254.667" y="-12"/>
      <point x="232" y="-12" type="curve" smooth="yes"/>
      <point x="172" y="-12"/>
      <point x="124.333" y="8.6667"/>
      <point x="89" y="50" type="curve" smooth="yes"/>
      <point x="53.6667" y="91.3333"/>
      <point x="36" y="141.667"/>
      <point x="36" y="201" type="curve" smooth="yes"/>
      <point x="36" y="270.333"/>
      <point x="58.3333" y="329"/>
      <point x="103" y="377" type="curve" smooth="yes"/>
      <point x="148.333" y="425.667"/>
      <point x="197.333" y="450"/>
      <point x="250" y="450" type="curve" smooth="yes"/>
      <point x="251" y="450" type="line" smooth="yes"/>
      <point x="292.333" y="450"/>
      <point x="328" y="434.5"/>
      <point x="358" y="403.5" type="curve" smooth="yes"/>
      <point x="388" y="372.5"/>
      <point x="403" y="337"/>
      <point x="403" y="297" type="curve" smooth="yes"/>
      <point x="403" y="286.333"/>
      <point x="401.333" y="278.5"/>
      <point x="398" y="273.5" type="curve" smooth="yes"/>
      <point x="394.667" y="268.5"/>
      <point x="388.333" y="265.333"/>
      <point x="379" y="264" type="curve" smooth="yes"/>
      <point x="341" y="257.333"/>
      <point x="255.333" y="251.667"/>
      <point x="122" y="247" type="curve"/>
      <point x="122.667" y="185.667"/>
      <point x="137.667" y="139.167"/>
      <point x="167" y="107.5" type="curve" smooth="yes"/>
      <point x="196.333" y="75.8333"/>
      <point x="230.333" y="60"/>
      <point x="269" y="60" type="curve" smooth="yes"/>
      <point x="309.667" y="60"/>
      <point x="347.667" y="76.3334"/>
    </contour>
    <contour>
      <point x="227" y="412" type="curve" smooth="yes"/>
      <point x="204.333" y="412"/>
      <point x="183.667" y="401.167"/>
      <point x="165" y="379.5" type="curve" smooth="yes"/>
      <point x="146.333" y="357.833"/>
      <point x="133.667" y="327.666"/>
      <point x="127" y="289" type="curve"/>
      <point x="179.667" y="289"/>
      <point x="233.333" y="290"/>
      <point x="288" y="292" type="curve" smooth="yes"/>
      <point x="303.333" y="292"/>
      <point x="311" y="298.667"/>
      <point x="311" y="312" type="curve" smooth="yes"/>
      <point x="311.027" y="313.115"/>
      <point x="311.041" y="314.225"/>
      <point x="311.041" y="315.328" type="curve" smooth="yes"/>
      <point x="311.041" y="341.245"/>
      <point x="303.527" y="363.636"/>
      <point x="288.5" y="382.5" type="curve" smooth="yes"/>
      <point x="272.833" y="402.167"/>
      <point x="252.333" y="412"/>
    </contour>
    <contour>
      <point x="221" y="492" type="line"/>
      <point x="194" y="506" type="line"/>
      <point x="199.333" y="518"/>
      <point x="206.667" y="535.833"/>
      <point x="216" y="559.5" type="curve" smooth="yes"/>
      <point x="225.333" y="583.168"/>
      <point x="234.333" y="605.834"/>
      <point x="243" y="627.5" type="curve" smooth="yes"/>
      <point x="258" y="665" type="line"/>
      <point x="263.333" y="667.687"/>
      <point x="277.5" y="670.354"/>
      <point x="300.5" y="673" type="curve" smooth="yes"/>
      <point x="315.833" y="674.778"/>
      <point x="327.389" y="675.667"/>
      <point x="335.167" y="675.667" type="curve" smooth="yes"/>
      <point x="339.056" y="675.667"/>
      <point x="342" y="675.445"/>
      <point x="344" y="675" type="curve"/>
      <point x="348" y="665" type="line"/>
    </contour>
  </outline>
</glyph>
<glyph name="thorn" format="2">
  <advance width="519"/>
  <unicode hex="00FE"/>
  <outline>
    <contour>
      <point x="164" y="710" type="curve"/>
      <point x="164" y="387" type="line"/>
      <point x="197.333" y="405.667"/>
      <point x="232.667" y="424"/>
      <point x="270" y="442" type="curve" smooth="yes"/>
      <point x="282" y="447.333"/>
      <point x="294.333" y="450"/>
      <point x="307" y="450" type="curve" smooth="yes"/>
      <point x="360.333" y="450"/>
      <point x="402.833" y="430.667"/>
      <point x="434.5" y="392" type="curve" smooth="yes"/>
      <point x="466.167" y="353.333"/>
      <point x="482" y="309.333"/>
      <point x="482" y="260" type="curve" smooth="yes"/>
      <point x="482" y="188.667"/>
      <point x="458.167" y="128.833"/>
      <point x="410.5" y="80.5" type="curve" smooth="yes"/>
      <point x="362.833" y="32.1667"/>
      <point x="303.667" y="1.3333"/>
      <point x="233" y="-12" type="curve"/>
      <point x="206.333" y="-11.3333"/>
      <point x="183.333" y="-5"/>
      <point x="164" y="7" type="curve"/>
      <point x="164" y="-128" type="line" smooth="yes"/>
      <point x="164" y="-162.667"/>
      <point x="168.667" y="-184.333"/>
      <point x="178" y="-193" type="curve" smooth="yes"/>
      <point x="187.333" y="-201.667"/>
      <point x="212" y="-207.667"/>
      <point x="252" y="-211" type="curve"/>
      <point x="252" y="-238" type="line"/>
      <point x="5" y="-238" type="line"/>
      <point x="5" y="-211" type="line"/>
      <point x="36.3333" y="-207.667"/>
      <point x="56" y="-201.833"/>
      <point x="64" y="-193.5" type="curve" smooth="yes"/>
      <point x="72" y="-185.167"/>
      <point x="76" y="-164"/>
      <point x="76" y="-130" type="curve" smooth="yes"/>
      <point x="76" y="575" type="line" smooth="yes"/>
      <point x="76" y="608.333"/>
      <point x="72.6667" y="628.833"/>
      <point x="66" y="636.5" type="curve" smooth="yes"/>
      <point x="59.3333" y="644.177"/>
      <point x="39.6667" y="649.343"/>
      <point x="7" y="652" type="curve"/>
      <point x="7" y="677" type="line"/>
      <point x="60.3333" y="682.333"/>
      <point x="112.667" y="693.333"/>
    </contour>
    <contour>
      <point x="164" y="353" type="curve"/>
      <point x="164" y="79" type="line"/>
      <point x="174.667" y="68.3333"/>
      <point x="188.667" y="59"/>
      <point x="206" y="51" type="curve" smooth="yes"/>
      <point x="223.333" y="43"/>
      <point x="240.333" y="39"/>
      <point x="257" y="39" type="curve" smooth="yes"/>
      <point x="293.667" y="39"/>
      <point x="325" y="53.8333"/>
      <point x="351" y="83.5" type="curve" smooth="yes"/>
      <point x="377" y="113.167"/>
      <point x="390" y="157.667"/>
      <point x="390" y="217" type="curve" smooth="yes"/>
      <point x="390" y="272.334"/>
      <point x="377.333" y="314.667"/>
      <point x="352" y="344" type="curve" smooth="yes"/>
      <point x="326.667" y="373.333"/>
      <point x="294.667" y="388"/>
      <point x="256" y="388" type="curve" smooth="yes"/>
      <point x="230.667" y="388"/>
      <point x="200" y="376.333"/>
    </contour>
  </outline>
</glyph>
<glyph name="abreve" format="2">
  <advance width="444"/>
  <unicode hex="0103"/>
  <outline>
    <contour>
      <point x="438" y="40" type="line"/>
      <point x="349" y="-12" type="line"/>
      <point x="329.667" y="-12"/>
      <point x="313.333" y="-5.33333"/>
      <point x="300" y="8" type="curve" smooth="yes"/>
      <point x="288.667" y="19.3333"/>
      <point x="280.333" y="33.6667"/>
      <point x="275" y="51" type="curve"/>
      <point x="273" y="49.6666"/>
      <point x="267.5" y="45.8333"/>
      <point x="258.5" y="39.5" type="curve" smooth="yes"/>
      <point x="249.5" y="33.1667"/>
      <point x="243.167" y="28.8333"/>
      <point x="239.5" y="26.5" type="curve" smooth="yes"/>
      <point x="235.833" y="24.1667"/>
      <point x="230.167" y="20.3333"/>
      <point x="222.5" y="15" type="curve" smooth="yes"/>
      <point x="214.833" y="9.66667"/>
      <point x="208.833" y="6"/>
      <point x="204.5" y="4" type="curve" smooth="yes"/>
      <point x="200.167" y="2"/>
      <point x="195" y="-0.5"/>
      <point x="189" y="-3.5" type="curve" smooth="yes"/>
      <point x="183" y="-6.5"/>
      <point x="177.667" y="-8.66667"/>
      <point x="173" y="-10" type="curve" smooth="yes"/>
      <point x="168.333" y="-11.3333"/>
      <point x="164" y="-12"/>
      <point x="160" y="-12" type="curve" smooth="yes"/>
      <point x="124.667" y="-12"/>
      <point x="95.3333" y="0.3333"/>
      <point x="72" y="25" type="curve" smooth="yes"/>
      <point x="48.6667" y="49.6667"/>
      <point x="37" y="78.3333"/>
      <point x="37" y="111" type="curve" smooth="yes"/>
      <point x="37" y="157.667"/>
      <point x="63.6667" y="190.333"/>
      <point x="117" y="209" type="curve" smooth="yes"/>
      <point x="206.333" y="241"/>
      <point x="258.333" y="263"/>
      <point x="273" y="275" type="curve"/>
      <point x="273" y="294" type="line" smooth="yes"/>
      <point x="273" y="328.667"/>
      <point x="265.833" y="355.833"/>
      <point x="251.5" y="375.5" type="curve" smooth="yes"/>
      <point x="237.167" y="395.167"/>
      <point x="217.667" y="405"/>
      <point x="193" y="405" type="curve" smooth="yes"/>
      <point x="175" y="405"/>
      <point x="160.667" y="398.667"/>
      <point x="150" y="386" type="curve" smooth="yes"/>
      <point x="138" y="373.333"/>
      <point x="128" y="351"/>
      <point x="120" y="319" type="curve" smooth="yes"/>
      <point x="115.333" y="302.333"/>
      <point x="105" y="294"/>
      <point x="89" y="294" type="curve" smooth="yes"/>
      <point x="78.3333" y="294"/>
      <point x="67.8333" y="298.5"/>
      <point x="57.5" y="307.5" type="curve" smooth="yes"/>
      <point x="47.1667" y="316.5"/>
      <point x="42" y="326.667"/>
      <point x="42" y="338" type="curve" smooth="yes"/>
      <point x="42" y="350"/>
      <point x="53" y="364"/>
      <point x="75" y="380" type="curve" smooth="yes"/>
      <point x="93" y="392.667"/>
      <point x="116.333" y="406.167"/>
      <point x="145" y="420.5" type="curve" smooth="yes"/>
      <point x="173.667" y="434.834"/>
      <point x="201" y="444.668"/>
      <point x="227" y="450" type="curve"/>
      <point x="261" y="450"/>
      <point x="289.333" y="441"/>
      <point x="312" y="423" type="curve" smooth="yes"/>
      <point x="342.667" y="397.667"/>
      <point x="358" y="356"/>
      <point x="358" y="298" type="curve" smooth="yes"/>
      <point x="358" y="116" type="line" smooth="yes"/>
      <point x="358" y="76.6667"/>
      <point x="369.667" y="57"/>
      <point x="393" y="57" type="curve" smooth="yes"/>
      <point x="405" y="57"/>
      <point x="416.667" y="60.3333"/>
      <point x="428" y="67" type="curve"/>
    </contour>
    <contour>
      <point x="273" y="83" type="curve"/>
      <point x="273" y="240" type="line"/>
      <point x="267" y="236.667"/>
      <point x="258.833" y="232.5"/>
      <point x="248.5" y="227.5" type="curve" smooth="yes"/>
      <point x="238.167" y="222.5"/>
      <point x="226.667" y="217.167"/>
      <point x="214" y="211.5" type="curve" smooth="yes"/>
      <point x="201.333" y="205.833"/>
      <point x="193" y="202"/>
      <point x="189" y="200" type="curve" smooth="yes"/>
      <point x="168.333" y="190"/>
      <point x="153.333" y="179.667"/>
      <point x="144" y="169" type="curve" smooth="yes"/>
      <point x="134.667" y="158.333"/>
      <point x="130" y="144.333"/>
      <point x="130" y="127" type="curve" smooth="yes"/>
      <point x="130" y="103"/>
      <point x="137.333" y="84.3333"/>
      <point x="152" y="71" type="curve" smooth="yes"/>
      <point x="166.667" y="57.6667"/>
      <point x="182.667" y="51"/>
      <point x="200" y="51" type="curve" smooth="yes"/>
      <point x="226" y="51"/>
      <point x="250.333" y="61.6667"/>
    </contour>
    <contour>
      <point x="291" y="650" type="curve"/>
      <point x="321" y="650" type="line"/>
      <point x="321" y="556.667"/>
      <point x="283.333" y="510"/>
      <point x="208" y="510" type="curve" smooth="yes"/>
      <point x="133.333" y="510"/>
      <point x="96" y="556.667"/>
      <point x="96" y="650" type="curve"/>
      <point x="126" y="650" type="line"/>
      <point x="134" y="597.333"/>
      <point x="161.333" y="571"/>
      <point x="208" y="571" type="curve" smooth="yes"/>
      <point x="255.333" y="571"/>
      <point x="283" y="597.333"/>
    </contour>
  </outline>
</glyph>
<glyph name="aogonek" format="2">
  <advance width="444"/>
  <unicode hex="0105"/>
  <outline>
    <contour>
      <point x="429" y="67" type="curve"/>
      <point x="439" y="41" type="line"/>
      <point x="425.667" y="33.6667"/>
      <point x="409" y="23.6667"/>
      <point x="389" y="11" type="curve" smooth="yes"/>
      <point x="363" y="-4.3333"/>
      <point x="339.333" y="-25.5"/>
      <point x="318" y="-52.5" type="curve" smooth="yes"/>
      <point x="296.667" y="-79.5"/>
      <point x="286" y="-105"/>
      <point x="286" y="-129" type="curve" smooth="yes"/>
      <point x="286" y="-159.667"/>
      <point x="303.333" y="-175"/>
      <point x="338" y="-175" type="curve" smooth="yes"/>
      <point x="351.334" y="-175"/>
      <point x="365.667" y="-171.667"/>
      <point x="381" y="-165" type="curve"/>
      <point x="389" y="-191" type="line"/>
      <point x="336" y="-222" type="line" smooth="yes"/>
      <point x="323.333" y="-230"/>
      <point x="311" y="-234"/>
      <point x="299" y="-234" type="curve" smooth="yes"/>
      <point x="272.333" y="-234"/>
      <point x="251.667" y="-227.167"/>
      <point x="237" y="-213.5" type="curve" smooth="yes"/>
      <point x="222.333" y="-199.833"/>
      <point x="215" y="-181"/>
      <point x="215" y="-157" type="curve" smooth="yes"/>
      <point x="215" y="-111.667"/>
      <point x="250.333" y="-60.6667"/>
      <point x="321" y="-4" type="curve"/>
      <point x="297" y="8.6667"/>
      <point x="282" y="27"/>
      <point x="276" y="51" type="curve"/>
      <point x="215.333" y="9"/>
      <point x="176.667" y="-12"/>
      <point x="160" y="-12" type="curve" smooth="yes"/>
      <point x="124.667" y="-12"/>
      <point x="95.3333" y="0.3333"/>
      <point x="72" y="25" type="curve" smooth="yes"/>
      <point x="48.6667" y="49.6667"/>
      <point x="37" y="78.3333"/>
      <point x="37" y="111" type="curve" smooth="yes"/>
      <point x="37" y="157.667"/>
      <point x="63.6667" y="190.333"/>
      <point x="117" y="209" type="curve" smooth="yes"/>
      <point x="206.333" y="240.333"/>
      <point x="258.667" y="262.333"/>
      <point x="274" y="275" type="curve"/>
      <point x="274" y="295" type="line" smooth="yes"/>
      <point x="274" y="330.334"/>
      <point x="267" y="357.667"/>
      <point x="253" y="377" type="curve" smooth="yes"/>
      <point x="239" y="396.333"/>
      <point x="220" y="406"/>
      <point x="196" y="406" type="curve" smooth="yes"/>
      <point x="178" y="406"/>
      <point x="163.333" y="399.333"/>
      <point x="152" y="386" type="curve" smooth="yes"/>
      <point x="142" y="374.667"/>
      <point x="132" y="352.333"/>
      <point x="122" y="319" type="curve" smooth="yes"/>
      <point x="117.333" y="302.333"/>
      <point x="106.667" y="294"/>
      <point x="90" y="294" type="curve" smooth="yes"/>
      <point x="80" y="294"/>
      <point x="69.8333" y="298.667"/>
      <point x="59.5" y="308" type="curve" smooth="yes"/>
      <point x="49.1667" y="317.335"/>
      <point x="44" y="327.668"/>
      <point x="44" y="339" type="curve" smooth="yes"/>
      <point x="44" y="351.667"/>
      <point x="54.6667" y="365.333"/>
      <point x="76" y="380" type="curve" smooth="yes"/>
      <point x="127.333" y="416"/>
      <point x="178.667" y="439.333"/>
      <point x="230" y="450" type="curve"/>
      <point x="263.333" y="450"/>
      <point x="291" y="441"/>
      <point x="313" y="423" type="curve" smooth="yes"/>
      <point x="343.667" y="397.667"/>
      <point x="359" y="356.667"/>
      <point x="359" y="300" type="curve" smooth="yes"/>
      <point x="359" y="116" type="line" smooth="yes"/>
      <point x="359" y="76"/>
      <point x="370.667" y="56"/>
      <point x="394" y="56" type="curve" smooth="yes"/>
      <point x="405.333" y="56"/>
      <point x="417" y="59.6667"/>
    </contour>
    <contour>
      <point x="274" y="84" type="curve"/>
      <point x="274" y="241" type="line"/>
      <point x="246.667" y="227"/>
      <point x="218.667" y="213.333"/>
      <point x="190" y="200" type="curve" smooth="yes"/>
      <point x="170" y="190.667"/>
      <point x="155.333" y="180.5"/>
      <point x="146" y="169.5" type="curve" smooth="yes"/>
      <point x="136.667" y="158.5"/>
      <point x="132" y="144.333"/>
      <point x="132" y="127" type="curve" smooth="yes"/>
      <point x="132" y="103"/>
      <point x="139.167" y="84.3333"/>
      <point x="153.5" y="71" type="curve" smooth="yes"/>
      <point x="167.833" y="57.6667"/>
      <point x="183.667" y="51"/>
      <point x="201" y="51" type="curve" smooth="yes"/>
      <point x="227.667" y="51"/>
      <point x="252" y="62"/>
    </contour>
  </outline>
</glyph>
<glyph name="Cacute" format="2">
  <advance width="667"/>
  <unicode hex="0106"/>
  <outline>
    <contour>
      <point x="616" y="177" type="curve"/>
      <point x="645" y="166" type="line"/>
      <point x="627" y="102"/>
      <point x="608.333" y="50.333"/>
      <point x="589" y="11" type="curve"/>
      <point x="508.333" y="-6.3333"/>
      <point x="446.666" y="-15"/>
      <point x="404" y="-15" type="curve" smooth="yes"/>
      <point x="343.333" y="-15"/>
      <point x="289.333" y="-5.33333"/>
      <point x="242" y="14" type="curve" smooth="yes"/>
      <point x="194.667" y="33.3333"/>
      <point x="156.833" y="59"/>
      <point x="128.5" y="91" type="curve" smooth="yes"/>
      <point x="100.167" y="123"/>
      <point x="78.8333" y="158.167"/>
      <point x="64.5" y="196.5" type="curve" smooth="yes"/>
      <point x="50.1667" y="234.833"/>
      <point x="43" y="274.667"/>
      <point x="43" y="316" type="curve" smooth="yes"/>
      <point x="43" y="420"/>
      <point x="79" y="504.167"/>
      <point x="151" y="568.5" type="curve" smooth="yes"/>
      <point x="223" y="632.833"/>
      <point x="316" y="665"/>
      <point x="430" y="665" type="curve" smooth="yes"/>
      <point x="448.667" y="665"/>
      <point x="468.333" y="663.833"/>
      <point x="489" y="661.5" type="curve" smooth="yes"/>
      <point x="509.667" y="659.167"/>
      <point x="526" y="656.667"/>
      <point x="538" y="654" type="curve" smooth="yes"/>
      <point x="550" y="651.333"/>
      <point x="564.333" y="648"/>
      <point x="581" y="644" type="curve" smooth="yes"/>
      <point x="597.667" y="640"/>
      <point x="606.667" y="638"/>
      <point x="608" y="638" type="curve"/>
      <point x="617.333" y="572.667"/>
      <point x="624" y="521.667"/>
      <point x="628" y="485" type="curve"/>
      <point x="597" y="478" type="line"/>
      <point x="583.664" y="530.667"/>
      <point x="561.331" y="568.667"/>
      <point x="530" y="592" type="curve" smooth="yes"/>
      <point x="498.667" y="615.333"/>
      <point x="457" y="627"/>
      <point x="405" y="627" type="curve" smooth="yes"/>
      <point x="327" y="627"/>
      <point x="265.667" y="598.667"/>
      <point x="221" y="542" type="curve" smooth="yes"/>
      <point x="176.333" y="485.333"/>
      <point x="154" y="416.666"/>
      <point x="154" y="336" type="curve" smooth="yes"/>
      <point x="154" y="243.333"/>
      <point x="178.167" y="168"/>
      <point x="226.5" y="110" type="curve" smooth="yes"/>
      <point x="274.833" y="52"/>
      <point x="336.333" y="23"/>
      <point x="411" y="23" type="curve" smooth="yes"/>
      <point x="458.333" y="23"/>
      <point x="497.5" y="35.5"/>
      <point x="528.5" y="60.5" type="curve" smooth="yes"/>
      <point x="559.5" y="85.5"/>
      <point x="588.667" y="124.333"/>
    </contour>
    <contour>
      <point x="519" y="770" type="curve"/>
      <point x="517" y="762" type="line"/>
      <point x="328" y="699" type="line"/>
      <point x="315" y="724" type="line"/>
      <point x="475" y="830" type="line"/>
      <point x="481.667" y="828.667"/>
      <point x="490.333" y="820.5"/>
      <point x="501" y="805.5" type="curve" smooth="yes"/>
      <point x="511.667" y="790.5"/>
      <point x="517.667" y="778.667"/>
    </contour>
  </outline>
</glyph>
<glyph name="Cdotaccent" format="2">
  <advance width="667"/>
  <unicode hex="010A"/>
  <outline>
    <contour>
      <point x="616" y="177" type="curve"/>
      <point x="645" y="166" type="line"/>
      <point x="627" y="102"/>
      <point x="608.333" y="50.333"/>
      <point x="589" y="11" type="curve"/>
      <point x="508.333" y="-6.3333"/>
      <point x="446.666" y="-15"/>
      <point x="404" y="-15" type="curve" smooth="yes"/>
      <point x="343.333" y="-15"/>
      <point x="289.333" y="-5.33333"/>
      <point x="242" y="14" type="curve" smooth="yes"/>
      <point x="194.667" y="33.3333"/>
      <point x="156.833" y="59"/>
      <point x="128.5" y="91" type="curve" smooth="yes"/>
      <point x="100.167" y="123"/>
      <point x="78.8333" y="158.167"/>
      <point x="64.5" y="196.5" type="curve" smooth="yes"/>
      <point x="50.1667" y="234.833"/>
      <point x="43" y="274.667"/>
      <point x="43" y="316" type="curve" smooth="yes"/>
      <point x="43" y="420"/>
      <point x="79" y="504.167"/>
      <point x="151" y="568.5" type="curve" smooth="yes"/>
      <point x="223" y="632.833"/>
      <point x="316" y="665"/>
      <point x="430" y="665" type="curve" smooth="yes"/>
      <point x="448.667" y="665"/>
      <point x="468.333" y="663.833"/>
      <point x="489" y="661.5" type="curve" smooth="yes"/>
      <point x="509.667" y="659.167"/>
      <point x="526" y="656.667"/>
      <point x="538" y="654" type="curve" smooth="yes"/>
      <point x="550" y="651.333"/>
      <point x="564.333" y="648"/>
      <point x="581" y="644" type="curve" smooth="yes"/>
      <point x="597.667" y="640"/>
      <point x="606.667" y="638"/>
      <point x="608" y="638" type="curve"/>
      <point x="617.333" y="572.667"/>
      <point x="624" y="521.667"/>
      <point x="628" y="485" type="curve"/>
      <point x="597" y="478" type="line"/>
      <point x="583.664" y="530.667"/>
      <point x="561.331" y="568.667"/>
      <point x="530" y="592" type="curve" smooth="yes"/>
      <point x="498.667" y="615.333"/>
      <point x="457" y="627"/>
      <point x="405" y="627" type="curve" smooth="yes"/>
      <point x="327" y="627"/>
      <point x="265.667" y="598.667"/>
      <point x="221" y="542" type="curve" smooth="yes"/>
      <point x="176.333" y="485.333"/>
      <point x="154" y="416.666"/>
      <point x="154" y="336" type="curve" smooth="yes"/>
      <point x="154" y="243.333"/>
      <point x="178.167" y="168"/>
      <point x="226.5" y="110" type="curve" smooth="yes"/>
      <point x="274.833" y="52"/>
      <point x="336.333" y="23"/>
      <point x="411" y="23" type="curve" smooth="yes"/>
      <point x="458.333" y="23"/>
      <point x="497.5" y="35.5"/>
      <point x="528.5" y="60.5" type="curve" smooth="yes"/>
      <point x="559.5" y="85.5"/>
      <point x="588.667" y="124.333"/>
    </contour>
    <contour>
      <point x="402" y="817" type="curve" smooth="yes"/>
      <point x="416.667" y="817"/>
      <point x="429.333" y="811.5"/>
      <point x="440" y="800.5" type="curve" smooth="yes"/>
      <point x="450.667" y="789.5"/>
      <point x="456" y="776.333"/>
      <point x="456" y="761" type="curve" smooth="yes"/>
      <point x="456" y="745.667"/>
      <point x="450.667" y="732.667"/>
      <point x="440" y="722" type="curve" smooth="yes"/>
      <point x="429.333" y="711.333"/>
      <point x="416.333" y="706"/>
      <point x="401" y="706" type="curve" smooth="yes"/>
      <point x="385.667" y="706"/>
      <point x="372.667" y="711.333"/>
      <point x="362" y="722" type="curve" smooth="yes"/>
      <point x="351.333" y="732.667"/>
      <point x="346" y="745.667"/>
      <point x="346" y="761" type="curve" smooth="yes"/>
      <point x="346" y="776.333"/>
      <point x="351.5" y="789.5"/>
      <point x="362.5" y="800.5" type="curve" smooth="yes"/>
      <point x="373.5" y="811.5"/>
      <point x="386.667" y="817"/>
    </contour>
  </outline>
</glyph>
<glyph name="Ccaron" format="2">
  <advance width="667"/>
  <unicode hex="010C"/>
  <outline>
    <contour>
      <point x="616" y="177" type="curve"/>
      <point x="645" y="166" type="line"/>
      <point x="627" y="102"/>
      <point x="608.333" y="50.333"/>
      <point x="589" y="11" type="curve"/>
      <point x="508.333" y="-6.3333"/>
      <point x="446.666" y="-15"/>
      <point x="404" y="-15" type="curve" smooth="yes"/>
      <point x="343.333" y="-15"/>
      <point x="289.333" y="-5.33333"/>
      <point x="242" y="14" type="curve" smooth="yes"/>
      <point x="194.667" y="33.3333"/>
      <point x="156.833" y="59"/>
      <point x="128.5" y="91" type="curve" smooth="yes"/>
      <point x="100.167" y="123"/>
      <point x="78.8333" y="158.167"/>
      <point x="64.5" y="196.5" type="curve" smooth="yes"/>
      <point x="50.1667" y="234.833"/>
      <point x="43" y="274.667"/>
      <point x="43" y="316" type="curve" smooth="yes"/>
      <point x="43" y="420"/>
      <point x="79" y="504.167"/>
      <point x="151" y="568.5" type="curve" smooth="yes"/>
      <point x="223" y="632.833"/>
      <point x="316" y="665"/>
      <point x="430" y="665" type="curve" smooth="yes"/>
      <point x="448.667" y="665"/>
      <point x="468.333" y="663.833"/>
      <point x="489" y="661.5" type="curve" smooth="yes"/>
      <point x="509.667" y="659.167"/>
      <point x="526" y="656.667"/>
      <point x="538" y="654" type="curve" smooth="yes"/>
      <point x="550" y="651.333"/>
      <point x="564.333" y="648"/>
      <point x="581" y="644" type="curve" smooth="yes"/>
      <point x="597.667" y="640"/>
      <point x="606.667" y="638"/>
      <point x="608" y="638" type="curve"/>
      <point x="617.333" y="572.667"/>
      <point x="624" y="521.667"/>
      <point x="628" y="485" type="curve"/>
      <point x="597" y="478" type="line"/>
      <point x="583.664" y="530.667"/>
      <point x="561.331" y="568.667"/>
      <point x="530" y="592" type="curve" smooth="yes"/>
      <point x="498.667" y="615.333"/>
      <point x="457" y="627"/>
      <point x="405" y="627" type="curve" smooth="yes"/>
      <point x="327" y="627"/>
      <point x="265.667" y="598.667"/>
      <point x="221" y="542" type="curve" smooth="yes"/>
      <point x="176.333" y="485.333"/>
      <point x="154" y="416.666"/>
      <point x="154" y="336" type="curve" smooth="yes"/>
      <point x="154" y="243.333"/>
      <point x="178.167" y="168"/>
      <point x="226.5" y="110" type="curve" smooth="yes"/>
      <point x="274.833" y="52"/>
      <point x="336.333" y="23"/>
      <point x="411" y="23" type="curve" smooth="yes"/>
      <point x="458.333" y="23"/>
      <point x="497.5" y="35.5"/>
      <point x="528.5" y="60.5" type="curve" smooth="yes"/>
      <point x="559.5" y="85.5"/>
      <point x="588.667" y="124.333"/>
    </contour>
    <contour>
      <point x="521" y="837" type="curve"/>
      <point x="536" y="812" type="line"/>
      <point x="482.667" y="771.333"/>
      <point x="440.667" y="734.333"/>
      <point x="410" y="701" type="curve"/>
      <point x="386" y="701" type="line"/>
      <point x="361.333" y="727.667"/>
      <point x="319" y="764.667"/>
      <point x="259" y="812" type="curve"/>
      <point x="275" y="837" type="line"/>
      <point x="321" y="817.664"/>
      <point x="362" y="797.33"/>
      <point x="398" y="776" type="curve"/>
      <point x="439.333" y="800"/>
      <point x="480.333" y="820.333"/>
    </contour>
  </outline>
</glyph>
<glyph name="ebreve" format="2">
  <advance width="427"/>
  <unicode hex="0115"/>
  <outline>
    <contour>
      <point x="383" y="109" type="curve"/>
      <point x="399" y="87" type="line"/>
      <point x="371" y="51.6667"/>
      <point x="341.667" y="26.3333"/>
      <point x="311" y="11" type="curve" smooth="yes"/>
      <point x="280.333" y="-4.3333"/>
      <point x="254" y="-12"/>
      <point x="232" y="-12" type="curve" smooth="yes"/>
      <point x="172" y="-12"/>
      <point x="124.333" y="8.6667"/>
      <point x="89" y="50" type="curve" smooth="yes"/>
      <point x="53.6667" y="91.3333"/>
      <point x="36" y="141.667"/>
      <point x="36" y="201" type="curve" smooth="yes"/>
      <point x="36" y="270.333"/>
      <point x="58.3333" y="329"/>
      <point x="103" y="377" type="curve" smooth="yes"/>
      <point x="148.333" y="425.667"/>
      <point x="197.333" y="450"/>
      <point x="250" y="450" type="curve" smooth="yes"/>
      <point x="251" y="450" type="line" smooth="yes"/>
      <point x="292.333" y="450"/>
      <point x="328" y="434.5"/>
      <point x="358" y="403.5" type="curve" smooth="yes"/>
      <point x="388" y="372.5"/>
      <point x="403" y="337"/>
      <point x="403" y="297" type="curve" smooth="yes"/>
      <point x="403" y="286.333"/>
      <point x="401.333" y="278.5"/>
      <point x="398" y="273.5" type="curve" smooth="yes"/>
      <point x="394.667" y="268.5"/>
      <point x="388.333" y="265.333"/>
      <point x="379" y="264" type="curve" smooth="yes"/>
      <point x="341" y="257.333"/>
      <point x="255.333" y="251.667"/>
      <point x="122" y="247" type="curve"/>
      <point x="122.667" y="185.667"/>
      <point x="137.667" y="139.167"/>
      <point x="167" y="107.5" type="curve" smooth="yes"/>
      <point x="196.333" y="75.8333"/>
      <point x="230.333" y="60"/>
      <point x="269" y="60" type="curve" smooth="yes"/>
      <point x="309.667" y="60"/>
      <point x="347.667" y="76.3334"/>
    </contour>
    <contour>
      <point x="227" y="412" type="curve" smooth="yes"/>
      <point x="204.333" y="412"/>
      <point x="183.667" y="401.167"/>
      <point x="165" y="379.5" type="curve" smooth="yes"/>
      <point x="146.333" y="357.833"/>
      <point x="134" y="327.666"/>
      <point x="128" y="289" type="curve"/>
      <point x="180" y="289"/>
      <point x="233.333" y="290"/>
      <point x="288" y="292" type="curve" smooth="yes"/>
      <point x="303.333" y="292"/>
      <point x="311" y="298.667"/>
      <point x="311" y="312" type="curve" smooth="yes"/>
      <point x="311.027" y="313.115"/>
      <point x="311.041" y="314.225"/>
      <point x="311.041" y="315.328" type="curve" smooth="yes"/>
      <point x="311.041" y="341.245"/>
      <point x="303.527" y="363.636"/>
      <point x="288.5" y="382.5" type="curve" smooth="yes"/>
      <point x="272.833" y="402.167"/>
      <point x="252.333" y="412"/>
    </contour>
    <contour>
      <point x="316" y="650" type="curve"/>
      <point x="346" y="650" type="line"/>
      <point x="346" y="556.667"/>
      <point x="308" y="510"/>
      <point x="232" y="510" type="curve" smooth="yes"/>
      <point x="157.333" y="510"/>
      <point x="120" y="556.667"/>
      <point x="120" y="650" type="curve"/>
      <point x="150" y="650" type="line"/>
      <point x="154" y="624.667"/>
      <point x="163.167" y="605.167"/>
      <point x="177.5" y="591.5" type="curve" smooth="yes"/>
      <point x="191.833" y="577.833"/>
      <point x="210" y="571"/>
      <point x="232" y="571" type="curve" smooth="yes"/>
      <point x="280" y="571"/>
      <point x="308" y="597.333"/>
    </contour>
  </outline>
</glyph>
<glyph name="Edotaccent" format="2">
  <advance width="570"/>
  <unicode hex="0116"/>
  <outline>
    <contour>
      <point x="520" y="164" type="curve"/>
      <point x="550" y="159" type="line"/>
      <point x="539.333" y="96.3333"/>
      <point x="527.667" y="43.333"/>
      <point x="515" y="0" type="curve"/>
      <point x="28" y="0" type="line"/>
      <point x="28" y="29" type="line"/>
      <point x="73.3333" y="32.3333"/>
      <point x="101" y="39"/>
      <point x="111" y="49" type="curve" smooth="yes"/>
      <point x="121" y="59"/>
      <point x="126" y="84.6667"/>
      <point x="126" y="126" type="curve" smooth="yes"/>
      <point x="127" y="521" type="line" smooth="yes"/>
      <point x="127" y="565"/>
      <point x="122.667" y="591.833"/>
      <point x="114" y="601.5" type="curve" smooth="yes"/>
      <point x="105.333" y="611.167"/>
      <point x="81.3333" y="617.667"/>
      <point x="42" y="621" type="curve"/>
      <point x="42" y="650" type="line"/>
      <point x="491" y="650" type="line"/>
      <point x="491.667" y="642"/>
      <point x="493.167" y="620.167"/>
      <point x="495.5" y="584.5" type="curve" smooth="yes"/>
      <point x="497.833" y="548.833"/>
      <point x="499.333" y="522.333"/>
      <point x="500" y="505" type="curve"/>
      <point x="470" y="500" type="line"/>
      <point x="462.667" y="534.668"/>
      <point x="451.333" y="563.334"/>
      <point x="436" y="586" type="curve" smooth="yes"/>
      <point x="428.667" y="596.667"/>
      <point x="417.167" y="604"/>
      <point x="401.5" y="608" type="curve" smooth="yes"/>
      <point x="385.833" y="612"/>
      <point x="360.666" y="614"/>
      <point x="326" y="614" type="curve" smooth="yes"/>
      <point x="255" y="614" type="line" smooth="yes"/>
      <point x="239" y="614"/>
      <point x="229.333" y="612.333"/>
      <point x="226" y="609" type="curve" smooth="yes"/>
      <point x="222.667" y="605.662"/>
      <point x="221" y="596.329"/>
      <point x="221" y="581" type="curve" smooth="yes"/>
      <point x="221" y="356" type="line"/>
      <point x="310" y="356" type="line" smooth="yes"/>
      <point x="354" y="356"/>
      <point x="381.333" y="360"/>
      <point x="392" y="368" type="curve" smooth="yes"/>
      <point x="402.667" y="376"/>
      <point x="411.333" y="397"/>
      <point x="418" y="431" type="curve"/>
      <point x="448" y="431" type="line"/>
      <point x="448" y="238" type="line"/>
      <point x="418" y="238" type="line"/>
      <point x="411.333" y="273.333"/>
      <point x="402.5" y="295"/>
      <point x="391.5" y="303" type="curve" smooth="yes"/>
      <point x="380.5" y="311"/>
      <point x="353.667" y="315"/>
      <point x="311" y="315" type="curve" smooth="yes"/>
      <point x="221" y="315" type="line"/>
      <point x="221" y="130" type="line" smooth="yes"/>
      <point x="221" y="86"/>
      <point x="229" y="58.6667"/>
      <point x="245" y="48" type="curve" smooth="yes"/>
      <point x="257.667" y="40"/>
      <point x="291.333" y="36"/>
      <point x="346" y="36" type="curve" smooth="yes"/>
      <point x="381.333" y="36"/>
      <point x="408" y="38.3333"/>
      <point x="426" y="43" type="curve" smooth="yes"/>
      <point x="444" y="47.6667"/>
      <point x="458.333" y="56.3334"/>
      <point x="469" y="69" type="curve" smooth="yes"/>
      <point x="488.333" y="92.3333"/>
      <point x="505.333" y="124"/>
    </contour>
    <contour>
      <point x="300" y="813" type="curve" smooth="yes"/>
      <point x="315.334" y="813"/>
      <point x="328.167" y="807.667"/>
      <point x="338.5" y="797" type="curve" smooth="yes"/>
      <point x="348.833" y="786.333"/>
      <point x="354" y="773"/>
      <point x="354" y="757" type="curve" smooth="yes"/>
      <point x="354" y="741.666"/>
      <point x="348.667" y="728.833"/>
      <point x="338" y="718.5" type="curve" smooth="yes"/>
      <point x="327.333" y="708.167"/>
      <point x="314.333" y="703"/>
      <point x="299" y="703" type="curve" smooth="yes"/>
      <point x="283.667" y="703"/>
      <point x="270.833" y="708.167"/>
      <point x="260.5" y="718.5" type="curve" smooth="yes"/>
      <point x="250.167" y="728.833"/>
      <point x="245" y="741.667"/>
      <point x="245" y="757" type="curve" smooth="yes"/>
      <point x="245" y="773"/>
      <point x="250.333" y="786.333"/>
      <point x="261" y="797" type="curve" smooth="yes"/>
      <point x="271.667" y="807.667"/>
      <point x="284.667" y="813"/>
    </contour>
  </outline>
</glyph>
<glyph name="Gbreve" format="2">
  <advance width="717"/>
  <unicode hex="011E"/>
  <outline>
    <contour>
      <point x="694" y="303" type="line"/>
      <point x="694" y="274" type="line"/>
      <point x="665.333" y="269.333"/>
      <point x="647.833" y="263.333"/>
      <point x="641.5" y="256" type="curve" smooth="yes"/>
      <point x="635.167" y="248.667"/>
      <point x="632" y="230"/>
      <point x="632" y="200" type="curve" smooth="yes"/>
      <point x="632" y="116" type="line" smooth="yes"/>
      <point x="632" y="73.3333"/>
      <point x="634.333" y="41.6667"/>
      <point x="639" y="21" type="curve"/>
      <point x="533" y="-3"/>
      <point x="458" y="-15"/>
      <point x="414" y="-15" type="curve" smooth="yes"/>
      <point x="302.667" y="-15"/>
      <point x="213.167" y="15.8333"/>
      <point x="145.5" y="77.5" type="curve" smooth="yes"/>
      <point x="77.8333" y="139.167"/>
      <point x="44" y="220"/>
      <point x="44" y="320" type="curve" smooth="yes"/>
      <point x="44" y="394"/>
      <point x="62.5" y="457.667"/>
      <point x="99.5" y="511" type="curve" smooth="yes"/>
      <point x="136.5" y="564.333"/>
      <point x="183.5" y="603.333"/>
      <point x="240.5" y="628" type="curve" smooth="yes"/>
      <point x="297.5" y="652.667"/>
      <point x="360.333" y="665"/>
      <point x="429" y="665" type="curve" smooth="yes"/>
      <point x="444.334" y="665"/>
      <point x="460.168" y="664.333"/>
      <point x="476.5" y="663" type="curve" smooth="yes"/>
      <point x="492.834" y="661.667"/>
      <point x="508.668" y="659.667"/>
      <point x="524" y="657" type="curve" smooth="yes"/>
      <point x="539.333" y="654.333"/>
      <point x="552" y="652"/>
      <point x="562" y="650" type="curve" smooth="yes"/>
      <point x="572" y="648"/>
      <point x="583.667" y="645.5"/>
      <point x="597" y="642.5" type="curve" smooth="yes"/>
      <point x="610.333" y="639.5"/>
      <point x="618.333" y="637.667"/>
      <point x="621" y="637" type="curve"/>
      <point x="625.667" y="583"/>
      <point x="631" y="530"/>
      <point x="637" y="478" type="curve"/>
      <point x="607" y="472" type="line"/>
      <point x="586.333" y="576"/>
      <point x="521.333" y="628"/>
      <point x="412" y="628" type="curve" smooth="yes"/>
      <point x="337.333" y="628"/>
      <point x="275.833" y="601.333"/>
      <point x="227.5" y="548" type="curve" smooth="yes"/>
      <point x="179.167" y="494.667"/>
      <point x="155" y="423"/>
      <point x="155" y="333" type="curve" smooth="yes"/>
      <point x="155" y="281.667"/>
      <point x="164.167" y="233"/>
      <point x="182.5" y="187" type="curve" smooth="yes"/>
      <point x="200.833" y="141"/>
      <point x="231" y="101.833"/>
      <point x="273" y="69.5" type="curve" smooth="yes"/>
      <point x="315" y="37.1667"/>
      <point x="365.667" y="21"/>
      <point x="425" y="21" type="curve" smooth="yes"/>
      <point x="459" y="21"/>
      <point x="486.333" y="26.6667"/>
      <point x="507" y="38" type="curve" smooth="yes"/>
      <point x="527" y="48.6667"/>
      <point x="537" y="69.6667"/>
      <point x="537" y="101" type="curve" smooth="yes"/>
      <point x="537" y="188" type="line" smooth="yes"/>
      <point x="537" y="224"/>
      <point x="531.833" y="246.333"/>
      <point x="521.5" y="255" type="curve" smooth="yes"/>
      <point x="511.167" y="263.667"/>
      <point x="481.333" y="270"/>
      <point x="432" y="274" type="curve"/>
      <point x="432" y="303" type="line"/>
    </contour>
    <contour>
      <point x="482" y="825" type="curve"/>
      <point x="512" y="825" type="line"/>
      <point x="511.333" y="784.333"/>
      <point x="500.333" y="753.833"/>
      <point x="479" y="733.5" type="curve" smooth="yes"/>
      <point x="457.667" y="713.167"/>
      <point x="429" y="703"/>
      <point x="393" y="703" type="curve" smooth="yes"/>
      <point x="356.333" y="703"/>
      <point x="327.5" y="713.167"/>
      <point x="306.5" y="733.5" type="curve" smooth="yes"/>
      <point x="285.5" y="753.833"/>
      <point x="274.667" y="784.333"/>
      <point x="274" y="825" type="curve"/>
      <point x="304" y="825" type="line"/>
      <point x="314.667" y="783.667"/>
      <point x="344.333" y="763"/>
      <point x="393" y="763" type="curve" smooth="yes"/>
      <point x="441" y="763"/>
      <point x="470.667" y="783.667"/>
    </contour>
  </outline>
</glyph>
<glyph name="Gdotaccent" format="2">
  <advance width="717"/>
  <unicode hex="0120"/>
  <outline>
    <contour>
      <point x="694" y="303" type="line"/>
      <point x="694" y="274" type="line"/>
      <point x="664.665" y="269.333"/>
      <point x="646.832" y="263.333"/>
      <point x="640.5" y="256" type="curve" smooth="yes"/>
      <point x="634.167" y="248.667"/>
      <point x="631" y="230"/>
      <point x="631" y="200" type="curve" smooth="yes"/>
      <point x="631" y="116" type="line" smooth="yes"/>
      <point x="631" y="73.3333"/>
      <point x="633.333" y="41.6667"/>
      <point x="638" y="21" type="curve"/>
      <point x="532" y="-3"/>
      <point x="457.333" y="-15"/>
      <point x="414" y="-15" type="curve" smooth="yes"/>
      <point x="302.667" y="-15"/>
      <point x="213.167" y="15.8333"/>
      <point x="145.5" y="77.5" type="curve" smooth="yes"/>
      <point x="77.8333" y="139.167"/>
      <point x="44" y="220"/>
      <point x="44" y="320" type="curve" smooth="yes"/>
      <point x="44" y="394"/>
      <point x="62.5" y="457.667"/>
      <point x="99.5" y="511" type="curve" smooth="yes"/>
      <point x="136.5" y="564.333"/>
      <point x="183.5" y="603.333"/>
      <point x="240.5" y="628" type="curve" smooth="yes"/>
      <point x="297.5" y="652.667"/>
      <point x="360" y="665"/>
      <point x="428" y="665" type="curve" smooth="yes"/>
      <point x="443.334" y="665"/>
      <point x="459.168" y="664.333"/>
      <point x="475.5" y="663" type="curve" smooth="yes"/>
      <point x="491.833" y="661.667"/>
      <point x="507.833" y="659.667"/>
      <point x="523.5" y="657" type="curve" smooth="yes"/>
      <point x="539.167" y="654.333"/>
      <point x="552" y="652"/>
      <point x="562" y="650" type="curve" smooth="yes"/>
      <point x="572" y="648"/>
      <point x="583.833" y="645.5"/>
      <point x="597.5" y="642.5" type="curve" smooth="yes"/>
      <point x="611.167" y="639.5"/>
      <point x="619" y="637.667"/>
      <point x="621" y="637" type="curve"/>
      <point x="625.667" y="583"/>
      <point x="631" y="530"/>
      <point x="637" y="478" type="curve"/>
      <point x="607" y="472" type="line"/>
      <point x="586.333" y="576"/>
      <point x="521.333" y="628"/>
      <point x="412" y="628" type="curve" smooth="yes"/>
      <point x="336.667" y="628"/>
      <point x="275" y="601.333"/>
      <point x="227" y="548" type="curve" smooth="yes"/>
      <point x="179" y="494.667"/>
      <point x="155" y="423"/>
      <point x="155" y="333" type="curve" smooth="yes"/>
      <point x="155" y="281.667"/>
      <point x="164.167" y="233"/>
      <point x="182.5" y="187" type="curve" smooth="yes"/>
      <point x="200.833" y="141"/>
      <point x="231" y="101.833"/>
      <point x="273" y="69.5" type="curve" smooth="yes"/>
      <point x="315" y="37.1667"/>
      <point x="365.667" y="21"/>
      <point x="425" y="21" type="curve" smooth="yes"/>
      <point x="459" y="21"/>
      <point x="486.333" y="26.6667"/>
      <point x="507" y="38" type="curve" smooth="yes"/>
      <point x="527" y="48.6667"/>
      <point x="537" y="69.6667"/>
      <point x="537" y="101" type="curve" smooth="yes"/>
      <point x="537" y="188" type="line" smooth="yes"/>
      <point x="537" y="224"/>
      <point x="531.833" y="246.333"/>
      <point x="521.5" y="255" type="curve" smooth="yes"/>
      <point x="511.167" y="263.667"/>
      <point x="481.333" y="270"/>
      <point x="432" y="274" type="curve"/>
      <point x="432" y="303" type="line"/>
    </contour>
    <contour>
      <point x="403" y="815" type="curve" smooth="yes"/>
      <point x="418.334" y="815"/>
      <point x="431.167" y="809.667"/>
      <point x="441.5" y="799" type="curve" smooth="yes"/>
      <point x="451.833" y="788.333"/>
      <point x="457" y="775"/>
      <point x="457" y="759" type="curve" smooth="yes"/>
      <point x="457" y="743.666"/>
      <point x="451.833" y="730.833"/>
      <point x="441.5" y="720.5" type="curve" smooth="yes"/>
      <point x="431.167" y="710.167"/>
      <point x="418" y="705"/>
      <point x="402" y="705" type="curve" smooth="yes"/>
      <point x="387.332" y="705"/>
      <point x="374.665" y="710.167"/>
      <point x="364" y="720.5" type="curve" smooth="yes"/>
      <point x="353.333" y="730.833"/>
      <point x="348" y="743.667"/>
      <point x="348" y="759" type="curve" smooth="yes"/>
      <point x="348" y="775"/>
      <point x="353.333" y="788.333"/>
      <point x="364" y="799" type="curve" smooth="yes"/>
      <point x="374.667" y="809.667"/>
      <point x="387.667" y="815"/>
    </contour>
  </outline>
</glyph>
<glyph name="hcircumflex" format="2">
  <advance width="537"/>
  <unicode hex="0125"/>
  <outline>
    <contour>
      <point x="516" y="0" type="line"/>
      <point x="301" y="0" type="line"/>
      <point x="301" y="27" type="line"/>
      <point x="329.667" y="30.3333"/>
      <point x="347.333" y="36"/>
      <point x="354" y="44" type="curve" smooth="yes"/>
      <point x="360.667" y="52"/>
      <point x="364" y="71.6667"/>
      <point x="364" y="103" type="curve" smooth="yes"/>
      <point x="364" y="270" type="line" smooth="yes"/>
      <point x="364" y="350"/>
      <point x="333" y="390"/>
      <point x="271" y="390" type="curve" smooth="yes"/>
      <point x="233" y="390"/>
      <point x="200.333" y="374.333"/>
      <point x="173" y="343" type="curve"/>
      <point x="173" y="103" type="line" smooth="yes"/>
      <point x="173" y="71.6667"/>
      <point x="176.167" y="51.8333"/>
      <point x="182.5" y="43.5" type="curve" smooth="yes"/>
      <point x="188.833" y="35.1667"/>
      <point x="206" y="29.6667"/>
      <point x="234" y="27" type="curve"/>
      <point x="234" y="0" type="line"/>
      <point x="17" y="0" type="line"/>
      <point x="18" y="27" type="line"/>
      <point x="48" y="30.3333"/>
      <point x="66.6667" y="35.8333"/>
      <point x="74" y="43.5" type="curve" smooth="yes"/>
      <point x="81.3333" y="51.1667"/>
      <point x="85" y="71.3334"/>
      <point x="85" y="104" type="curve" smooth="yes"/>
      <point x="85" y="579" type="line" smooth="yes"/>
      <point x="85" y="610.333"/>
      <point x="81.8333" y="629.333"/>
      <point x="75.5" y="636" type="curve" smooth="yes"/>
      <point x="69.1667" y="642.667"/>
      <point x="50.3333" y="647.667"/>
      <point x="19" y="651" type="curve"/>
      <point x="19" y="676" type="line"/>
      <point x="71.6667" y="683.333"/>
      <point x="123" y="694.667"/>
      <point x="173" y="710" type="curve"/>
      <point x="173" y="379" type="line"/>
      <point x="220.333" y="426.333"/>
      <point x="267.333" y="450"/>
      <point x="314" y="450" type="curve" smooth="yes"/>
      <point x="356.667" y="450"/>
      <point x="390.333" y="435.833"/>
      <point x="415" y="407.5" type="curve" smooth="yes"/>
      <point x="439.667" y="379.167"/>
      <point x="452" y="336.667"/>
      <point x="452" y="280" type="curve" smooth="yes"/>
      <point x="452" y="103" type="line" smooth="yes"/>
      <point x="452" y="71"/>
      <point x="455.5" y="51.1667"/>
      <point x="462.5" y="43.5" type="curve" smooth="yes"/>
      <point x="469.5" y="35.8333"/>
      <point x="487.333" y="30.3333"/>
      <point x="516" y="27" type="curve"/>
    </contour>
    <contour>
      <point x="258" y="746" type="curve"/>
      <point x="242" y="721" type="line"/>
      <point x="214" y="732.333"/>
      <point x="173" y="753"/>
      <point x="119" y="783" type="curve"/>
      <point x="63" y="752.333"/>
      <point x="22.3333" y="731.667"/>
      <point x="-3" y="721" type="curve"/>
      <point x="-19" y="746" type="line"/>
      <point x="41" y="793.333"/>
      <point x="83.333" y="830"/>
      <point x="108" y="856" type="curve"/>
      <point x="131" y="856" type="line"/>
      <point x="155.667" y="830"/>
      <point x="198" y="793.333"/>
    </contour>
  </outline>
</glyph>
<glyph name="Hbar" format="2">
  <advance width="769"/>
  <unicode hex="0126"/>
  <outline>
    <contour>
      <point x="729" y="470" type="line"/>
      <point x="643" y="470" type="line"/>
      <point x="643" y="129" type="line" smooth="yes"/>
      <point x="643" y="86.3333"/>
      <point x="647.667" y="59.8333"/>
      <point x="657" y="49.5" type="curve" smooth="yes"/>
      <point x="666.333" y="39.1666"/>
      <point x="691" y="32.3333"/>
      <point x="731" y="29" type="curve"/>
      <point x="731" y="0" type="line"/>
      <point x="457" y="0" type="line"/>
      <point x="457" y="29" type="line"/>
      <point x="499.001" y="32.3333"/>
      <point x="524.834" y="39.1667"/>
      <point x="534.5" y="49.5" type="curve" smooth="yes"/>
      <point x="544.167" y="59.8333"/>
      <point x="549" y="86.3333"/>
      <point x="549" y="129" type="curve" smooth="yes"/>
      <point x="549" y="308" type="line"/>
      <point x="221" y="308" type="line"/>
      <point x="221" y="129" type="line" smooth="yes"/>
      <point x="221" y="86.3333"/>
      <point x="225.667" y="59.8333"/>
      <point x="235" y="49.5" type="curve" smooth="yes"/>
      <point x="244.333" y="39.1666"/>
      <point x="269" y="32.3333"/>
      <point x="309" y="29" type="curve"/>
      <point x="309" y="0" type="line"/>
      <point x="40" y="0" type="line"/>
      <point x="40" y="29" type="line"/>
      <point x="80" y="32.3333"/>
      <point x="104.5" y="39.1667"/>
      <point x="113.5" y="49.5" type="curve" smooth="yes"/>
      <point x="122.5" y="59.8333"/>
      <point x="127" y="86.3333"/>
      <point x="127" y="129" type="curve" smooth="yes"/>
      <point x="127" y="470" type="line"/>
      <point x="40" y="470" type="line"/>
      <point x="40" y="508" type="line"/>
      <point x="127" y="508" type="line"/>
      <point x="127" y="525" type="line" smooth="yes"/>
      <point x="127" y="567"/>
      <point x="122.5" y="592.667"/>
      <point x="113.5" y="602" type="curve" smooth="yes"/>
      <point x="104.5" y="611.333"/>
      <point x="79.3333" y="617.667"/>
      <point x="38" y="621" type="curve"/>
      <point x="38" y="650" type="line"/>
      <point x="304" y="650" type="line"/>
      <point x="304" y="621" type="line"/>
      <point x="265.333" y="617.657"/>
      <point x="241.833" y="611.324"/>
      <point x="233.5" y="602" type="curve" smooth="yes"/>
      <point x="225.167" y="592.667"/>
      <point x="221" y="567"/>
      <point x="221" y="525" type="curve" smooth="yes"/>
      <point x="221" y="508" type="line"/>
      <point x="549" y="508" type="line"/>
      <point x="549" y="525" type="line" smooth="yes"/>
      <point x="549" y="567"/>
      <point x="544.667" y="592.667"/>
      <point x="536" y="602" type="curve" smooth="yes"/>
      <point x="527.333" y="611.333"/>
      <point x="503.333" y="617.667"/>
      <point x="464" y="621" type="curve"/>
      <point x="464" y="650" type="line"/>
      <point x="732" y="650" type="line"/>
      <point x="732" y="621" type="line"/>
      <point x="690.667" y="617.657"/>
      <point x="665.5" y="611.324"/>
      <point x="656.5" y="602" type="curve" smooth="yes"/>
      <point x="647.5" y="592.667"/>
      <point x="643" y="567"/>
      <point x="643" y="525" type="curve" smooth="yes"/>
      <point x="643" y="508" type="line"/>
      <point x="729" y="508" type="line"/>
    </contour>
    <contour>
      <point x="549" y="352" type="line"/>
      <point x="549" y="470" type="line"/>
      <point x="221" y="470" type="line"/>
      <point x="221" y="352" type="line"/>
    </contour>
  </outline>
</glyph>
<glyph name="ibreve" format="2">
  <advance width="273"/>
  <unicode hex="012D"/>
  <outline>
    <contour>
      <point x="258" y="0" type="line"/>
      <point x="33" y="0" type="line"/>
      <point x="33" y="27" type="line"/>
      <point x="63.6667" y="30.3333"/>
      <point x="82.6667" y="36.3333"/>
      <point x="90" y="45" type="curve" smooth="yes"/>
      <point x="97.3333" y="53.6667"/>
      <point x="101" y="75.3333"/>
      <point x="101" y="110" type="curve" smooth="yes"/>
      <point x="101" y="308" type="line" smooth="yes"/>
      <point x="101" y="340.667"/>
      <point x="98" y="361"/>
      <point x="92" y="369" type="curve" smooth="yes"/>
      <point x="86" y="377"/>
      <point x="68.6667" y="383.333"/>
      <point x="40" y="388" type="curve"/>
      <point x="40" y="412" type="line"/>
      <point x="98.6667" y="422"/>
      <point x="148.333" y="435"/>
      <point x="189" y="451" type="curve"/>
      <point x="189" y="110" type="line" smooth="yes"/>
      <point x="189" y="75.3333"/>
      <point x="192.5" y="53.6667"/>
      <point x="199.5" y="45" type="curve" smooth="yes"/>
      <point x="206.5" y="36.3333"/>
      <point x="226" y="30.3333"/>
      <point x="258" y="27" type="curve"/>
    </contour>
    <contour>
      <point x="216" y="650" type="curve"/>
      <point x="246" y="650" type="line"/>
      <point x="246" y="556"/>
      <point x="208" y="509"/>
      <point x="132" y="509" type="curve" smooth="yes"/>
      <point x="57.3333" y="509"/>
      <point x="20" y="556"/>
      <point x="20" y="650" type="curve"/>
      <point x="51" y="650" type="line"/>
      <point x="58.3333" y="597.333"/>
      <point x="85.6667" y="571"/>
      <point x="133" y="571" type="curve" smooth="yes"/>
      <point x="180.333" y="571"/>
      <point x="208" y="597.333"/>
    </contour>
  </outline>
</glyph>
<glyph name="Iogonek" format="2">
  <advance width="347"/>
  <unicode hex="012E"/>
  <outline>
    <contour>
      <point x="309" y="0" type="line"/>
      <point x="193" y="0" type="line"/>
      <point x="170.333" y="-46.6667"/>
      <point x="159" y="-87.6667"/>
      <point x="159" y="-123" type="curve" smooth="yes"/>
      <point x="159" y="-139.667"/>
      <point x="164.5" y="-152.833"/>
      <point x="175.5" y="-162.5" type="curve" smooth="yes"/>
      <point x="186.5" y="-172.167"/>
      <point x="200.333" y="-177"/>
      <point x="217" y="-177" type="curve" smooth="yes"/>
      <point x="231.667" y="-177"/>
      <point x="247.667" y="-173"/>
      <point x="265" y="-165" type="curve"/>
      <point x="273" y="-190" type="line"/>
      <point x="216" y="-225" type="line" smooth="yes"/>
      <point x="204" y="-232.333"/>
      <point x="191" y="-236"/>
      <point x="177" y="-236" type="curve" smooth="yes"/>
      <point x="147.667" y="-236"/>
      <point x="125.667" y="-228.167"/>
      <point x="111" y="-212.5" type="curve" smooth="yes"/>
      <point x="96.3333" y="-196.834"/>
      <point x="89" y="-177.667"/>
      <point x="89" y="-155" type="curve" smooth="yes"/>
      <point x="89" y="-147.667"/>
      <point x="89.6667" y="-140.167"/>
      <point x="91" y="-132.5" type="curve" smooth="yes"/>
      <point x="92.3337" y="-124.833"/>
      <point x="94.667" y="-116.667"/>
      <point x="98" y="-108" type="curve" smooth="yes"/>
      <point x="101.333" y="-99.3333"/>
      <point x="104.333" y="-92"/>
      <point x="107" y="-86" type="curve" smooth="yes"/>
      <point x="109.667" y="-80"/>
      <point x="113.833" y="-72"/>
      <point x="119.5" y="-62" type="curve" smooth="yes"/>
      <point x="125.167" y="-52"/>
      <point x="129.167" y="-45"/>
      <point x="131.5" y="-41" type="curve" smooth="yes"/>
      <point x="133.833" y="-37"/>
      <point x="138.5" y="-29.6667"/>
      <point x="145.5" y="-19" type="curve" smooth="yes"/>
      <point x="152.5" y="-8.3333"/>
      <point x="156.667" y="-2"/>
      <point x="158" y="0" type="curve"/>
      <point x="38" y="0" type="line"/>
      <point x="37" y="28" type="line"/>
      <point x="77.6667" y="31.3333"/>
      <point x="102.667" y="38.1667"/>
      <point x="112" y="48.5" type="curve" smooth="yes"/>
      <point x="121.333" y="58.8333"/>
      <point x="126" y="85.3333"/>
      <point x="126" y="128" type="curve" smooth="yes"/>
      <point x="126" y="522" type="line" smooth="yes"/>
      <point x="126" y="564.667"/>
      <point x="121.333" y="591.167"/>
      <point x="112" y="601.5" type="curve" smooth="yes"/>
      <point x="102.667" y="611.833"/>
      <point x="77.6667" y="618.667"/>
      <point x="37" y="622" type="curve"/>
      <point x="37" y="650" type="line"/>
      <point x="309" y="650" type="line"/>
      <point x="309" y="622" type="line"/>
      <point x="268.333" y="618.662"/>
      <point x="243.333" y="611.829"/>
      <point x="234" y="601.5" type="curve" smooth="yes"/>
      <point x="224.667" y="591.167"/>
      <point x="220" y="564.667"/>
      <point x="220" y="522" type="curve" smooth="yes"/>
      <point x="220" y="128" type="line" smooth="yes"/>
      <point x="220" y="85.3333"/>
      <point x="224.667" y="58.8333"/>
      <point x="234" y="48.5" type="curve" smooth="yes"/>
      <point x="243.333" y="38.1667"/>
      <point x="268.333" y="31.3333"/>
      <point x="309" y="28" type="curve"/>
    </contour>
  </outline>
</glyph>
<glyph name="iogonek" format="2">
  <advance width="273"/>
  <unicode hex="012F"/>
  <outline>
    <contour>
      <point x="258" y="0" type="line"/>
      <point x="162" y="0" type="line"/>
      <point x="140" y="-42.6667"/>
      <point x="129" y="-82"/>
      <point x="129" y="-118" type="curve" smooth="yes"/>
      <point x="129" y="-136.667"/>
      <point x="134" y="-150.667"/>
      <point x="144" y="-160" type="curve" smooth="yes"/>
      <point x="154" y="-169.333"/>
      <point x="167.333" y="-174"/>
      <point x="184" y="-174" type="curve" smooth="yes"/>
      <point x="196" y="-174"/>
      <point x="210.667" y="-170.333"/>
      <point x="228" y="-163" type="curve"/>
      <point x="237" y="-189" type="line"/>
      <point x="185" y="-220" type="line" smooth="yes"/>
      <point x="173" y="-228"/>
      <point x="160.667" y="-232"/>
      <point x="148" y="-232" type="curve" smooth="yes"/>
      <point x="119.333" y="-232"/>
      <point x="97.6666" y="-224.833"/>
      <point x="83" y="-210.5" type="curve" smooth="yes"/>
      <point x="68.3333" y="-196.167"/>
      <point x="61" y="-176.667"/>
      <point x="61" y="-152" type="curve" smooth="yes"/>
      <point x="61" y="-118.667"/>
      <point x="83.3334" y="-68"/>
      <point x="128" y="0" type="curve"/>
      <point x="30" y="0" type="line"/>
      <point x="30" y="27" type="line"/>
      <point x="62" y="30.3333"/>
      <point x="81.6667" y="36.1667"/>
      <point x="89" y="44.5" type="curve" smooth="yes"/>
      <point x="96.3333" y="52.8333"/>
      <point x="100" y="74.3333"/>
      <point x="100" y="109" type="curve" smooth="yes"/>
      <point x="100" y="308" type="line" smooth="yes"/>
      <point x="100" y="340.667"/>
      <point x="96.8333" y="361"/>
      <point x="90.5" y="369" type="curve" smooth="yes"/>
      <point x="84.1667" y="377"/>
      <point x="66.6667" y="383.333"/>
      <point x="38" y="388" type="curve"/>
      <point x="38" y="412" type="line"/>
      <point x="93.3333" y="420.667"/>
      <point x="143.333" y="433.667"/>
      <point x="188" y="451" type="curve"/>
      <point x="188" y="109" type="line" smooth="yes"/>
      <point x="188" y="75"/>
      <point x="191.667" y="53.6667"/>
      <point x="199" y="45" type="curve" smooth="yes"/>
      <point x="206.333" y="36.3333"/>
      <point x="226" y="30.3333"/>
      <point x="258" y="27" type="curve"/>
    </contour>
    <contour>
      <point x="139" y="533" type="curve" smooth="yes"/>
      <point x="124.333" y="533"/>
      <point x="111.667" y="538.5"/>
      <point x="101" y="549.5" type="curve" smooth="yes"/>
      <point x="90.3333" y="560.5"/>
      <point x="85" y="573.333"/>
      <point x="85" y="588" type="curve" smooth="yes"/>
      <point x="85" y="603.333"/>
      <point x="90.3333" y="616.5"/>
      <point x="101" y="627.5" type="curve" smooth="yes"/>
      <point x="111.667" y="638.5"/>
      <point x="124.667" y="644"/>
      <point x="140" y="644" type="curve" smooth="yes"/>
      <point x="154.667" y="644"/>
      <point x="167.167" y="638.5"/>
      <point x="177.5" y="627.5" type="curve" smooth="yes"/>
      <point x="187.833" y="616.5"/>
      <point x="193" y="603.333"/>
      <point x="193" y="588" type="curve" smooth="yes"/>
      <point x="193" y="573.333"/>
      <point x="187.667" y="560.5"/>
      <point x="177" y="549.5" type="curve" smooth="yes"/>
      <point x="166.333" y="538.5"/>
      <point x="153.667" y="533"/>
    </contour>
  </outline>
</glyph>
<glyph name="IJ" format="2">
  <advance width="683"/>
  <unicode hex="0132"/>
  <outline>
    <contour>
      <point x="309" y="0" type="line"/>
      <point x="37" y="0" type="line"/>
      <point x="37" y="29" type="line"/>
      <point x="77.6667" y="32.3333"/>
      <point x="102.667" y="38.8333"/>
      <point x="112" y="48.5" type="curve" smooth="yes"/>
      <point x="121.333" y="58.1667"/>
      <point x="126" y="84"/>
      <point x="126" y="126" type="curve" smooth="yes"/>
      <point x="126" y="524" type="line" smooth="yes"/>
      <point x="126" y="566"/>
      <point x="121.333" y="591.833"/>
      <point x="112" y="601.5" type="curve" smooth="yes"/>
      <point x="102.667" y="611.167"/>
      <point x="77.6667" y="617.667"/>
      <point x="37" y="621" type="curve"/>
      <point x="37" y="650" type="line"/>
      <point x="309" y="650" type="line"/>
      <point x="309" y="621" type="line"/>
      <point x="268.333" y="617.667"/>
      <point x="243.333" y="611.167"/>
      <point x="234" y="601.5" type="curve" smooth="yes"/>
      <point x="224.667" y="591.833"/>
      <point x="220" y="566"/>
      <point x="220" y="524" type="curve" smooth="yes"/>
      <point x="220" y="126" type="line" smooth="yes"/>
      <point x="220" y="84"/>
      <point x="224.667" y="58.1667"/>
      <point x="234" y="48.5" type="curve" smooth="yes"/>
      <point x="243.333" y="38.8333"/>
      <point x="268.333" y="32.3333"/>
      <point x="309" y="29" type="curve"/>
    </contour>
    <contour>
      <point x="657" y="650" type="line"/>
      <point x="657" y="621" type="line"/>
      <point x="629.664" y="619"/>
      <point x="610.831" y="615.667"/>
      <point x="600.5" y="611" type="curve" smooth="yes"/>
      <point x="590.167" y="606.333"/>
      <point x="583" y="598"/>
      <point x="579" y="586" type="curve" smooth="yes"/>
      <point x="575" y="574"/>
      <point x="573" y="553.333"/>
      <point x="573" y="524" type="curve" smooth="yes"/>
      <point x="573" y="158" type="line" smooth="yes"/>
      <point x="573" y="92.6667"/>
      <point x="566.667" y="40.167"/>
      <point x="554" y="0.5" type="curve" smooth="yes"/>
      <point x="541.333" y="-39.167"/>
      <point x="518" y="-74.3333"/>
      <point x="484" y="-105" type="curve" smooth="yes"/>
      <point x="451.333" y="-135"/>
      <point x="418.666" y="-154.667"/>
      <point x="386" y="-164" type="curve"/>
      <point x="373" y="-134" type="line"/>
      <point x="425.667" y="-109.333"/>
      <point x="457.667" y="-66.6667"/>
      <point x="469" y="-6" type="curve"/>
      <point x="475.667" y="36"/>
      <point x="479" y="100"/>
      <point x="479" y="186" type="curve" smooth="yes"/>
      <point x="479" y="524" type="line" smooth="yes"/>
      <point x="479" y="566"/>
      <point x="474.333" y="591.833"/>
      <point x="465" y="601.5" type="curve" smooth="yes"/>
      <point x="455.667" y="611.167"/>
      <point x="430.667" y="617.667"/>
      <point x="390" y="621" type="curve"/>
      <point x="390" y="650" type="line"/>
    </contour>
  </outline>
</glyph>
<glyph name="jcircumflex" format="2">
  <advance width="264"/>
  <unicode hex="0135"/>
  <outline>
    <contour>
      <point x="33" y="390" type="curve"/>
      <point x="33" y="412" type="line"/>
      <point x="91.6667" y="420.667"/>
      <point x="143.667" y="433.667"/>
      <point x="189" y="451" type="curve"/>
      <point x="189" y="113" type="line" smooth="yes"/>
      <point x="189" y="48.3333"/>
      <point x="181" y="-5.333"/>
      <point x="165" y="-48" type="curve" smooth="yes"/>
      <point x="149" y="-92"/>
      <point x="128.333" y="-132.333"/>
      <point x="103" y="-169" type="curve" smooth="yes"/>
      <point x="77.6667" y="-205.667"/>
      <point x="57" y="-230.667"/>
      <point x="41" y="-244" type="curve"/>
      <point x="29.6667" y="-252"/>
      <point x="20.3333" y="-256"/>
      <point x="13" y="-256" type="curve" smooth="yes"/>
      <point x="5" y="-256"/>
      <point x="-2.8333" y="-251.833"/>
      <point x="-10.5" y="-243.5" type="curve" smooth="yes"/>
      <point x="-18.1667" y="-235.167"/>
      <point x="-22" y="-225"/>
      <point x="-22" y="-213" type="curve" smooth="yes"/>
      <point x="-22" y="-199"/>
      <point x="-15" y="-190.667"/>
      <point x="-1" y="-188" type="curve" smooth="yes"/>
      <point x="35.6667" y="-182"/>
      <point x="59.6667" y="-170.333"/>
      <point x="71" y="-153" type="curve"/>
      <point x="81.6667" y="-139.667"/>
      <point x="89" y="-115.667"/>
      <point x="93" y="-81" type="curve" smooth="yes"/>
      <point x="98.3333" y="-41"/>
      <point x="101" y="23.667"/>
      <point x="101" y="113" type="curve" smooth="yes"/>
      <point x="101" y="308" type="line" smooth="yes"/>
      <point x="101" y="342.667"/>
      <point x="97.5" y="364"/>
      <point x="90.5" y="372" type="curve" smooth="yes"/>
      <point x="83.5" y="380"/>
      <point x="64.3333" y="386"/>
    </contour>
    <contour>
      <point x="247" y="508" type="curve"/>
      <point x="222" y="490" type="line"/>
      <point x="198.667" y="510.667"/>
      <point x="168.667" y="542.667"/>
      <point x="132" y="586" type="curve"/>
      <point x="95.3333" y="542.667"/>
      <point x="65.3333" y="510.667"/>
      <point x="42" y="490" type="curve"/>
      <point x="17" y="508" type="line"/>
      <point x="52.3333" y="557.333"/>
      <point x="86.3333" y="612.333"/>
      <point x="119" y="673" type="curve"/>
      <point x="146" y="673" type="line"/>
      <point x="176.667" y="614.333"/>
      <point x="210.333" y="559.333"/>
    </contour>
  </outline>
</glyph>
<glyph name="Kcommaaccent" format="2">
  <advance width="678"/>
  <unicode hex="0136"/>
  <outline>
    <contour>
      <point x="673" y="0" type="line"/>
      <point x="511" y="0" type="line"/>
      <point x="272" y="289" type="line" smooth="yes"/>
      <point x="261.333" y="302.333"/>
      <point x="252.167" y="310.833"/>
      <point x="244.5" y="314.5" type="curve" smooth="yes"/>
      <point x="236.833" y="318.167"/>
      <point x="228.333" y="319.333"/>
      <point x="219" y="318" type="curve"/>
      <point x="219" y="130" type="line" smooth="yes"/>
      <point x="219" y="86.6666"/>
      <point x="223.833" y="59.8333"/>
      <point x="233.5" y="49.5" type="curve" smooth="yes"/>
      <point x="243.167" y="39.1666"/>
      <point x="268.667" y="32.3333"/>
      <point x="310" y="29" type="curve"/>
      <point x="310" y="0" type="line"/>
      <point x="43" y="0" type="line"/>
      <point x="43" y="29" type="line"/>
      <point x="81" y="32.3333"/>
      <point x="104.5" y="39.1667"/>
      <point x="113.5" y="49.5" type="curve" smooth="yes"/>
      <point x="122.5" y="59.8333"/>
      <point x="127" y="86.6667"/>
      <point x="127" y="130" type="curve" smooth="yes"/>
      <point x="127" y="520" type="line" smooth="yes"/>
      <point x="127" y="564"/>
      <point x="122.333" y="591"/>
      <point x="113" y="601" type="curve" smooth="yes"/>
      <point x="103.667" y="611"/>
      <point x="79.3333" y="617.667"/>
      <point x="40" y="621" type="curve"/>
      <point x="40" y="650" type="line"/>
      <point x="304" y="650" type="line"/>
      <point x="304" y="621" type="line"/>
      <point x="265.333" y="617.657"/>
      <point x="241.5" y="610.824"/>
      <point x="232.5" y="600.5" type="curve" smooth="yes"/>
      <point x="223.5" y="590.166"/>
      <point x="219" y="563.333"/>
      <point x="219" y="520" type="curve" smooth="yes"/>
      <point x="219" y="346" type="line"/>
      <point x="236.333" y="350"/>
      <point x="260" y="365.333"/>
      <point x="290" y="392" type="curve"/>
      <point x="359.333" y="460"/>
      <point x="413.667" y="518.334"/>
      <point x="453" y="567" type="curve" smooth="yes"/>
      <point x="465.653" y="581.954"/>
      <point x="471.98" y="593.063"/>
      <point x="471.98" y="600.326" type="curve" smooth="yes"/>
      <point x="471.98" y="601.481"/>
      <point x="471.82" y="602.539"/>
      <point x="471.5" y="603.5" type="curve" smooth="yes"/>
      <point x="469.167" y="610.5"/>
      <point x="457" y="615.333"/>
      <point x="435" y="618" type="curve" smooth="yes"/>
      <point x="413" y="621" type="line"/>
      <point x="413" y="650" type="line"/>
      <point x="656" y="650" type="line"/>
      <point x="656" y="621" type="line"/>
      <point x="618.667" y="617.667"/>
      <point x="590" y="611.5"/>
      <point x="570" y="602.5" type="curve" smooth="yes"/>
      <point x="550" y="593.5"/>
      <point x="524.667" y="575"/>
      <point x="494" y="547" type="curve"/>
      <point x="323" y="377" type="line"/>
      <point x="388.333" y="293.667"/>
      <point x="465.333" y="201.667"/>
      <point x="554" y="101" type="curve"/>
      <point x="579.333" y="74.3333"/>
      <point x="599.5" y="56.5"/>
      <point x="614.5" y="47.5" type="curve" smooth="yes"/>
      <point x="629.5" y="38.5"/>
      <point x="649" y="32.3333"/>
      <point x="673" y="29" type="curve"/>
    </contour>
    <contour>
      <point x="365" y="-22" type="curve" smooth="yes"/>
      <point x="385" y="-22"/>
      <point x="402.5" y="-29.6667"/>
      <point x="417.5" y="-45" type="curve" smooth="yes"/>
      <point x="432.5" y="-60.3333"/>
      <point x="440" y="-80"/>
      <point x="440" y="-104" type="curve" smooth="yes"/>
      <point x="440" y="-157.333"/>
      <point x="403.667" y="-193.333"/>
      <point x="331" y="-212" type="curve"/>
      <point x="321" y="-185" type="line"/>
      <point x="361.667" y="-167"/>
      <point x="382" y="-147.333"/>
      <point x="382" y="-126" type="curve" smooth="yes"/>
      <point x="382" y="-106"/>
      <point x="366.667" y="-92"/>
      <point x="336" y="-84" type="curve" smooth="yes"/>
      <point x="326" y="-81.3333"/>
      <point x="321" y="-73.3333"/>
      <point x="321" y="-60" type="curve" smooth="yes"/>
      <point x="321" y="-48"/>
      <point x="325.333" y="-38.6667"/>
      <point x="334" y="-32" type="curve" smooth="yes"/>
      <point x="342.667" y="-25.3333"/>
      <point x="353" y="-22"/>
    </contour>
  </outline>
</glyph>
<glyph name="kcommaaccent" format="2">
  <advance width="499"/>
  <unicode hex="0137"/>
  <outline>
    <contour>
      <point x="517" y="0" type="line"/>
      <point x="373" y="-1" type="line"/>
      <point x="363" y="9.6667"/>
      <point x="351" y="23.6667"/>
      <point x="337" y="41" type="curve" smooth="yes"/>
      <point x="323" y="58.3333"/>
      <point x="310.5" y="74"/>
      <point x="299.5" y="88" type="curve" smooth="yes"/>
      <point x="288.5" y="102"/>
      <point x="273.833" y="120.833"/>
      <point x="255.5" y="144.5" type="curve" smooth="yes"/>
      <point x="237.167" y="168.167"/>
      <point x="224" y="185.334"/>
      <point x="216" y="196" type="curve" smooth="yes"/>
      <point x="204" y="210"/>
      <point x="194" y="217"/>
      <point x="186" y="217" type="curve" smooth="yes"/>
      <point x="180.667" y="217"/>
      <point x="176" y="216.333"/>
      <point x="172" y="215" type="curve"/>
      <point x="172" y="105" type="line" smooth="yes"/>
      <point x="172" y="72.3333"/>
      <point x="175.833" y="52"/>
      <point x="183.5" y="44" type="curve" smooth="yes"/>
      <point x="191.167" y="36"/>
      <point x="211" y="30.3333"/>
      <point x="243" y="27" type="curve"/>
      <point x="243" y="0" type="line"/>
      <point x="13" y="0" type="line"/>
      <point x="13" y="27" type="line"/>
      <point x="45.6667" y="29.6667"/>
      <point x="65.8333" y="35.1667"/>
      <point x="73.5" y="43.5" type="curve" smooth="yes"/>
      <point x="81.1667" y="51.8333"/>
      <point x="85" y="72.3333"/>
      <point x="85" y="105" type="curve" smooth="yes"/>
      <point x="85" y="575" type="line" smooth="yes"/>
      <point x="85" y="607"/>
      <point x="81.6667" y="626.833"/>
      <point x="75" y="634.5" type="curve" smooth="yes"/>
      <point x="68.3333" y="642.177"/>
      <point x="50" y="647.343"/>
      <point x="20" y="650" type="curve"/>
      <point x="20" y="676" type="line"/>
      <point x="64.6666" y="680.667"/>
      <point x="115.333" y="692"/>
      <point x="172" y="710" type="curve"/>
      <point x="172" y="242" type="line"/>
      <point x="195.333" y="246.667"/>
      <point x="215.667" y="258.333"/>
      <point x="233" y="277" type="curve" smooth="yes"/>
      <point x="255" y="300.334"/>
      <point x="277.667" y="329.667"/>
      <point x="301" y="365" type="curve" smooth="yes"/>
      <point x="308.757" y="375.667"/>
      <point x="312.636" y="383.953"/>
      <point x="312.636" y="389.859" type="curve" smooth="yes"/>
      <point x="312.636" y="392.074"/>
      <point x="312.091" y="393.955"/>
      <point x="311" y="395.5" type="curve" smooth="yes"/>
      <point x="307" y="401.167"/>
      <point x="293.667" y="405.333"/>
      <point x="271" y="408" type="curve"/>
      <point x="272" y="435" type="line"/>
      <point x="478" y="444" type="line"/>
      <point x="478" y="418" type="line"/>
      <point x="444.667" y="412.667"/>
      <point x="419.667" y="406.167"/>
      <point x="403" y="398.5" type="curve" smooth="yes"/>
      <point x="386.333" y="390.833"/>
      <point x="368.666" y="378"/>
      <point x="350" y="360" type="curve" smooth="yes"/>
      <point x="332.667" y="343.333"/>
      <point x="305" y="312.666"/>
      <point x="267" y="268" type="curve"/>
      <point x="276.333" y="252.667"/>
      <point x="299.333" y="222.833"/>
      <point x="336" y="178.5" type="curve" smooth="yes"/>
      <point x="372.667" y="134.167"/>
      <point x="400.667" y="101.667"/>
      <point x="420" y="81" type="curve" smooth="yes"/>
      <point x="451.334" y="47.6667"/>
      <point x="483.667" y="29.6667"/>
      <point x="517" y="27" type="curve"/>
    </contour>
    <contour>
      <point x="265" y="-33" type="curve" smooth="yes"/>
      <point x="285" y="-33"/>
      <point x="302.5" y="-40.6667"/>
      <point x="317.5" y="-56" type="curve" smooth="yes"/>
      <point x="332.5" y="-71.3333"/>
      <point x="340" y="-91"/>
      <point x="340" y="-115" type="curve" smooth="yes"/>
      <point x="340" y="-168.333"/>
      <point x="303.667" y="-204.333"/>
      <point x="231" y="-223" type="curve"/>
      <point x="222" y="-195" type="line"/>
      <point x="262.667" y="-177.667"/>
      <point x="283" y="-158.333"/>
      <point x="283" y="-137" type="curve" smooth="yes"/>
      <point x="283" y="-116.333"/>
      <point x="267.333" y="-102.333"/>
      <point x="236" y="-95" type="curve" smooth="yes"/>
      <point x="226" y="-92.3333"/>
      <point x="221" y="-84.3333"/>
      <point x="221" y="-71" type="curve" smooth="yes"/>
      <point x="221" y="-59"/>
      <point x="225.333" y="-49.6667"/>
      <point x="234" y="-43" type="curve" smooth="yes"/>
      <point x="242.667" y="-36.3333"/>
      <point x="253" y="-33"/>
    </contour>
  </outline>
</glyph>
<glyph name="Lacute" format="2">
  <advance width="541"/>
  <unicode hex="0139"/>
  <outline>
    <contour>
      <point x="499" y="166" type="curve"/>
      <point x="529" y="160" type="line"/>
      <point x="517.665" y="95.3333"/>
      <point x="505.665" y="42"/>
      <point x="493" y="0" type="curve"/>
      <point x="34" y="0" type="line"/>
      <point x="34" y="29" type="line"/>
      <point x="76.6667" y="32.3333"/>
      <point x="102.833" y="39"/>
      <point x="112.5" y="49" type="curve" smooth="yes"/>
      <point x="122.167" y="59"/>
      <point x="127" y="85"/>
      <point x="127" y="127" type="curve" smooth="yes"/>
      <point x="127" y="524" type="line" smooth="yes"/>
      <point x="127" y="547.333"/>
      <point x="126.333" y="564.333"/>
      <point x="125" y="575" type="curve" smooth="yes"/>
      <point x="123.667" y="585.667"/>
      <point x="119.667" y="594.667"/>
      <point x="113" y="602" type="curve" smooth="yes"/>
      <point x="106.333" y="609.333"/>
      <point x="98" y="614"/>
      <point x="88" y="616" type="curve" smooth="yes"/>
      <point x="78" y="618"/>
      <point x="62" y="619.667"/>
      <point x="40" y="621" type="curve"/>
      <point x="40" y="650" type="line"/>
      <point x="309" y="650" type="line"/>
      <point x="309" y="621" type="line"/>
      <point x="280.333" y="619"/>
      <point x="260.666" y="615.833"/>
      <point x="250" y="611.5" type="curve" smooth="yes"/>
      <point x="239.333" y="607.167"/>
      <point x="231.833" y="599"/>
      <point x="227.5" y="587" type="curve" smooth="yes"/>
      <point x="223.167" y="575"/>
      <point x="221" y="554"/>
      <point x="221" y="524" type="curve" smooth="yes"/>
      <point x="221" y="130" type="line" smooth="yes"/>
      <point x="221" y="103.333"/>
      <point x="222.667" y="84.1666"/>
      <point x="226" y="72.5" type="curve" smooth="yes"/>
      <point x="229.333" y="60.8333"/>
      <point x="235.333" y="52.6667"/>
      <point x="244" y="48" type="curve" smooth="yes"/>
      <point x="258.667" y="40"/>
      <point x="289.333" y="36"/>
      <point x="336" y="36" type="curve" smooth="yes"/>
      <point x="391.333" y="36"/>
      <point x="428" y="46.3333"/>
      <point x="446" y="67" type="curve" smooth="yes"/>
      <point x="466.667" y="89.6667"/>
      <point x="484.333" y="122.667"/>
    </contour>
    <contour>
      <point x="327" y="756" type="curve"/>
      <point x="325" y="747" type="line"/>
      <point x="136" y="684" type="line"/>
      <point x="123" y="709" type="line"/>
      <point x="283" y="815" type="line"/>
      <point x="289" y="813.667"/>
      <point x="297.5" y="805.667"/>
      <point x="308.5" y="791" type="curve" smooth="yes"/>
      <point x="319.5" y="776.333"/>
      <point x="325.667" y="764.667"/>
    </contour>
  </outline>
</glyph>
<glyph name="lacute" format="2">
  <advance width="258"/>
  <unicode hex="013A"/>
  <outline>
    <contour>
      <point x="244" y="0" type="line"/>
      <point x="15" y="0" type="line"/>
      <point x="15" y="27" type="line"/>
      <point x="46.3333" y="30.3333"/>
      <point x="65.8333" y="36"/>
      <point x="73.5" y="44" type="curve" smooth="yes"/>
      <point x="81.1667" y="52"/>
      <point x="85" y="72.3333"/>
      <point x="85" y="105" type="curve" smooth="yes"/>
      <point x="85" y="576" type="line" smooth="yes"/>
      <point x="85" y="608.667"/>
      <point x="81.6667" y="628.5"/>
      <point x="75" y="635.5" type="curve" smooth="yes"/>
      <point x="68.3333" y="642.5"/>
      <point x="49" y="647.667"/>
      <point x="17" y="651" type="curve"/>
      <point x="17" y="676" type="line"/>
      <point x="73" y="682"/>
      <point x="125" y="693.333"/>
      <point x="173" y="710" type="curve"/>
      <point x="173" y="105" type="line" smooth="yes"/>
      <point x="173" y="72.3333"/>
      <point x="176.833" y="52"/>
      <point x="184.5" y="44" type="curve" smooth="yes"/>
      <point x="192.167" y="36"/>
      <point x="212" y="30.3333"/>
      <point x="244" y="27" type="curve"/>
    </contour>
    <contour>
      <point x="256" y="800" type="curve"/>
      <point x="254" y="791" type="line"/>
      <point x="65" y="728" type="line"/>
      <point x="52" y="754" type="line"/>
      <point x="212" y="859" type="line"/>
      <point x="218" y="857.667"/>
      <point x="226.5" y="849.667"/>
      <point x="237.5" y="835" type="curve" smooth="yes"/>
      <point x="248.5" y="820.333"/>
      <point x="254.667" y="808.667"/>
    </contour>
  </outline>
</glyph>
<glyph name="Lcommaaccent" format="2">
  <advance width="541"/>
  <unicode hex="013B"/>
  <outline>
    <contour>
      <point x="499" y="166" type="curve"/>
      <point x="529" y="160" type="line"/>
      <point x="517.665" y="95.3333"/>
      <point x="505.665" y="42"/>
      <point x="493" y="0" type="curve"/>
      <point x="34" y="0" type="line"/>
      <point x="34" y="29" type="line"/>
      <point x="76.6667" y="32.3333"/>
      <point x="102.833" y="39"/>
      <point x="112.5" y="49" type="curve" smooth="yes"/>
      <point x="122.167" y="59"/>
      <point x="127" y="85"/>
      <point x="127" y="127" type="curve" smooth="yes"/>
      <point x="127" y="524" type="line" smooth="yes"/>
      <point x="127" y="547.333"/>
      <point x="126.333" y="564.333"/>
      <point x="125" y="575" type="curve" smooth="yes"/>
      <point x="123.667" y="585.667"/>
      <point x="119.667" y="594.667"/>
      <point x="113" y="602" type="curve" smooth="yes"/>
      <point x="106.333" y="609.333"/>
      <point x="98" y="614"/>
      <point x="88" y="616" type="curve" smooth="yes"/>
      <point x="78" y="618"/>
      <point x="62" y="619.667"/>
      <point x="40" y="621" type="curve"/>
      <point x="40" y="650" type="line"/>
      <point x="309" y="650" type="line"/>
      <point x="309" y="621" type="line"/>
      <point x="280.333" y="619"/>
      <point x="260.666" y="615.833"/>
      <point x="250" y="611.5" type="curve" smooth="yes"/>
      <point x="239.333" y="607.167"/>
      <point x="231.833" y="599"/>
      <point x="227.5" y="587" type="curve" smooth="yes"/>
      <point x="223.167" y="575"/>
      <point x="221" y="554"/>
      <point x="221" y="524" type="curve" smooth="yes"/>
      <point x="221" y="130" type="line" smooth="yes"/>
      <point x="221" y="103.333"/>
      <point x="222.667" y="84.1666"/>
      <point x="226" y="72.5" type="curve" smooth="yes"/>
      <point x="229.333" y="60.8333"/>
      <point x="235.333" y="52.6667"/>
      <point x="244" y="48" type="curve" smooth="yes"/>
      <point x="258.667" y="40"/>
      <point x="289.333" y="36"/>
      <point x="336" y="36" type="curve" smooth="yes"/>
      <point x="391.333" y="36"/>
      <point x="428" y="46.3333"/>
      <point x="446" y="67" type="curve" smooth="yes"/>
      <point x="466.667" y="89.6667"/>
      <point x="484.333" y="122.667"/>
    </contour>
    <contour>
      <point x="296" y="-35" type="curve" smooth="yes"/>
      <point x="316" y="-35"/>
      <point x="333.5" y="-42.6667"/>
      <point x="348.5" y="-58" type="curve" smooth="yes"/>
      <point x="363.5" y="-73.3333"/>
      <point x="371" y="-92.6667"/>
      <point x="371" y="-116" type="curve" smooth="yes"/>
      <point x="371" y="-170.667"/>
      <point x="334.667" y="-206.667"/>
      <point x="262" y="-224" type="curve"/>
      <point x="252" y="-197" type="line"/>
      <point x="292.667" y="-179"/>
      <point x="313" y="-159.667"/>
      <point x="313" y="-139" type="curve" smooth="yes"/>
      <point x="313" y="-118.333"/>
      <point x="297.667" y="-104.333"/>
      <point x="267" y="-97" type="curve"/>
      <point x="257" y="-93"/>
      <point x="252" y="-84.6667"/>
      <point x="252" y="-72" type="curve" smooth="yes"/>
      <point x="252" y="-60.6667"/>
      <point x="256.333" y="-51.6667"/>
      <point x="265" y="-45" type="curve" smooth="yes"/>
      <point x="273.667" y="-38.3333"/>
      <point x="284" y="-35"/>
    </contour>
  </outline>
</glyph>
<glyph name="lcommaaccent" format="2">
  <advance width="258"/>
  <unicode hex="013C"/>
  <outline>
    <contour>
      <point x="244" y="0" type="line"/>
      <point x="14" y="0" type="line"/>
      <point x="14" y="27" type="line"/>
      <point x="45.3333" y="30.3333"/>
      <point x="64.8333" y="36"/>
      <point x="72.5" y="44" type="curve" smooth="yes"/>
      <point x="80.1667" y="52"/>
      <point x="84" y="72.3333"/>
      <point x="84" y="105" type="curve" smooth="yes"/>
      <point x="84" y="576" type="line" smooth="yes"/>
      <point x="84" y="608.667"/>
      <point x="80.6667" y="628.5"/>
      <point x="74" y="635.5" type="curve" smooth="yes"/>
      <point x="67.3333" y="642.5"/>
      <point x="48.3333" y="647.667"/>
      <point x="17" y="651" type="curve"/>
      <point x="17" y="676" type="line"/>
      <point x="72.3333" y="682"/>
      <point x="124" y="693.333"/>
      <point x="172" y="710" type="curve"/>
      <point x="172" y="105" type="line" smooth="yes"/>
      <point x="172" y="72.3333"/>
      <point x="175.833" y="52"/>
      <point x="183.5" y="44" type="curve" smooth="yes"/>
      <point x="191.167" y="36"/>
      <point x="211.334" y="30.3333"/>
      <point x="244" y="27" type="curve"/>
    </contour>
    <contour>
      <point x="119" y="-34" type="curve" smooth="yes"/>
      <point x="139" y="-34"/>
      <point x="156.5" y="-41.6667"/>
      <point x="171.5" y="-57" type="curve" smooth="yes"/>
      <point x="186.5" y="-72.3333"/>
      <point x="194" y="-92"/>
      <point x="194" y="-116" type="curve" smooth="yes"/>
      <point x="194" y="-169.333"/>
      <point x="157.667" y="-205.333"/>
      <point x="85" y="-224" type="curve"/>
      <point x="75" y="-196" type="line"/>
      <point x="115.667" y="-179.333"/>
      <point x="136" y="-160"/>
      <point x="136" y="-138" type="curve" smooth="yes"/>
      <point x="136" y="-117.333"/>
      <point x="120.667" y="-103.333"/>
      <point x="90" y="-96" type="curve" smooth="yes"/>
      <point x="80" y="-93.3333"/>
      <point x="75" y="-85.3333"/>
      <point x="75" y="-72" type="curve" smooth="yes"/>
      <point x="75" y="-60"/>
      <point x="79.3333" y="-50.6667"/>
      <point x="88" y="-44" type="curve" smooth="yes"/>
      <point x="96.6667" y="-37.3333"/>
      <point x="107" y="-34"/>
    </contour>
  </outline>
</glyph>
<glyph name="Lslash" format="2">
  <advance width="552"/>
  <unicode hex="0141"/>
  <outline>
    <contour>
      <point x="509" y="167" type="curve"/>
      <point x="541" y="162" type="line"/>
      <point x="525" y="80.6667"/>
      <point x="513" y="26.667"/>
      <point x="505" y="0" type="curve"/>
      <point x="45" y="0" type="line"/>
      <point x="45" y="29" type="line"/>
      <point x="87.6667" y="32.3333"/>
      <point x="114" y="39.3333"/>
      <point x="124" y="50" type="curve" smooth="yes"/>
      <point x="134" y="60.6667"/>
      <point x="139" y="88"/>
      <point x="139" y="132" type="curve" smooth="yes"/>
      <point x="139" y="274" type="line"/>
      <point x="40" y="202" type="line"/>
      <point x="40" y="249" type="line"/>
      <point x="139" y="322" type="line"/>
      <point x="139" y="519" type="line" smooth="yes"/>
      <point x="139" y="562.333"/>
      <point x="134.333" y="589.333"/>
      <point x="125" y="600" type="curve" smooth="yes"/>
      <point x="115.667" y="610.667"/>
      <point x="91.3333" y="617.667"/>
      <point x="52" y="621" type="curve"/>
      <point x="52" y="650" type="line"/>
      <point x="321" y="650" type="line"/>
      <point x="320" y="621" type="line"/>
      <point x="280.667" y="617.667"/>
      <point x="256.333" y="610.667"/>
      <point x="247" y="600" type="curve" smooth="yes"/>
      <point x="237.667" y="589.333"/>
      <point x="233" y="562.333"/>
      <point x="233" y="519" type="curve" smooth="yes"/>
      <point x="233" y="387" type="line"/>
      <point x="360" y="480" type="line"/>
      <point x="360" y="432" type="line"/>
      <point x="233" y="338" type="line"/>
      <point x="233" y="139" type="line" smooth="yes"/>
      <point x="233" y="109.667"/>
      <point x="234.5" y="88.3333"/>
      <point x="237.5" y="75" type="curve" smooth="yes"/>
      <point x="240.5" y="61.6667"/>
      <point x="246.667" y="52.6667"/>
      <point x="256" y="48" type="curve" smooth="yes"/>
      <point x="271.333" y="40"/>
      <point x="302" y="36"/>
      <point x="348" y="36" type="curve" smooth="yes"/>
      <point x="403.333" y="36"/>
      <point x="440" y="46.3333"/>
      <point x="458" y="67" type="curve" smooth="yes"/>
      <point x="475.333" y="86.3333"/>
      <point x="492.333" y="119.667"/>
    </contour>
  </outline>
</glyph>
<glyph name="lslash" format="2">
  <advance width="279"/>
  <unicode hex="0142"/>
  <outline>
    <contour>
      <point x="275" y="463" type="line"/>
      <point x="186" y="388" type="line"/>
      <point x="186" y="110" type="line" smooth="yes"/>
      <point x="186" y="75.3333"/>
      <point x="190" y="53.6667"/>
      <point x="198" y="45" type="curve" smooth="yes"/>
      <point x="206" y="36.3333"/>
      <point x="226.333" y="30.3333"/>
      <point x="259" y="27" type="curve"/>
      <point x="259" y="0" type="line"/>
      <point x="25" y="0" type="line"/>
      <point x="25" y="27" type="line"/>
      <point x="57.6667" y="30.3333"/>
      <point x="78" y="36.3333"/>
      <point x="86" y="45" type="curve" smooth="yes"/>
      <point x="94" y="53.6667"/>
      <point x="98" y="75.3333"/>
      <point x="98" y="110" type="curve" smooth="yes"/>
      <point x="98" y="318" type="line"/>
      <point x="24" y="257" type="line"/>
      <point x="24" y="304" type="line"/>
      <point x="98" y="365" type="line"/>
      <point x="98" y="583" type="line" smooth="yes"/>
      <point x="98" y="612.333"/>
      <point x="94.5" y="630.667"/>
      <point x="87.5" y="638" type="curve" smooth="yes"/>
      <point x="80.5" y="645.333"/>
      <point x="61" y="651"/>
      <point x="29" y="655" type="curve"/>
      <point x="29" y="679" type="line"/>
      <point x="89" y="686.333"/>
      <point x="141.333" y="698"/>
      <point x="186" y="714" type="curve"/>
      <point x="186" y="434" type="line"/>
      <point x="275" y="510" type="line"/>
    </contour>
  </outline>
</glyph>
